<?xml version="1.0" encoding="iso-8859-1"?>
<!-- Generator: Adobe Illustrator 19.0.0, SVG Export Plug-In . SVG Version: 6.00 Build 0)  -->
<svg xmlns="http://www.w3.org/2000/svg" xmlns:xlink="http://www.w3.org/1999/xlink" version="1.1" id="Layer_1" x="0px" y="0px" viewBox="0 0 512.001 512.001" style="enable-background:new 0 0 512.001 512.001;" xml:space="preserve">
<g>
	<path style="fill:#8697CB;" d="M432.587,172.138C431.572,95.347,369.09,30.897,292.052,30.897   c-49.073,0-95.144,26.536-120.585,64.759c-11.193-7.442-24.602-11.794-39.053-11.794c-39,0-70.621,31.62-70.621,70.621   c0,1.351,0.132,2.675,0.212,3.999c-0.088,1.624-0.212,3.24-0.212,4.829C26.589,180.189,0,220.311,0,261.774   c0,51.421,31.647,96.018,79.448,104.572h353.103C477.687,357.977,512,316.505,512,268.995   C512,221.582,477.634,180.622,432.587,172.138"/>
	<g>
		<path style="fill:#556080;" d="M388.406,180.966c-4.29,0-8.051-3.125-8.713-7.503c-0.733-4.82,2.578-9.313,7.397-10.046    c22.863-3.478,45.815-0.159,46.777-0.009c4.82,0.715,8.148,5.199,7.442,10.019s-5.27,8.121-10.019,7.442    c-0.221-0.026-21.389-3.037-41.551-0.009C389.297,180.931,388.847,180.966,388.406,180.966"/>
		<path style="fill:#556080;" d="M211.863,163.311c-4.882,0-8.828-3.946-8.828-8.828c0-34.066-27.727-61.793-61.793-61.793    s-61.793,27.727-61.793,61.793c0,4.882-3.946,8.828-8.828,8.828s-8.828-3.946-8.828-8.828c0-43.811,35.637-79.448,79.448-79.448    s79.448,35.637,79.448,79.448C220.691,159.365,216.745,163.311,211.863,163.311"/>
	</g>
	<path style="fill:#F0C419;" d="M406.07,207.449c0,0-33.589,35.31-105.931,35.31v92.487c0,47.025,24.09,92.363,61.069,121.415   c13.083,10.284,26.977,19.129,44.862,24.444c17.885-5.314,34.869-14.159,47.96-24.444c36.961-29.052,57.971-74.39,57.971-121.415   v-93.219C439.659,242.026,406.07,207.449,406.07,207.449"/>
	<path style="fill:#FFFFFF;" d="M406.07,445.811c-7.38-3.302-14.654-7.936-23.296-14.733   c-29.343-23.066-47.325-61.131-47.325-95.832v-57.176c31.347-4.555,54.74-17.205,70.621-26.483   c15.881,9.278,39.274,21.928,70.621,26.483v57.176c0,36.758-16.878,73.94-44.729,95.823   C424.652,436.807,415.577,441.954,406.07,445.811"/>
	<path style="fill:#26B99A;" d="M397.242,384c-2.33,0-4.582-0.918-6.241-2.586l-26.483-26.483c-3.452-3.452-3.452-9.031,0-12.482   c3.452-3.452,9.031-3.452,12.482,0l19.112,19.112l38.091-53.31c2.834-3.964,8.351-4.89,12.306-2.048   c3.964,2.825,4.89,8.342,2.048,12.306l-44.138,61.793c-1.501,2.11-3.866,3.46-6.453,3.672C397.728,383.992,397.481,384,397.242,384   "/>
</g>
<g>
</g>
<g>
</g>
<g>
</g>
<g>
</g>
<g>
</g>
<g>
</g>
<g>
</g>
<g>
</g>
<g>
</g>
<g>
</g>
<g>
</g>
<g>
</g>
<g>
</g>
<g>
</g>
<g>
</g>
</svg>
