<?xml version="1.0" encoding="iso-8859-1"?>
<!-- Generator: Adobe Illustrator 19.0.0, SVG Export Plug-In . SVG Version: 6.00 Build 0)  -->
<svg xmlns="http://www.w3.org/2000/svg" xmlns:xlink="http://www.w3.org/1999/xlink" version="1.1" id="Layer_1" x="0px" y="0px" viewBox="0 0 512 512" style="enable-background:new 0 0 512 512;" xml:space="preserve">
<g>
	<path style="fill:#8697CB;" d="M432.587,167.724C431.572,90.933,369.09,26.483,292.052,26.483   c-49.073,0-95.144,26.536-120.585,64.759c-11.193-7.442-24.602-11.794-39.053-11.794c-39,0-70.621,31.62-70.621,70.621   c0,1.351,0.132,2.675,0.212,3.999c-0.088,1.624-0.212,3.24-0.212,4.829C26.589,175.775,0,215.896,0,257.359   c0,51.421,31.647,96.018,79.448,104.572h353.103C477.687,353.562,512,312.09,512,264.58   C512,217.167,477.634,176.207,432.587,167.724"/>
	<g>
		<path style="fill:#556080;" d="M388.406,176.552c-4.29,0-8.051-3.125-8.713-7.503c-0.733-4.82,2.578-9.313,7.397-10.046    c22.863-3.478,45.815-0.159,46.777-0.009c4.82,0.715,8.148,5.199,7.442,10.019s-5.27,8.121-10.019,7.442    c-0.221-0.026-21.389-3.037-41.551-0.009C389.297,176.516,388.847,176.552,388.406,176.552"/>
		<path style="fill:#556080;" d="M211.863,158.897c-4.882,0-8.828-3.946-8.828-8.828c0-34.066-27.727-61.793-61.793-61.793    s-61.793,27.727-61.793,61.793c0,4.882-3.946,8.828-8.828,8.828s-8.828-3.946-8.828-8.828c0-43.811,35.637-79.448,79.448-79.448    s79.448,35.637,79.448,79.448C220.691,154.951,216.745,158.897,211.863,158.897"/>
	</g>
	<path style="fill:#35495E;" d="M414.897,291.31c0,19.5-41.887,35.31-158.897,35.31S97.104,310.81,97.104,291.31   c0-19.5,41.887-35.31,158.897-35.31S414.897,271.81,414.897,291.31"/>
	<path style="fill:#1F2F3D;" d="M256.001,326.621c-117.01,0-158.897-15.81-158.897-35.31v79.448c0,19.5,41.887,35.31,158.897,35.31   s158.897-15.81,158.897-35.31V291.31C414.897,310.81,373.011,326.621,256.001,326.621"/>
	<path style="fill:#35495E;" d="M256.001,406.069c-117.01,0-158.897-15.81-158.897-35.31v79.448c0,19.5,41.887,35.31,158.897,35.31   s158.897-15.81,158.897-35.31v-79.448C414.897,390.259,373.011,406.069,256.001,406.069"/>
</g>
<g>
</g>
<g>
</g>
<g>
</g>
<g>
</g>
<g>
</g>
<g>
</g>
<g>
</g>
<g>
</g>
<g>
</g>
<g>
</g>
<g>
</g>
<g>
</g>
<g>
</g>
<g>
</g>
<g>
</g>
</svg>
