<?xml version="1.0" encoding="iso-8859-1"?>
<!-- Generator: Adobe Illustrator 19.0.0, SVG Export Plug-In . SVG Version: 6.00 Build 0)  -->
<svg xmlns="http://www.w3.org/2000/svg" xmlns:xlink="http://www.w3.org/1999/xlink" version="1.1" id="Layer_1" x="0px" y="0px" viewBox="0 0 512 512" style="enable-background:new 0 0 512 512;" xml:space="preserve">
<g>
	<path style="fill:#8697CB;" d="M432.587,203.034C477.634,211.518,512,252.478,512,299.891c0,47.51-34.313,88.982-79.448,97.351   H79.448C31.647,388.687,0,344.09,0,292.67c0-41.463,26.589-81.585,61.793-98.463c0-1.589,0.124-3.204,0.212-4.829   c-0.079-1.324-0.212-2.648-0.212-3.999c0-39,31.62-70.621,70.621-70.621c14.451,0,27.86,4.352,39.053,11.794   c25.441-38.223,71.512-64.759,120.585-64.759C369.09,61.793,431.572,126.243,432.587,203.034z"/>
	<g>
		<path style="fill:#556080;" d="M388.406,211.862c-4.29,0-8.051-3.125-8.713-7.503c-0.733-4.82,2.578-9.313,7.397-10.046    c22.863-3.478,45.815-0.159,46.777-0.009c4.82,0.715,8.148,5.199,7.442,10.019c-0.706,4.82-5.27,8.121-10.019,7.442    c-0.221-0.026-21.389-3.037-41.551-0.009C389.297,211.827,388.847,211.862,388.406,211.862"/>
		<path style="fill:#556080;" d="M211.863,194.207c-4.882,0-8.828-3.946-8.828-8.828c0-34.066-27.727-61.793-61.793-61.793    s-61.793,27.727-61.793,61.793c0,4.882-3.946,8.828-8.828,8.828s-8.828-3.946-8.828-8.828c0-43.811,35.637-79.448,79.448-79.448    s79.448,35.637,79.448,79.448C220.691,190.261,216.745,194.207,211.863,194.207"/>
	</g>
	<path style="fill:#35495E;" d="M370.759,450.207H141.242c-14.627,0-26.483-11.855-26.483-26.483v-52.966   c0-14.627,11.855-26.483,26.483-26.483h229.517c14.627,0,26.483,11.855,26.483,26.483v52.966   C397.242,438.351,385.387,450.207,370.759,450.207"/>
	<path style="fill:#E64C3C;" d="M247.173,414.897h-17.655c-4.882,0-8.828-3.946-8.828-8.828v-17.655   c0-4.882,3.946-8.828,8.828-8.828h17.655c4.882,0,8.828,3.946,8.828,8.828v17.655C256.001,410.951,252.055,414.897,247.173,414.897   "/>
	<path style="fill:#F0C419;" d="M176.553,414.897h-17.655c-4.882,0-8.828-3.946-8.828-8.828v-17.655   c0-4.882,3.946-8.828,8.828-8.828h17.655c4.882,0,8.828,3.946,8.828,8.828v17.655C185.38,410.951,181.434,414.897,176.553,414.897"/>
	<path style="fill:#1F2F3D;" d="M353.104,406.069h-61.793c-4.882,0-8.828-3.946-8.828-8.828c0-4.882,3.946-8.828,8.828-8.828h61.793   c4.882,0,8.828,3.946,8.828,8.828C361.932,402.123,357.986,406.069,353.104,406.069"/>
</g>
<g>
</g>
<g>
</g>
<g>
</g>
<g>
</g>
<g>
</g>
<g>
</g>
<g>
</g>
<g>
</g>
<g>
</g>
<g>
</g>
<g>
</g>
<g>
</g>
<g>
</g>
<g>
</g>
<g>
</g>
</svg>
