<?xml version="1.0" encoding="iso-8859-1"?>
<!-- Generator: Adobe Illustrator 19.0.0, SVG Export Plug-In . SVG Version: 6.00 Build 0)  -->
<svg xmlns="http://www.w3.org/2000/svg" xmlns:xlink="http://www.w3.org/1999/xlink" version="1.1" id="Layer_1" x="0px" y="0px" viewBox="0 0 512 512" style="enable-background:new 0 0 512 512;" xml:space="preserve">
<g>
	<g>
		<path style="fill:#BDC3C7;" d="M476.69,428.138c-2.322,0-4.626-0.909-6.365-2.71l-220.69-229.517    c-3.381-3.513-3.266-9.101,0.247-12.482c3.522-3.381,9.101-3.275,12.482,0.247l220.69,229.517    c3.381,3.513,3.266,9.101-0.247,12.482C481.095,427.317,478.888,428.138,476.69,428.138"/>
		<path style="fill:#BDC3C7;" d="M35.31,428.138c-2.198,0-4.405-0.821-6.118-2.463c-3.513-3.381-3.628-8.969-0.247-12.482    l220.69-229.517c3.372-3.522,8.96-3.628,12.482-0.247c3.513,3.381,3.628,8.969,0.247,12.482L41.675,425.428    C39.936,427.229,37.632,428.138,35.31,428.138"/>
		<path style="fill:#BDC3C7;" d="M256,428.138c-4.882,0-8.828-3.946-8.828-8.828V189.793c0-4.882,3.946-8.828,8.828-8.828    s8.828,3.946,8.828,8.828V419.31C264.828,424.192,260.882,428.138,256,428.138"/>
		<path style="fill:#BDC3C7;" d="M79.448,428.138H35.31c-4.882,0-8.828-3.946-8.828-8.828v-44.138c0-4.882,3.946-8.828,8.828-8.828    s8.828,3.946,8.828,8.828v35.31h35.31c4.882,0,8.828,3.946,8.828,8.828C88.276,424.192,84.33,428.138,79.448,428.138"/>
		<path style="fill:#BDC3C7;" d="M476.69,428.138h-44.138c-4.882,0-8.828-3.946-8.828-8.828c0-4.882,3.946-8.828,8.828-8.828h35.31    v-35.31c0-4.882,3.946-8.828,8.828-8.828c4.882,0,8.828,3.946,8.828,8.828v44.138C485.517,424.192,481.571,428.138,476.69,428.138    "/>
		<path style="fill:#BDC3C7;" d="M256,428.138c-2.26,0-4.52-0.865-6.241-2.586l-35.31-35.31c-3.452-3.452-3.452-9.031,0-12.482    c3.452-3.452,9.031-3.452,12.482,0L256,406.828l29.069-29.069c3.452-3.452,9.031-3.452,12.482,0c3.452,3.452,3.452,9.031,0,12.482    l-35.31,35.31C260.52,427.273,258.26,428.138,256,428.138"/>
	</g>
	<polygon style="fill:#F0C419;" points="229.517,507.586 282.483,507.586 282.483,454.621 229.517,454.621  "/>
	<polygon style="fill:#26B99A;" points="459.034,507.586 512,507.586 512,454.621 459.034,454.621  "/>
	<polygon style="fill:#E64C3C;" points="0,507.586 52.966,507.586 52.966,454.621 0,454.621  "/>
	<path style="fill:#8697CB;" d="M343.293,189.793c29.493,0,53.486-24.744,53.486-54.237c0-26.112-18.935-48.666-43.741-53.345   C352.474,39.91,318.064,4.414,275.63,4.414c-27.039,0-52.418,14.61-66.419,35.672c-6.17-4.096-13.559-6.497-21.513-6.497   c-21.486,0-38.903,17.408-38.903,38.903c0,0.742,0.071,1.465,0.106,2.198c-0.035,0.892-0.106,1.783-0.106,2.666   c-19.385,9.287-34.039,31.391-34.039,54.228c0,31.682,26.677,58.209,58.35,58.209H343.293z"/>
	<g>
		<path style="fill:#556080;" d="M319.474,92.69c-4.29,0-8.051-3.125-8.713-7.503c-0.733-4.82,2.578-9.313,7.398-10.046    c13.18-2.013,26.403-0.079,26.951-0.009c4.82,0.715,8.148,5.199,7.433,10.019c-0.706,4.811-5.191,8.095-10.01,7.442    c-0.106-0.009-11.229-1.58-21.725-0.009C320.365,92.654,319.915,92.69,319.474,92.69"/>
		<path style="fill:#556080;" d="M229.052,87.448c-4.882,0-8.828-3.946-8.828-8.828c0-16.578-13.489-30.067-30.076-30.067    c-16.578,0-30.067,13.489-30.067,30.067c0,4.882-3.955,8.828-8.828,8.828c-4.882,0-8.828-3.946-8.828-8.828    c0-26.315,21.398-47.722,47.722-47.722c26.315,0,47.731,21.407,47.731,47.722C237.88,83.502,233.934,87.448,229.052,87.448"/>
	</g>
</g>
<g>
</g>
<g>
</g>
<g>
</g>
<g>
</g>
<g>
</g>
<g>
</g>
<g>
</g>
<g>
</g>
<g>
</g>
<g>
</g>
<g>
</g>
<g>
</g>
<g>
</g>
<g>
</g>
<g>
</g>
</svg>
