<?xml version="1.0" encoding="iso-8859-1"?>
<!-- Generator: Adobe Illustrator 19.0.0, SVG Export Plug-In . SVG Version: 6.00 Build 0)  -->
<svg xmlns="http://www.w3.org/2000/svg" xmlns:xlink="http://www.w3.org/1999/xlink" version="1.1" id="Layer_1" x="0px" y="0px" viewBox="0 0 512 512" style="enable-background:new 0 0 512 512;" xml:space="preserve">
<g>
	<path style="fill:#BDC3C7;" d="M256,273.655c-4.873,0-8.828-3.946-8.828-8.828v-79.448c0-4.882,3.955-8.828,8.828-8.828   s8.828,3.946,8.828,8.828v79.448C264.828,269.709,260.873,273.655,256,273.655"/>
	<path style="fill:#35495E;" d="M414.897,300.138c0,19.5-41.887,35.31-158.897,35.31s-158.897-15.81-158.897-35.31   c0-19.5,41.887-35.31,158.897-35.31S414.897,280.638,414.897,300.138"/>
	<path style="fill:#1F2F3D;" d="M256,335.448c-117.01,0-158.897-15.81-158.897-35.31v88.276c0,19.5,41.887,35.31,158.897,35.31   s158.897-15.81,158.897-35.31v-88.276C414.897,319.638,373.01,335.448,256,335.448"/>
	<path style="fill:#35495E;" d="M256,423.724c-117.01,0-158.897-15.81-158.897-35.31v88.276C97.103,496.19,138.99,512,256,512   s158.897-15.81,158.897-35.31v-88.276C414.897,407.914,373.01,423.724,256,423.724"/>
	<path style="fill:#8697CB;" d="M343.289,185.379c29.493,0,53.486-24.744,53.486-54.237c0-26.112-18.926-48.666-43.741-53.345   C352.478,35.496,318.06,0,275.625,0c-27.03,0-52.409,14.61-66.419,35.672c-6.162-4.096-13.559-6.497-21.513-6.497   c-21.486,0-38.894,17.408-38.894,38.903c0,0.742,0.071,1.465,0.106,2.198c-0.044,0.892-0.106,1.783-0.106,2.666   c-19.394,9.287-34.039,31.391-34.039,54.228c0,31.682,26.668,58.209,58.35,58.209H343.289z"/>
	<g>
		<path style="fill:#556080;" d="M319.474,88.276c-4.29,0-8.051-3.125-8.713-7.503c-0.733-4.82,2.578-9.313,7.398-10.046    c13.18-2.013,26.403-0.079,26.951-0.009c4.82,0.715,8.148,5.199,7.433,10.019c-0.706,4.811-5.191,8.095-10.01,7.442    c-0.106-0.009-11.229-1.58-21.725-0.009C320.365,88.241,319.915,88.276,319.474,88.276"/>
		<path style="fill:#556080;" d="M229.052,83.034c-4.882,0-8.828-3.946-8.828-8.828c0-16.578-13.489-30.067-30.076-30.067    c-16.578,0-30.067,13.489-30.067,30.067c0,4.882-3.955,8.828-8.828,8.828c-4.882,0-8.828-3.946-8.828-8.828    c0-26.315,21.398-47.722,47.722-47.722c26.315,0,47.731,21.407,47.731,47.722C237.88,79.088,233.934,83.034,229.052,83.034"/>
	</g>
</g>
<g>
</g>
<g>
</g>
<g>
</g>
<g>
</g>
<g>
</g>
<g>
</g>
<g>
</g>
<g>
</g>
<g>
</g>
<g>
</g>
<g>
</g>
<g>
</g>
<g>
</g>
<g>
</g>
<g>
</g>
</svg>
