<?xml version="1.0" encoding="iso-8859-1"?>
<!-- Generator: Adobe Illustrator 19.0.0, SVG Export Plug-In . SVG Version: 6.00 Build 0)  -->
<svg xmlns="http://www.w3.org/2000/svg" xmlns:xlink="http://www.w3.org/1999/xlink" version="1.1" id="Layer_1" x="0px" y="0px" viewBox="0 0 512 512" style="enable-background:new 0 0 512 512;" xml:space="preserve">
<g>
	<g>
		<path style="fill:#BDC3C7;" d="M256,179.052c-4.873,0-8.828-3.946-8.828-8.828v-64.291c0-4.882,3.955-8.828,8.828-8.828    s8.828,3.946,8.828,8.828v64.291C264.828,175.106,260.873,179.052,256,179.052"/>
		<path style="fill:#BDC3C7;" d="M256,414.897c-4.873,0-8.828-3.946-8.828-8.828v-61.793c0-4.882,3.955-8.828,8.828-8.828    s8.828,3.946,8.828,8.828v61.793C264.828,410.951,260.873,414.897,256,414.897"/>
	</g>
	<path style="fill:#35495E;" d="M370.759,105.931H141.241c-14.627,0-26.483-11.855-26.483-26.483V26.483   C114.759,11.855,126.614,0,141.241,0h229.517c14.627,0,26.483,11.855,26.483,26.483v52.966   C397.241,94.076,385.386,105.931,370.759,105.931"/>
	<path style="fill:#26B99A;" d="M247.172,70.621h-17.655c-4.873,0-8.828-3.946-8.828-8.828V44.138c0-4.882,3.955-8.828,8.828-8.828   h17.655c4.873,0,8.828,3.946,8.828,8.828v17.655C256,66.675,252.045,70.621,247.172,70.621"/>
	<path style="fill:#E64C3C;" d="M176.552,70.621h-17.655c-4.873,0-8.828-3.946-8.828-8.828V44.138c0-4.882,3.955-8.828,8.828-8.828   h17.655c4.873,0,8.828,3.946,8.828,8.828v17.655C185.379,66.675,181.425,70.621,176.552,70.621"/>
	<path style="fill:#1F2F3D;" d="M353.103,61.793H291.31c-4.873,0-8.828-3.946-8.828-8.828s3.955-8.828,8.828-8.828h61.793   c4.873,0,8.828,3.946,8.828,8.828S357.976,61.793,353.103,61.793"/>
	<path style="fill:#35495E;" d="M370.759,512H141.241c-14.627,0-26.483-11.855-26.483-26.483v-52.966   c0-14.627,11.855-26.483,26.483-26.483h229.517c14.627,0,26.483,11.855,26.483,26.483v52.966   C397.241,500.145,385.386,512,370.759,512"/>
	<path style="fill:#26B99A;" d="M247.172,476.69h-17.655c-4.873,0-8.828-3.946-8.828-8.828v-17.655c0-4.882,3.955-8.828,8.828-8.828   h17.655c4.873,0,8.828,3.946,8.828,8.828v17.655C256,472.744,252.045,476.69,247.172,476.69"/>
	<path style="fill:#E64C3C;" d="M176.552,476.69h-17.655c-4.873,0-8.828-3.946-8.828-8.828v-17.655c0-4.882,3.955-8.828,8.828-8.828   h17.655c4.873,0,8.828,3.946,8.828,8.828v17.655C185.379,472.744,181.425,476.69,176.552,476.69"/>
	<path style="fill:#1F2F3D;" d="M353.103,467.862H291.31c-4.873,0-8.828-3.946-8.828-8.828c0-4.882,3.955-8.828,8.828-8.828h61.793   c4.873,0,8.828,3.946,8.828,8.828C361.931,463.916,357.976,467.862,353.103,467.862"/>
	<path style="fill:#8697CB;" d="M343.754,353.103c29.493,0,53.486-24.744,53.486-54.237c0-26.112-18.926-48.666-43.741-53.345   c-0.556-42.302-34.975-77.798-77.409-77.798c-27.03,0-52.409,14.61-66.419,35.672c-6.162-4.096-13.559-6.497-21.513-6.497   c-21.486,0-38.903,17.408-38.903,38.903c0,0.742,0.079,1.465,0.115,2.198c-0.044,0.892-0.115,1.783-0.115,2.666   c-19.385,9.287-34.03,31.391-34.03,54.228c0,31.682,26.668,58.209,58.35,58.209H343.754z"/>
	<g>
		<path style="fill:#556080;" d="M319.94,256c-4.29,0-8.051-3.125-8.713-7.503c-0.733-4.82,2.578-9.313,7.398-10.046    c13.18-2.013,26.403-0.079,26.951-0.009c4.82,0.715,8.148,5.199,7.433,10.019c-0.706,4.811-5.191,8.095-10.01,7.442    c-0.106-0.009-11.229-1.58-21.725-0.009C320.832,255.965,320.381,256,319.94,256"/>
		<path style="fill:#556080;" d="M229.517,250.758c-4.882,0-8.828-3.946-8.828-8.828c0-16.578-13.489-30.067-30.076-30.067    c-16.578,0-30.067,13.489-30.067,30.067c0,4.882-3.955,8.828-8.828,8.828c-4.882,0-8.828-3.946-8.828-8.828    c0-26.315,21.398-47.722,47.722-47.722c26.315,0,47.731,21.407,47.731,47.722C238.345,246.812,234.399,250.758,229.517,250.758"/>
	</g>
</g>
<g>
</g>
<g>
</g>
<g>
</g>
<g>
</g>
<g>
</g>
<g>
</g>
<g>
</g>
<g>
</g>
<g>
</g>
<g>
</g>
<g>
</g>
<g>
</g>
<g>
</g>
<g>
</g>
<g>
</g>
</svg>
