<?xml version="1.0" encoding="iso-8859-1"?>
<!-- Generator: Adobe Illustrator 19.0.0, SVG Export Plug-In . SVG Version: 6.00 Build 0)  -->
<svg xmlns="http://www.w3.org/2000/svg" xmlns:xlink="http://www.w3.org/1999/xlink" version="1.1" id="Layer_1" x="0px" y="0px" viewBox="0 0 511.998 511.998" style="enable-background:new 0 0 511.998 511.998;" xml:space="preserve">
<g>
	<g>
		<path style="fill:#BDC3C7;" d="M364.473,412.203c-4.79,0-8.678-3.879-8.678-8.678V186.575c0-4.799,3.888-8.678,8.678-8.678    s8.678,3.879,8.678,8.678v216.949C373.151,408.323,369.263,412.203,364.473,412.203"/>
		<path style="fill:#BDC3C7;" d="M112.812,342.779c-4.79,0-8.678-3.879-8.678-8.678V143.186c0-14.353,11.681-26.034,26.034-26.034    h95.458c4.79,0,8.678,3.879,8.678,8.678c0,4.799-3.888,8.678-8.678,8.678h-95.458c-4.782,0-8.678,3.888-8.678,8.678v190.915    C121.49,338.9,117.602,342.779,112.812,342.779"/>
	</g>
	<path style="fill:#35495E;" d="M485.964,507.66H286.371c-14.379,0-26.034-11.655-26.034-26.034v-52.068   c0-14.379,11.655-26.034,26.034-26.034h199.593c14.379,0,26.034,11.654,26.034,26.034v52.068   C511.998,496.006,500.344,507.66,485.964,507.66"/>
	<path style="fill:#26B99A;" d="M390.507,472.948h-17.356c-4.79,0-8.678-3.879-8.678-8.678v-17.356c0-4.799,3.888-8.678,8.678-8.678   h17.356c4.79,0,8.678,3.879,8.678,8.678v17.356C399.185,469.069,395.297,472.948,390.507,472.948"/>
	<path style="fill:#E64C3C;" d="M321.083,472.948h-17.356c-4.79,0-8.678-3.879-8.678-8.678v-17.356c0-4.799,3.888-8.678,8.678-8.678   h17.356c4.79,0,8.678,3.879,8.678,8.678v17.356C329.761,469.069,325.873,472.948,321.083,472.948"/>
	<path style="fill:#1F2F3D;" d="M477.286,464.27h-43.39c-4.79,0-8.678-3.879-8.678-8.678s3.888-8.678,8.678-8.678h43.39   c4.79,0,8.678,3.879,8.678,8.678S482.077,464.27,477.286,464.27"/>
	<path style="fill:#BDC3C7;" d="M164.074,472.948c-1.805,5.033-6.578,8.678-12.21,8.678H82.441c-5.632,0-10.414-3.645-12.21-8.678   H5.016c-2.768,0-5.016,2.248-5.016,5.016v24.68c0,2.768,2.248,5.016,5.016,5.016h215.595c2.768,0,5.016-2.248,5.016-5.016v-24.68   c0-2.768-2.248-5.016-5.016-5.016H164.074z"/>
	<path style="fill:#ECF0F1;" d="M70.227,472.948c1.805,5.033,6.578,8.678,12.21,8.678h69.424c5.632,0,10.414-3.645,12.21-8.678   h44.197V360.135c0-14.379-11.655-26.034-26.034-26.034H43.386c-14.379,0-26.034,11.654-26.034,26.034v112.814H70.227z"/>
	<polygon style="fill:#35495E;" points="52.066,438.236 173.558,438.236 173.558,368.813 52.066,368.813  "/>
	<path style="fill:#8697CB;" d="M450.74,186.575c28.993,0,52.58-24.324,52.58-53.317c0-25.669-18.606-47.842-42.999-52.441   c-0.547-41.585-34.382-76.479-76.097-76.479c-26.572,0-51.521,14.362-65.293,35.068c-6.057-4.027-13.329-6.387-21.148-6.387   c-21.122,0-38.244,17.113-38.244,38.244c0,0.729,0.078,1.441,0.113,2.161c-0.043,0.876-0.113,1.753-0.113,2.621   c-19.057,9.129-33.454,30.859-33.454,53.309c0,31.145,26.216,57.223,57.361,57.223H450.74z"/>
	<g>
		<path style="fill:#556080;" d="M427.329,91.118c-4.217,0-7.914-3.072-8.565-7.376c-0.72-4.738,2.534-9.155,7.272-9.876    c12.956-1.979,25.956-0.078,26.494-0.009c4.738,0.703,8.01,5.111,7.307,9.849c-0.694,4.729-5.103,7.958-9.841,7.316    c-0.104-0.009-11.038-1.553-21.356-0.009C428.206,91.083,427.763,91.118,427.329,91.118"/>
		<path style="fill:#556080;" d="M338.439,85.965c-4.799,0-8.678-3.879-8.678-8.678c0-16.297-13.26-29.557-29.566-29.557    c-16.297,0-29.557,13.26-29.557,29.557c0,4.799-3.888,8.678-8.678,8.678c-4.799,0-8.678-3.879-8.678-8.678    c0-25.869,21.035-46.913,46.913-46.913c25.869,0,46.922,21.044,46.922,46.913C347.117,82.086,343.238,85.965,338.439,85.965"/>
	</g>
</g>
<g>
</g>
<g>
</g>
<g>
</g>
<g>
</g>
<g>
</g>
<g>
</g>
<g>
</g>
<g>
</g>
<g>
</g>
<g>
</g>
<g>
</g>
<g>
</g>
<g>
</g>
<g>
</g>
<g>
</g>
</svg>
