<?xml version="1.0" encoding="iso-8859-1"?>
<!-- Generator: Adobe Illustrator 19.0.0, SVG Export Plug-In . SVG Version: 6.00 Build 0)  -->
<svg xmlns="http://www.w3.org/2000/svg" xmlns:xlink="http://www.w3.org/1999/xlink" version="1.1" id="Layer_1" x="0px" y="0px" viewBox="0 0 512 512" style="enable-background:new 0 0 512 512;" xml:space="preserve">
<g>
	<path style="fill:#BDC3C7;" d="M397.241,414.897c-4.873,0-8.828-3.946-8.828-8.828v-220.69c0-4.882,3.955-8.828,8.828-8.828   c4.873,0,8.828,3.946,8.828,8.828v220.69C406.069,410.951,402.114,414.897,397.241,414.897"/>
	<path style="fill:#35495E;" d="M485.517,512H273.655c-14.627,0-26.483-11.855-26.483-26.483v-52.966   c0-14.627,11.855-26.483,26.483-26.483h211.862c14.627,0,26.483,11.855,26.483,26.483v52.966C512,500.145,500.145,512,485.517,512"/>
	<path style="fill:#26B99A;" d="M379.586,476.69h-17.655c-4.873,0-8.828-3.946-8.828-8.828v-17.655c0-4.882,3.955-8.828,8.828-8.828   h17.655c4.873,0,8.828,3.946,8.828,8.828v17.655C388.414,472.744,384.459,476.69,379.586,476.69"/>
	<path style="fill:#E64C3C;" d="M308.966,476.69H291.31c-4.873,0-8.828-3.946-8.828-8.828v-17.655c0-4.882,3.955-8.828,8.828-8.828   h17.655c4.873,0,8.828,3.946,8.828,8.828v17.655C317.793,472.744,313.838,476.69,308.966,476.69"/>
	<path style="fill:#1F2F3D;" d="M467.862,467.862h-44.138c-4.873,0-8.828-3.946-8.828-8.828c0-4.882,3.955-8.828,8.828-8.828h44.138   c4.873,0,8.828,3.946,8.828,8.828C476.69,463.916,472.735,467.862,467.862,467.862"/>
	<path style="fill:#BDC3C7;" d="M105.931,291.31c-4.873,0-8.828-3.946-8.828-8.828V141.241c0-14.601,11.882-26.483,26.483-26.483   h105.931c4.873,0,8.828,3.946,8.828,8.828s-3.955,8.828-8.828,8.828H123.586c-4.864,0-8.828,3.955-8.828,8.828v141.241   C114.759,287.364,110.804,291.31,105.931,291.31"/>
	<path style="fill:#35495E;" d="M211.862,423.724H0V300.138c0-9.746,7.91-17.655,17.655-17.655h176.552   c9.746,0,17.655,7.91,17.655,17.655V423.724z"/>
	<path style="fill:#ECF0F1;" d="M194.207,459.034H17.655C7.91,459.034,0,451.125,0,441.379v-17.655h211.862v17.655   C211.862,451.125,203.953,459.034,194.207,459.034"/>
	<path style="fill:#BDC3C7;" d="M148.746,512h-85.53c-8.157,0-13.021-9.084-8.501-15.872l24.735-37.094h52.966l24.788,37.173   C161.696,502.961,156.858,512,148.746,512"/>
	<path style="fill:#8697CB;" d="M458.048,185.379c29.493,0,53.486-24.744,53.486-54.237c0-26.112-18.926-48.666-43.741-53.345   C467.237,35.496,432.818,0,390.384,0c-27.03,0-52.409,14.61-66.419,35.672c-6.162-4.096-13.559-6.497-21.513-6.497   c-21.486,0-38.894,17.408-38.894,38.903c0,0.742,0.071,1.465,0.106,2.198c-0.044,0.892-0.106,1.783-0.106,2.666   c-19.394,9.287-34.039,31.391-34.039,54.228c0,31.682,26.668,58.209,58.35,58.209H458.048z"/>
	<g>
		<path style="fill:#556080;" d="M434.232,88.276c-4.29,0-8.051-3.125-8.713-7.503c-0.733-4.82,2.578-9.313,7.398-10.046    c13.18-2.013,26.403-0.079,26.951-0.009c4.82,0.715,8.148,5.199,7.433,10.019c-0.706,4.811-5.191,8.095-10.011,7.442    c-0.106-0.009-11.229-1.58-21.725-0.009C435.124,88.241,434.674,88.276,434.232,88.276"/>
		<path style="fill:#556080;" d="M343.811,83.034c-4.882,0-8.828-3.946-8.828-8.828c0-16.578-13.489-30.067-30.076-30.067    c-16.578,0-30.067,13.489-30.067,30.067c0,4.882-3.955,8.828-8.828,8.828c-4.882,0-8.828-3.946-8.828-8.828    c0-26.315,21.398-47.722,47.722-47.722c26.315,0,47.731,21.407,47.731,47.722C352.638,79.088,348.692,83.034,343.811,83.034"/>
	</g>
</g>
<g>
</g>
<g>
</g>
<g>
</g>
<g>
</g>
<g>
</g>
<g>
</g>
<g>
</g>
<g>
</g>
<g>
</g>
<g>
</g>
<g>
</g>
<g>
</g>
<g>
</g>
<g>
</g>
<g>
</g>
</svg>
