<?xml version="1.0" encoding="iso-8859-1"?>
<!-- Generator: Adobe Illustrator 19.0.0, SVG Export Plug-In . SVG Version: 6.00 Build 0)  -->
<svg xmlns="http://www.w3.org/2000/svg" xmlns:xlink="http://www.w3.org/1999/xlink" version="1.1" id="Layer_1" x="0px" y="0px" viewBox="0 0 512.002 512.002" style="enable-background:new 0 0 512.002 512.002;" xml:space="preserve">
<g>
	<g>
		<path style="fill:#BDC3C7;" d="M397.241,326.622c-2.26,0-4.52-0.865-6.241-2.586L258.586,191.621    c-3.452-3.452-3.452-9.031,0-12.482c3.452-3.452,9.031-3.452,12.482,0l132.414,132.414c3.452,3.452,3.452,9.031,0,12.482    C401.761,325.756,399.501,326.622,397.241,326.622"/>
		<path style="fill:#BDC3C7;" d="M167.724,291.311c-2.26,0-4.52-0.865-6.241-2.586c-3.452-3.452-3.452-9.031,0-12.482l97.103-97.103    c3.452-3.452,9.031-3.452,12.482,0c3.452,3.452,3.452,9.031,0,12.482l-97.103,97.103    C172.244,290.446,169.984,291.311,167.724,291.311"/>
	</g>
	<path style="fill:#35495E;" d="M211.862,423.725H0V300.139c0-9.746,7.91-17.655,17.655-17.655h176.552   c9.746,0,17.655,7.91,17.655,17.655V423.725z"/>
	<path style="fill:#ECF0F1;" d="M194.207,459.035H17.655C7.91,459.035,0,451.126,0,441.38v-17.655h211.862v17.655   C211.862,451.126,203.953,459.035,194.207,459.035"/>
	<g>
		<path style="fill:#BDC3C7;" d="M148.75,512.001H63.211c-8.148,0-13.012-9.084-8.492-15.872l24.726-37.094h52.966l24.788,37.173    C161.7,502.961,156.863,512.001,148.75,512.001"/>
		<path style="fill:#BDC3C7;" d="M431.733,476.691c-1.836,5.12-6.691,8.828-12.42,8.828h-70.621c-5.738,0-10.584-3.708-12.42-8.828    h-83.995c-2.816,0-5.102,2.286-5.102,5.102v25.106c0,2.816,2.286,5.102,5.102,5.102h254.623c2.816,0,5.102-2.286,5.102-5.102    v-25.106c0-2.816-2.286-5.102-5.102-5.102H431.733z"/>
	</g>
	<path style="fill:#ECF0F1;" d="M336.267,476.691c1.836,5.12,6.691,8.828,12.42,8.828h70.621c5.738,0,10.584-3.708,12.42-8.828   h62.614V344.277c0-14.627-11.855-26.483-26.483-26.483H291.309c-14.627,0-26.483,11.855-26.483,26.483v132.414H336.267z"/>
	<polygon style="fill:#35495E;" points="300.138,441.38 459.034,441.38 459.034,353.104 300.138,353.104  "/>
	<path style="fill:#8697CB;" d="M352.586,185.38c29.493,0,53.486-24.744,53.486-54.237c0-26.112-18.935-48.666-43.741-53.345   c-0.565-42.302-34.975-77.798-77.409-77.798c-27.039,0-52.418,14.61-66.419,35.672c-6.17-4.096-13.568-6.497-21.522-6.497   c-21.486,0-38.894,17.408-38.894,38.903c0,0.742,0.071,1.465,0.106,2.198c-0.035,0.892-0.106,1.783-0.106,2.666   c-19.394,9.287-34.039,31.391-34.039,54.228c0,31.682,26.677,58.209,58.35,58.209H352.586z"/>
	<g>
		<path style="fill:#556080;" d="M328.768,88.277c-4.29,0-8.051-3.125-8.713-7.503c-0.733-4.82,2.578-9.313,7.398-10.046    c13.18-2.013,26.403-0.079,26.951-0.009c4.82,0.715,8.148,5.199,7.433,10.019c-0.706,4.811-5.191,8.095-10.01,7.442    c-0.106-0.009-11.229-1.58-21.725-0.009C329.659,88.241,329.209,88.277,328.768,88.277"/>
		<path style="fill:#556080;" d="M238.345,83.036c-4.882,0-8.828-3.946-8.828-8.828c0-16.578-13.489-30.067-30.076-30.067    c-16.578,0-30.067,13.489-30.067,30.067c0,4.882-3.955,8.828-8.828,8.828c-4.882,0-8.828-3.946-8.828-8.828    c0-26.315,21.398-47.722,47.722-47.722c26.315,0,47.731,21.407,47.731,47.722C247.172,79.09,243.226,83.036,238.345,83.036"/>
	</g>
</g>
<g>
</g>
<g>
</g>
<g>
</g>
<g>
</g>
<g>
</g>
<g>
</g>
<g>
</g>
<g>
</g>
<g>
</g>
<g>
</g>
<g>
</g>
<g>
</g>
<g>
</g>
<g>
</g>
<g>
</g>
</svg>
