<?xml version="1.0" encoding="iso-8859-1"?>
<!-- Generator: Adobe Illustrator 19.0.0, SVG Export Plug-In . SVG Version: 6.00 Build 0)  -->
<svg xmlns="http://www.w3.org/2000/svg" xmlns:xlink="http://www.w3.org/1999/xlink" version="1.1" id="Layer_1" x="0px" y="0px" viewBox="0 0 512 512" style="enable-background:new 0 0 512 512;" xml:space="preserve">
<g>
	<g>
		<path style="fill:#1F2F3D;" d="M463.447,467.862h-35.31c-4.882,0-8.828-3.946-8.828-8.828c0-4.882,3.946-8.828,8.828-8.828h35.31    c4.873,0,8.828-3.955,8.828-8.828V317.793c0-4.882,3.946-8.828,8.828-8.828c4.882,0,8.828,3.946,8.828,8.828v123.586    C489.93,455.98,478.048,467.862,463.447,467.862"/>
		<path style="fill:#1F2F3D;" d="M92.689,467.862H39.723c-14.601,0-26.483-11.882-26.483-26.483V176.552    c0-4.882,3.946-8.828,8.828-8.828s8.828,3.946,8.828,8.828v264.828c0,4.873,3.955,8.828,8.828,8.828h52.966    c4.882,0,8.828,3.946,8.828,8.828C101.516,463.916,97.57,467.862,92.689,467.862"/>
	</g>
	<path style="fill:#35495E;" d="M216.275,141.241H4.413V17.655C4.413,7.91,12.322,0,22.068,0H198.62   c9.746,0,17.655,7.91,17.655,17.655V141.241z"/>
	<path style="fill:#ECF0F1;" d="M198.62,176.552H22.068c-9.746,0-17.655-7.91-17.655-17.655v-17.655h211.862v17.655   C216.275,168.642,208.365,176.552,198.62,176.552"/>
	<path style="fill:#BDC3C7;" d="M153.163,229.517H67.624c-8.148,0-13.012-9.084-8.492-15.872l24.726-37.094h52.966l24.788,37.173   C166.113,220.478,161.276,229.517,153.163,229.517"/>
	<path style="fill:#35495E;" d="M401.654,512H119.172c-14.627,0-26.483-11.855-26.483-26.483v-52.966   c0-14.627,11.855-26.483,26.483-26.483h282.483c14.627,0,26.483,11.855,26.483,26.483v52.966   C428.137,500.145,416.282,512,401.654,512"/>
	<path style="fill:#26B99A;" d="M225.103,476.69h-17.655c-4.882,0-8.828-3.946-8.828-8.828v-17.655c0-4.882,3.946-8.828,8.828-8.828   h17.655c4.882,0,8.828,3.946,8.828,8.828v17.655C233.93,472.744,229.984,476.69,225.103,476.69"/>
	<path style="fill:#E64C3C;" d="M154.482,476.69h-17.655c-4.882,0-8.828-3.946-8.828-8.828v-17.655c0-4.882,3.946-8.828,8.828-8.828   h17.655c4.882,0,8.828,3.946,8.828,8.828v17.655C163.309,472.744,159.364,476.69,154.482,476.69"/>
	<path style="fill:#1F2F3D;" d="M383.999,467.862H269.241c-4.882,0-8.828-3.946-8.828-8.828c0-4.882,3.946-8.828,8.828-8.828   h114.759c4.882,0,8.828,3.946,8.828,8.828C392.827,463.916,388.881,467.862,383.999,467.862"/>
	<path style="fill:#BDC3C7;" d="M427.318,282.483c-1.836,5.12-6.691,8.828-12.42,8.828h-70.621c-5.738,0-10.584-3.708-12.42-8.828   h-83.995c-2.816,0-5.102,2.286-5.102,5.102v25.106c0,2.816,2.286,5.102,5.102,5.102h254.623c2.816,0,5.102-2.286,5.102-5.102   v-25.106c0-2.816-2.286-5.102-5.102-5.102H427.318z"/>
	<path style="fill:#ECF0F1;" d="M331.853,282.483c1.836,5.12,6.691,8.828,12.42,8.828h70.621c5.738,0,10.584-3.708,12.42-8.828   h62.614V150.069c0-14.627-11.855-26.483-26.483-26.483H286.894c-14.627,0-26.483,11.855-26.483,26.483v132.414H331.853z"/>
	<polygon style="fill:#35495E;" points="295.723,247.172 454.62,247.172 454.62,158.897 295.723,158.897  "/>
</g>
<g>
</g>
<g>
</g>
<g>
</g>
<g>
</g>
<g>
</g>
<g>
</g>
<g>
</g>
<g>
</g>
<g>
</g>
<g>
</g>
<g>
</g>
<g>
</g>
<g>
</g>
<g>
</g>
<g>
</g>
</svg>
