<?xml version="1.0" encoding="iso-8859-1"?>
<!-- Generator: Adobe Illustrator 19.0.0, SVG Export Plug-In . SVG Version: 6.00 Build 0)  -->
<svg xmlns="http://www.w3.org/2000/svg" xmlns:xlink="http://www.w3.org/1999/xlink" version="1.1" id="Layer_1" x="0px" y="0px" viewBox="0 0 512 512" style="enable-background:new 0 0 512 512;" xml:space="preserve">
<g>
	<path style="fill:#35495E;" d="M450.207,512H167.724c-14.627,0-26.483-11.855-26.483-26.483v-52.966   c0-14.627,11.855-26.483,26.483-26.483h282.483c14.627,0,26.483,11.855,26.483,26.483v52.966   C476.69,500.145,464.834,512,450.207,512"/>
	<path style="fill:#26B99A;" d="M273.655,476.69H256c-4.882,0-8.828-3.946-8.828-8.828v-17.655c0-4.882,3.946-8.828,8.828-8.828   h17.655c4.882,0,8.828,3.946,8.828,8.828v17.655C282.483,472.744,278.537,476.69,273.655,476.69"/>
	<path style="fill:#E64C3C;" d="M203.034,476.69h-17.655c-4.882,0-8.828-3.946-8.828-8.828v-17.655c0-4.882,3.946-8.828,8.828-8.828   h17.655c4.882,0,8.828,3.946,8.828,8.828v17.655C211.862,472.744,207.916,476.69,203.034,476.69"/>
	<g>
		<path style="fill:#1F2F3D;" d="M432.552,467.862H317.793c-4.882,0-8.828-3.946-8.828-8.828c0-4.882,3.946-8.828,8.828-8.828    h114.759c4.882,0,8.828,3.946,8.828,8.828C441.379,463.916,437.433,467.862,432.552,467.862"/>
		<path style="fill:#1F2F3D;" d="M141.241,467.862H61.793c-14.601,0-26.483-11.882-26.483-26.483v-79.448    c0-14.601,11.882-26.483,26.483-26.483h361.931c4.873,0,8.828-3.955,8.828-8.828V203.034c0-4.873-3.955-8.828-8.828-8.828h-44.138    c-4.882,0-8.828-3.946-8.828-8.828c0-4.882,3.946-8.828,8.828-8.828h44.138c14.601,0,26.483,11.882,26.483,26.483v123.586    c0,14.601-11.882,26.483-26.483,26.483H61.793c-4.873,0-8.828,3.955-8.828,8.828v79.448c0,4.873,3.955,8.828,8.828,8.828h79.448    c4.882,0,8.828,3.946,8.828,8.828C150.069,463.916,146.123,467.862,141.241,467.862"/>
	</g>
	<path style="fill:#35495E;" d="M379.586,194.207H79.448V17.655C79.448,7.91,87.358,0,97.103,0h264.828   c9.746,0,17.655,7.91,17.655,17.655V194.207z"/>
	<path style="fill:#ECF0F1;" d="M361.931,229.517H97.103c-9.746,0-17.655-7.91-17.655-17.655v-17.655h300.138v17.655   C379.586,221.608,371.677,229.517,361.931,229.517"/>
	<path style="fill:#BDC3C7;" d="M298.819,282.483H160.314c-8.148,0-13.012-9.084-8.492-15.872l24.726-37.094h105.931l24.788,37.173   C311.769,273.443,306.932,282.483,298.819,282.483"/>
	<g>
		<path style="fill:#E64C3C;" d="M185.388,141.241c-2.684,0-5.332-1.218-7.071-3.531l-26.483-35.31    c-2.348-3.143-2.348-7.45,0-10.593l26.483-35.31c2.922-3.902,8.457-4.687,12.359-1.766c3.902,2.922,4.687,8.457,1.766,12.359    l-22.51,30.014l22.51,30.014c2.922,3.902,2.136,9.437-1.766,12.359C189.087,140.668,187.224,141.241,185.388,141.241"/>
		<path style="fill:#E64C3C;" d="M273.646,141.241c-1.836,0-3.699-0.574-5.288-1.766c-3.902-2.922-4.687-8.457-1.766-12.359    l22.51-30.014l-22.51-30.014c-2.922-3.902-2.136-9.437,1.766-12.359c3.919-2.922,9.446-2.136,12.359,1.766l26.483,35.31    c2.348,3.143,2.348,7.45,0,10.593l-26.483,35.31C278.978,140.023,276.33,141.241,273.646,141.241"/>
		<path style="fill:#E64C3C;" d="M211.862,150.069c-1.095,0-2.207-0.194-3.275-0.627c-4.537-1.81-6.735-6.947-4.926-11.476    l35.31-88.276c1.818-4.537,6.938-6.744,11.476-4.926c4.537,1.81,6.735,6.947,4.926,11.476l-35.31,88.276    C218.668,147.977,215.358,150.069,211.862,150.069"/>
	</g>
</g>
<g>
</g>
<g>
</g>
<g>
</g>
<g>
</g>
<g>
</g>
<g>
</g>
<g>
</g>
<g>
</g>
<g>
</g>
<g>
</g>
<g>
</g>
<g>
</g>
<g>
</g>
<g>
</g>
<g>
</g>
</svg>
