<?xml version="1.0" encoding="iso-8859-1"?>
<!-- Generator: Adobe Illustrator 19.0.0, SVG Export Plug-In . SVG Version: 6.00 Build 0)  -->
<svg xmlns="http://www.w3.org/2000/svg" xmlns:xlink="http://www.w3.org/1999/xlink" version="1.1" id="Layer_1" x="0px" y="0px" viewBox="0 0 512 512" style="enable-background:new 0 0 512 512;" xml:space="preserve">
<g>
	<g>
		<path style="fill:#35495E;" d="M264.828,335.448c-4.882,0-8.828-3.946-8.828-8.828v-44.138c0-4.882,3.946-8.828,8.828-8.828    s8.828,3.946,8.828,8.828v44.138C273.655,331.502,269.709,335.448,264.828,335.448"/>
		<path style="fill:#35495E;" d="M406.069,361.931c-4.882,0-8.828-3.946-8.828-8.828v-17.655H114.759v17.655    c0,4.882-3.946,8.828-8.828,8.828c-4.882,0-8.828-3.946-8.828-8.828v-26.483c0-4.882,3.946-8.828,8.828-8.828h300.138    c4.882,0,8.828,3.946,8.828,8.828v26.483C414.897,357.985,410.951,361.931,406.069,361.931"/>
	</g>
	<path style="fill:#8697CB;" d="M512,379.586c0,14.627-47.431,26.483-105.931,26.483s-105.931-11.855-105.931-26.483   s47.431-26.483,105.931-26.483S512,364.959,512,379.586"/>
	<path style="fill:#556080;" d="M300.138,432.552c0,14.627,47.431,26.483,105.931,26.483S512,447.179,512,432.552v-52.966   c0,14.627-47.431,26.483-105.931,26.483s-105.931-11.855-105.931-26.483V432.552z"/>
	<g>
		<path style="fill:#8697CB;" d="M300.138,485.517c0,14.627,47.431,26.483,105.931,26.483S512,500.145,512,485.517v-52.966    c0,14.627-47.431,26.483-105.931,26.483s-105.931-11.855-105.931-26.483V485.517z"/>
		<path style="fill:#8697CB;" d="M211.862,379.586c0,14.627-47.431,26.483-105.931,26.483S0,394.214,0,379.586    s47.431-26.483,105.931-26.483S211.862,364.959,211.862,379.586"/>
	</g>
	<path style="fill:#556080;" d="M0,432.552c0,14.627,47.431,26.483,105.931,26.483s105.931-11.855,105.931-26.483v-52.966   c0,14.627-47.431,26.483-105.931,26.483S0,394.214,0,379.586V432.552z"/>
	<path style="fill:#8697CB;" d="M0,485.517C0,500.145,47.431,512,105.931,512s105.931-11.855,105.931-26.483v-52.966   c0,14.627-47.431,26.483-105.931,26.483S0,447.179,0,432.552V485.517z"/>
	<path style="fill:#BDC3C7;" d="M308.146,247.172c-1.836,5.12-6.691,8.828-12.42,8.828h-70.621c-5.738,0-10.584-3.708-12.42-8.828   H58.07c-2.816,0-5.102,2.286-5.102,5.102v25.106c0,2.816,2.286,5.102,5.102,5.102h395.864c2.816,0,5.102-2.286,5.102-5.102v-25.106   c0-2.816-2.286-5.102-5.102-5.102H308.146z"/>
	<path style="fill:#ECF0F1;" d="M212.681,247.172c1.836,5.12,6.691,8.828,12.42,8.828h70.621c5.738,0,10.584-3.708,12.42-8.828   h133.235V26.483C441.378,11.855,429.522,0,414.895,0H97.102C82.474,0,70.619,11.855,70.619,26.483v220.69H212.681z"/>
	<polygon style="fill:#35495E;" points="105.931,211.862 406.069,211.862 406.069,35.31 105.931,35.31  "/>
	<path style="fill:#E64C3C;" d="M238.345,167.724c0,4.882-3.946,8.828-8.828,8.828s-8.828-3.946-8.828-8.828   s3.946-8.828,8.828-8.828S238.345,162.842,238.345,167.724"/>
	<g>
		<path style="fill:#F0C419;" d="M194.216,176.552c-2.595,0-5.155-1.13-6.894-3.31l-35.31-44.076    c-2.586-3.222-2.586-7.804-0.009-11.026l35.31-44.2c3.046-3.805,8.58-4.44,12.403-1.386c3.814,3.037,4.431,8.589,1.386,12.403    l-30.905,38.682l30.897,38.568c3.054,3.805,2.445,9.366-1.368,12.403C198.091,175.925,196.149,176.552,194.216,176.552"/>
		<path style="fill:#F0C419;" d="M317.784,176.552c-1.933,0-3.875-0.627-5.508-1.942c-3.814-3.037-4.423-8.598-1.368-12.403    l30.897-38.568l-30.905-38.682c-3.046-3.814-2.428-9.366,1.386-12.403c3.822-3.054,9.366-2.419,12.403,1.386l35.31,44.2    c2.578,3.222,2.578,7.804-0.009,11.026l-35.31,44.076C322.94,175.422,320.371,176.552,317.784,176.552"/>
	</g>
	<g>
		<path style="fill:#E64C3C;" d="M229.517,141.241c-4.882,0-8.828-3.946-8.828-8.828V79.448c0-4.882,3.946-8.828,8.828-8.828    s8.828,3.946,8.828,8.828v52.966C238.345,137.295,234.399,141.241,229.517,141.241"/>
		<path style="fill:#E64C3C;" d="M282.483,176.552h-17.655c-4.882,0-8.828-3.946-8.828-8.828s3.946-8.828,8.828-8.828h17.655    c4.882,0,8.828,3.946,8.828,8.828S287.364,176.552,282.483,176.552"/>
	</g>
</g>
<g>
</g>
<g>
</g>
<g>
</g>
<g>
</g>
<g>
</g>
<g>
</g>
<g>
</g>
<g>
</g>
<g>
</g>
<g>
</g>
<g>
</g>
<g>
</g>
<g>
</g>
<g>
</g>
<g>
</g>
</svg>
