<?xml version="1.0" encoding="iso-8859-1"?>
<!-- Generator: Adobe Illustrator 19.0.0, SVG Export Plug-In . SVG Version: 6.00 Build 0)  -->
<svg xmlns="http://www.w3.org/2000/svg" xmlns:xlink="http://www.w3.org/1999/xlink" version="1.1" id="Layer_1" x="0px" y="0px" viewBox="0 0 512 512" style="enable-background:new 0 0 512 512;" xml:space="preserve">
<g>
	<g>
		<path style="fill:#35495E;" d="M264.828,335.448c-4.873,0-8.828-3.946-8.828-8.828v-44.138c0-4.882,3.955-8.828,8.828-8.828    s8.828,3.946,8.828,8.828v44.138C273.655,331.502,269.7,335.448,264.828,335.448"/>
		<path style="fill:#35495E;" d="M406.069,361.931c-4.873,0-8.828-3.946-8.828-8.828v-17.655H114.759v17.655    c0,4.882-3.955,8.828-8.828,8.828c-4.873,0-8.828-3.946-8.828-8.828v-26.483c0-4.882,3.955-8.828,8.828-8.828h300.138    c4.882,0,8.828,3.946,8.828,8.828v26.483C414.897,357.985,410.951,361.931,406.069,361.931"/>
		<path style="fill:#35495E;" d="M414.897,194.207H114.759V17.655C114.759,7.91,122.668,0,132.414,0h264.828    c9.746,0,17.655,7.91,17.655,17.655V194.207z"/>
	</g>
	<path style="fill:#ECF0F1;" d="M397.241,229.517H132.414c-9.746,0-17.655-7.91-17.655-17.655v-17.655h300.138v17.655   C414.897,221.608,406.987,229.517,397.241,229.517"/>
	<path style="fill:#BDC3C7;" d="M334.125,282.483H195.629c-8.157,0-13.021-9.084-8.501-15.872l24.735-37.094h105.931l24.788,37.173   C347.075,273.443,342.238,282.483,334.125,282.483"/>
	<g>
		<path style="fill:#E64C3C;" d="M220.698,141.241c-2.684,0-5.332-1.218-7.071-3.531l-26.483-35.31    c-2.357-3.143-2.357-7.45,0-10.593l26.483-35.31c2.922-3.902,8.457-4.687,12.359-1.766c3.902,2.922,4.687,8.457,1.766,12.359    l-22.51,30.014l22.51,30.014c2.922,3.902,2.136,9.437-1.766,12.359C224.397,140.668,222.535,141.241,220.698,141.241"/>
		<path style="fill:#E64C3C;" d="M308.957,141.241c-1.836,0-3.699-0.574-5.288-1.766c-3.902-2.922-4.687-8.457-1.766-12.359    l22.51-30.014l-22.51-30.014c-2.922-3.902-2.136-9.437,1.766-12.359c3.919-2.922,9.446-2.136,12.359,1.766l26.483,35.31    c2.357,3.143,2.357,7.45,0,10.593l-26.483,35.31C314.289,140.023,311.64,141.241,308.957,141.241"/>
		<path style="fill:#E64C3C;" d="M247.168,150.069c-1.095,0-2.198-0.194-3.275-0.627c-4.529-1.81-6.727-6.947-4.917-11.476    l35.31-88.276c1.81-4.537,6.93-6.744,11.476-4.926c4.529,1.81,6.727,6.947,4.917,11.476l-35.31,88.276    C253.983,147.977,250.673,150.069,247.168,150.069"/>
	</g>
	<path style="fill:#8697CB;" d="M512,379.586c0,14.627-47.431,26.483-105.931,26.483s-105.931-11.855-105.931-26.483   s47.431-26.483,105.931-26.483S512,364.959,512,379.586"/>
	<path style="fill:#556080;" d="M300.138,432.552c0,14.627,47.431,26.483,105.931,26.483S512,447.179,512,432.552v-52.966   c0,14.627-47.431,26.483-105.931,26.483s-105.931-11.855-105.931-26.483V432.552z"/>
	<g>
		<path style="fill:#8697CB;" d="M300.138,485.517c0,14.627,47.431,26.483,105.931,26.483S512,500.145,512,485.517v-52.966    c0,14.627-47.431,26.483-105.931,26.483s-105.931-11.855-105.931-26.483V485.517z"/>
		<path style="fill:#8697CB;" d="M211.862,379.586c0,14.627-47.431,26.483-105.931,26.483S0,394.214,0,379.586    s47.431-26.483,105.931-26.483S211.862,364.959,211.862,379.586"/>
	</g>
	<path style="fill:#556080;" d="M0,432.552c0,14.627,47.431,26.483,105.931,26.483s105.931-11.855,105.931-26.483v-52.966   c0,14.627-47.431,26.483-105.931,26.483S0,394.214,0,379.586V432.552z"/>
	<path style="fill:#8697CB;" d="M0,485.517C0,500.145,47.431,512,105.931,512s105.931-11.855,105.931-26.483v-52.966   c0,14.627-47.431,26.483-105.931,26.483S0,447.179,0,432.552V485.517z"/>
</g>
<g>
</g>
<g>
</g>
<g>
</g>
<g>
</g>
<g>
</g>
<g>
</g>
<g>
</g>
<g>
</g>
<g>
</g>
<g>
</g>
<g>
</g>
<g>
</g>
<g>
</g>
<g>
</g>
<g>
</g>
</svg>
