<?xml version="1.0" encoding="iso-8859-1"?>
<!-- Generator: Adobe Illustrator 19.0.0, SVG Export Plug-In . SVG Version: 6.00 Build 0)  -->
<svg xmlns="http://www.w3.org/2000/svg" xmlns:xlink="http://www.w3.org/1999/xlink" version="1.1" id="Layer_1" x="0px" y="0px" viewBox="0 0 512 512" style="enable-background:new 0 0 512 512;" xml:space="preserve">
<g>
	<path style="fill:#35495E;" d="M512,308.966H211.862V132.414c0-9.746,7.91-17.655,17.655-17.655h264.828   c9.746,0,17.655,7.91,17.655,17.655V308.966z"/>
	<path style="fill:#ECF0F1;" d="M494.345,344.276H229.517c-9.746,0-17.655-7.91-17.655-17.655v-17.655H512v17.655   C512,336.366,504.09,344.276,494.345,344.276"/>
	<path style="fill:#BDC3C7;" d="M431.228,397.241H292.732c-8.157,0-13.021-9.084-8.501-15.872l24.735-37.094h105.931l24.788,37.173   C444.179,388.202,439.341,397.241,431.228,397.241"/>
	<path style="fill:#35495E;" d="M141.241,397.241H17.655C7.91,397.241,0,389.332,0,379.586V132.414   c0-9.746,7.91-17.655,17.655-17.655h123.586c9.746,0,17.655,7.91,17.655,17.655v247.172   C158.897,389.332,150.987,397.241,141.241,397.241"/>
	<polygon style="fill:#1F2F3D;" points="35.31,185.379 123.586,185.379 123.586,150.069 35.31,150.069  "/>
	<path style="fill:#E64C3C;" d="M52.966,353.103c0,4.882-3.955,8.828-8.828,8.828s-8.828-3.946-8.828-8.828s3.955-8.828,8.828-8.828   S52.966,348.222,52.966,353.103"/>
	<path style="fill:#F0C419;" d="M123.586,353.103c0,4.882-3.955,8.828-8.828,8.828s-8.828-3.946-8.828-8.828   s3.955-8.828,8.828-8.828S123.586,348.222,123.586,353.103"/>
	<polygon style="fill:#1F2F3D;" points="0,291.31 158.897,291.31 158.897,238.345 0,238.345  "/>
	<g>
		<path style="fill:#E64C3C;" d="M317.802,256c-2.684,0-5.332-1.218-7.071-3.531l-26.483-35.31c-2.357-3.143-2.357-7.451,0-10.593    l26.483-35.31c2.922-3.902,8.457-4.687,12.359-1.766c3.902,2.922,4.687,8.457,1.766,12.359l-22.51,30.014l22.51,30.014    c2.922,3.902,2.136,9.437-1.766,12.359C321.501,255.426,319.638,256,317.802,256"/>
		<path style="fill:#E64C3C;" d="M406.06,256c-1.836,0-3.699-0.574-5.288-1.766c-3.902-2.922-4.687-8.457-1.766-12.359l22.51-30.014    l-22.51-30.014c-2.922-3.902-2.136-9.437,1.766-12.359c3.919-2.922,9.445-2.136,12.359,1.766l26.483,35.31    c2.357,3.143,2.357,7.451,0,10.593l-26.483,35.31C411.392,254.782,408.744,256,406.06,256"/>
		<path style="fill:#E64C3C;" d="M344.271,264.828c-1.095,0-2.198-0.194-3.275-0.627c-4.529-1.81-6.727-6.947-4.917-11.476    l35.31-88.276c1.81-4.537,6.93-6.744,11.476-4.926c4.529,1.81,6.727,6.947,4.917,11.476l-35.31,88.276    C351.086,262.735,347.776,264.828,344.271,264.828"/>
	</g>
</g>
<g>
</g>
<g>
</g>
<g>
</g>
<g>
</g>
<g>
</g>
<g>
</g>
<g>
</g>
<g>
</g>
<g>
</g>
<g>
</g>
<g>
</g>
<g>
</g>
<g>
</g>
<g>
</g>
<g>
</g>
</svg>
