<?xml version="1.0" encoding="iso-8859-1"?>
<!-- Generator: Adobe Illustrator 19.0.0, SVG Export Plug-In . SVG Version: 6.00 Build 0)  -->
<svg xmlns="http://www.w3.org/2000/svg" xmlns:xlink="http://www.w3.org/1999/xlink" version="1.1" id="Layer_1" x="0px" y="0px" viewBox="0 0 512 512" style="enable-background:new 0 0 512 512;" xml:space="preserve">
<g>
	<g>
		<path style="fill:#35495E;" d="M141.241,397.241H17.655C7.91,397.241,0,389.332,0,379.586V132.414    c0-9.746,7.91-17.655,17.655-17.655h123.586c9.746,0,17.655,7.91,17.655,17.655v247.172    C158.897,389.332,150.987,397.241,141.241,397.241"/>
		<path style="fill:#35495E;" d="M512,308.966H211.862V132.414c0-9.746,7.91-17.655,17.655-17.655h264.828    c9.746,0,17.655,7.91,17.655,17.655V308.966z"/>
	</g>
	<path style="fill:#ECF0F1;" d="M494.345,344.276H229.517c-9.746,0-17.655-7.91-17.655-17.655v-17.655H512v17.655   C512,336.366,504.09,344.276,494.345,344.276"/>
	<path style="fill:#BDC3C7;" d="M431.228,397.241H292.732c-8.157,0-13.021-9.084-8.501-15.872l24.735-37.094h105.931l24.788,37.173   C444.179,388.202,439.341,397.241,431.228,397.241"/>
	<polygon style="fill:#1F2F3D;" points="35.31,185.379 123.586,185.379 123.586,150.069 35.31,150.069  "/>
	<path style="fill:#E64C3C;" d="M52.966,353.103c0,4.882-3.955,8.828-8.828,8.828s-8.828-3.946-8.828-8.828s3.955-8.828,8.828-8.828   S52.966,348.222,52.966,353.103"/>
	<path style="fill:#F0C419;" d="M123.586,353.103c0,4.882-3.955,8.828-8.828,8.828s-8.828-3.946-8.828-8.828   s3.955-8.828,8.828-8.828S123.586,348.222,123.586,353.103"/>
	<polygon style="fill:#1F2F3D;" points="0,291.31 158.897,291.31 158.897,238.345 0,238.345  "/>
	<path style="fill:#F0C419;" d="M353.103,256c0,4.882-3.955,8.828-8.828,8.828c-4.873,0-8.828-3.946-8.828-8.828   s3.955-8.828,8.828-8.828C349.149,247.172,353.103,251.118,353.103,256"/>
	<path style="fill:#26B99A;" d="M308.97,264.828c-2.586,0-5.146-1.13-6.894-3.31l-35.31-44.076   c-2.578-3.222-2.586-7.804-0.009-11.026l35.31-44.2c3.046-3.822,8.607-4.44,12.412-1.386c3.805,3.037,4.423,8.589,1.386,12.403   l-30.905,38.682l30.897,38.568c3.046,3.805,2.436,9.366-1.368,12.403C312.854,264.201,310.903,264.828,308.97,264.828"/>
	<path style="fill:#F0C419;" d="M344.276,229.517c-4.873,0-8.828-3.946-8.828-8.828v-52.966c0-4.882,3.955-8.828,8.828-8.828   c4.873,0,8.828,3.946,8.828,8.828v52.966C353.103,225.571,349.149,229.517,344.276,229.517"/>
	<g>
		<path style="fill:#8697CB;" d="M397.241,264.828h-17.655c-4.873,0-8.828-3.946-8.828-8.828s3.955-8.828,8.828-8.828h17.655    c4.873,0,8.828,3.946,8.828,8.828S402.114,264.828,397.241,264.828"/>
		<path style="fill:#8697CB;" d="M450.207,264.828h-17.655c-4.873,0-8.828-3.946-8.828-8.828s3.955-8.828,8.828-8.828h17.655    c4.873,0,8.828,3.946,8.828,8.828S455.08,264.828,450.207,264.828"/>
	</g>
</g>
<g>
</g>
<g>
</g>
<g>
</g>
<g>
</g>
<g>
</g>
<g>
</g>
<g>
</g>
<g>
</g>
<g>
</g>
<g>
</g>
<g>
</g>
<g>
</g>
<g>
</g>
<g>
</g>
<g>
</g>
</svg>
