<?xml version="1.0" encoding="iso-8859-1"?>
<!-- Generator: Adobe Illustrator 19.0.0, SVG Export Plug-In . SVG Version: 6.00 Build 0)  -->
<svg xmlns="http://www.w3.org/2000/svg" xmlns:xlink="http://www.w3.org/1999/xlink" version="1.1" id="Layer_1" x="0px" y="0px" viewBox="0 0 512 512" style="enable-background:new 0 0 512 512;" xml:space="preserve">
<g>
	<path style="fill:#35495E;" d="M459.034,35.31c0,19.5-112.508,35.31-229.517,35.31S0,54.81,0,35.31S112.508,0,229.517,0   S459.034,15.81,459.034,35.31"/>
	<g>
		<path style="fill:#1F2F3D;" d="M229.517,70.621C112.508,70.621,0,54.81,0,35.31v141.241c0,19.5,112.508,35.31,229.517,35.31    s229.517-15.81,229.517-35.31V35.31C459.034,54.81,346.527,70.621,229.517,70.621"/>
		<path style="fill:#1F2F3D;" d="M317.793,350.112c-27.869,1.924-57.918,2.993-88.276,2.993C112.508,353.104,0,337.294,0,317.794    v141.241c0,19.5,112.508,35.31,229.517,35.31c30.358,0,60.407-1.068,88.276-2.993V350.112z"/>
	</g>
	<path style="fill:#35495E;" d="M317.793,317.793h141.241V176.552c0,19.5-112.508,35.31-229.517,35.31S0,196.052,0,176.552v141.241   c0,19.5,112.508,35.31,229.517,35.31c30.358,0,60.407-1.068,88.276-2.993V317.793z"/>
	<polygon style="fill:#26B99A;" points="317.793,512 512,512 512,317.793 317.793,317.793  "/>
	<g>
		<path style="fill:#FFFFFF;" d="M414.897,485.517c-4.873,0-8.828-3.946-8.828-8.828V353.103c0-4.882,3.955-8.828,8.828-8.828    s8.828,3.946,8.828,8.828V476.69C423.724,481.571,419.769,485.517,414.897,485.517"/>
		<path style="fill:#FFFFFF;" d="M414.897,485.517c-2.26,0-4.52-0.865-6.241-2.586l-35.31-35.31c-3.452-3.452-3.452-9.031,0-12.482    c3.452-3.452,9.031-3.452,12.482,0l35.31,35.31c3.452,3.452,3.452,9.031,0,12.482    C419.416,484.652,417.156,485.517,414.897,485.517"/>
		<path style="fill:#FFFFFF;" d="M414.897,485.517c-2.26,0-4.52-0.865-6.241-2.586c-3.452-3.452-3.452-9.031,0-12.482l35.31-35.31    c3.452-3.452,9.031-3.452,12.482,0c3.452,3.452,3.452,9.031,0,12.482l-35.31,35.31    C419.416,484.652,417.156,485.517,414.897,485.517"/>
	</g>
</g>
<g>
</g>
<g>
</g>
<g>
</g>
<g>
</g>
<g>
</g>
<g>
</g>
<g>
</g>
<g>
</g>
<g>
</g>
<g>
</g>
<g>
</g>
<g>
</g>
<g>
</g>
<g>
</g>
<g>
</g>
</svg>
