<?xml version="1.0" encoding="iso-8859-1"?>
<!-- Generator: Adobe Illustrator 19.0.0, SVG Export Plug-In . SVG Version: 6.00 Build 0)  -->
<svg xmlns="http://www.w3.org/2000/svg" xmlns:xlink="http://www.w3.org/1999/xlink" version="1.1" id="Layer_1" x="0px" y="0px" viewBox="0 0 512 512" style="enable-background:new 0 0 512 512;" xml:space="preserve">
<g>
	<path style="fill:#35495E;" d="M317.793,35.31c0,19.5-41.887,35.31-158.897,35.31S0,54.81,0,35.31S41.887,0,158.897,0   S317.793,15.81,317.793,35.31"/>
	<path style="fill:#1F2F3D;" d="M158.897,70.621C41.887,70.621,0,54.81,0,35.31v88.276c0,19.5,41.887,35.31,158.897,35.31   s158.897-15.81,158.897-35.31V35.31C317.793,54.81,275.906,70.621,158.897,70.621"/>
	<path style="fill:#8697CB;" d="M512,211.862c0,19.5-41.887,35.31-158.897,35.31s-158.897-15.81-158.897-35.31   s41.887-35.31,158.897-35.31S512,192.362,512,211.862"/>
	<path style="fill:#556080;" d="M353.103,247.172c-117.01,0-158.897-15.81-158.897-35.31v88.276c0,19.5,41.887,35.31,158.897,35.31   S512,319.638,512,300.138v-88.276C512,231.362,470.113,247.172,353.103,247.172"/>
	<path style="fill:#8697CB;" d="M353.103,335.448c-117.01,0-158.897-15.81-158.897-35.31v88.276c0,19.5,41.887,35.31,158.897,35.31   S512,407.914,512,388.414v-88.276C512,319.638,470.113,335.448,353.103,335.448"/>
	<path style="fill:#556080;" d="M353.103,423.724c-117.01,0-158.897-15.81-158.897-35.31v88.276c0,19.5,41.887,35.31,158.897,35.31   S512,496.19,512,476.69v-88.276C512,407.914,470.113,423.724,353.103,423.724"/>
	<path style="fill:#1F2F3D;" d="M158.897,247.172C41.887,247.172,0,231.362,0,211.862v88.276c0,19.5,41.887,35.31,158.897,35.31   c12.694,0,24.346-0.212,35.31-0.574v-34.737v-53.539C183.243,246.961,171.591,247.172,158.897,247.172"/>
	<path style="fill:#35495E;" d="M317.793,177.129V123.59c0,19.5-41.887,35.31-158.897,35.31S0,143.09,0,123.59v88.276   c0,19.5,41.887,35.31,158.897,35.31c12.694,0,24.346-0.221,35.31-0.583v-34.728C194.207,194.475,227.663,180.06,317.793,177.129"/>
	<g>
		<path style="fill:#26B99A;" d="M450.207,141.241c-4.882,0-8.828-3.946-8.828-8.828c0-34.066-27.727-61.793-61.793-61.793    c-4.882,0-8.828-3.946-8.828-8.828s3.946-8.828,8.828-8.828c43.811,0,79.448,35.637,79.448,79.448    C459.034,137.295,455.089,141.241,450.207,141.241"/>
		<path style="fill:#26B99A;" d="M450.207,141.241c-0.927,0-1.871-0.15-2.79-0.459l-26.483-8.828    c-4.626-1.536-7.124-6.532-5.579-11.158c1.545-4.626,6.506-7.142,11.158-5.579l20.092,6.691l13.912-20.877    c2.701-4.061,8.174-5.146,12.244-2.445c4.061,2.71,5.155,8.183,2.445,12.244l-17.655,26.483    C455.883,139.82,453.094,141.241,450.207,141.241"/>
		<path style="fill:#26B99A;" d="M388.414,97.103c-3.699,0-7.142-2.339-8.369-6.038l-8.828-26.483    c-1.262-3.769,0.159-7.927,3.469-10.134l26.483-17.655c4.07-2.71,9.534-1.615,12.244,2.445c2.71,4.061,1.615,9.534-2.445,12.244    l-20.877,13.912l6.691,20.092c1.545,4.626-0.953,9.622-5.579,11.158C390.276,96.953,389.332,97.103,388.414,97.103"/>
	</g>
</g>
<g>
</g>
<g>
</g>
<g>
</g>
<g>
</g>
<g>
</g>
<g>
</g>
<g>
</g>
<g>
</g>
<g>
</g>
<g>
</g>
<g>
</g>
<g>
</g>
<g>
</g>
<g>
</g>
<g>
</g>
</svg>
