<?xml version="1.0" encoding="iso-8859-1"?>
<!-- Generator: Adobe Illustrator 19.0.0, SVG Export Plug-In . SVG Version: 6.00 Build 0)  -->
<svg xmlns="http://www.w3.org/2000/svg" xmlns:xlink="http://www.w3.org/1999/xlink" version="1.1" id="Layer_1" x="0px" y="0px" viewBox="0 0 512 512" style="enable-background:new 0 0 512 512;" xml:space="preserve">
<g>
	<path style="fill:#8697CB;" d="M451.258,34.712c0,19.17-110.601,34.712-225.627,34.712S0.004,53.881,0.004,34.712   S110.605,0,225.631,0S451.258,15.542,451.258,34.712"/>
	<g>
		<path style="fill:#556080;" d="M225.631,69.424c-115.026,0-225.627-15.542-225.627-34.712v121.492    c0,19.17,110.601,34.712,225.627,34.712s225.627-15.542,225.627-34.712V34.712C451.258,53.881,340.657,69.424,225.631,69.424"/>
		<path style="fill:#556080;" d="M259.42,393.203l-16.436-2.525v-30.043l15.664-3.011c21.556-4.139,32.247-27.787,22.545-46.418    c-18.102,0.781-36.769,1.198-55.565,1.198C110.61,312.402,0,296.86,0,277.691v121.492c0,19.17,110.609,34.712,225.627,34.712    c20.428,0,40.7-0.495,60.251-1.415C290.044,414.985,278.763,396.18,259.42,393.203"/>
	</g>
	<path style="fill:#8697CB;" d="M278.554,306.907l-9.832-13.407l21.235-21.244l17.061,11.559   c19.161,12.982,45.36,2.126,49.733-20.601l3.888-20.228h30.043l2.525,16.427c3.601,23.404,30.338,35.059,49.942,21.79l8.105-5.502   V156.205c0,19.17-110.601,34.712-225.627,34.712S0,175.375,0,156.205v121.492c0,19.17,110.601,34.712,225.627,34.712   c18.796,0,37.463-0.425,55.565-1.206C280.429,309.744,279.57,308.295,278.554,306.907"/>
	<path style="fill:#BDC3C7;" d="M390.682,512h-30.043c-4.157,0-7.741-2.959-8.522-7.047l-3.011-15.655   c-1.536-7.975-6.968-14.51-14.536-17.486c-7.567-2.951-15.985-1.866-22.528,2.942l-13.399,9.832   c-3.471,2.525-8.244,2.161-11.273-0.868l-21.244-21.235c-2.933-2.942-3.376-7.559-1.05-11.004l8.947-13.199   c4.556-6.734,5.337-15.195,2.083-22.641c-3.246-7.446-9.98-12.626-18.007-13.859l-16.436-2.525   c-4.226-0.651-7.359-4.296-7.359-8.574v-30.043c0-4.165,2.959-7.741,7.047-8.53l15.664-3.003   c7.975-1.536,14.51-6.968,17.477-14.536c2.968-7.559,1.866-15.985-2.942-22.528l-9.823-13.407   c-2.534-3.454-2.161-8.244,0.859-11.273l21.244-21.244c2.933-2.942,7.576-3.376,10.995-1.05l17.061,11.559   c6.691,4.53,14.77,5.337,22.216,2.265c7.454-3.089,12.609-9.398,14.119-17.313l3.896-20.228c0.781-4.096,4.365-7.047,8.522-7.047   h30.043c4.278,0,7.923,3.124,8.574,7.359l2.525,16.427c1.241,8.036,6.422,14.761,13.867,18.007   c7.428,3.263,15.898,2.473,22.632-2.083l13.199-8.947c3.454-2.326,8.071-1.892,11.004,1.05l21.244,21.244   c3.02,3.029,3.393,7.819,0.859,11.273l-9.832,13.407c-4.799,6.543-5.901,14.969-2.933,22.528c2.968,7.567,9.502,13,17.486,14.536   l15.655,3.003c4.087,0.79,7.038,4.365,7.038,8.53v30.043c0,4.278-3.124,7.923-7.35,8.574l-16.436,2.525   c-8.036,1.232-14.761,6.413-18.007,13.859c-3.254,7.446-2.473,15.907,2.083,22.641l8.947,13.199   c2.326,3.445,1.883,8.062-1.059,11.004l-21.235,21.235c-3.02,3.029-7.828,3.393-11.264,0.868l-9.433-6.916   c-6.699-4.912-15.265-5.927-22.945-2.768c-7.671,3.176-13,9.971-14.267,18.18l-1.779,11.559   C398.605,508.876,394.96,512,390.682,512"/>
	<path style="fill:#ECF0F1;" d="M416.546,373.153c0,23.969-19.421,43.39-43.39,43.39c-23.969,0-43.39-19.421-43.39-43.39   c0-23.969,19.421-43.39,43.39-43.39C397.125,329.763,416.546,349.184,416.546,373.153"/>
</g>
<g>
</g>
<g>
</g>
<g>
</g>
<g>
</g>
<g>
</g>
<g>
</g>
<g>
</g>
<g>
</g>
<g>
</g>
<g>
</g>
<g>
</g>
<g>
</g>
<g>
</g>
<g>
</g>
<g>
</g>
</svg>
