<?xml version="1.0" encoding="iso-8859-1"?>
<!-- Generator: Adobe Illustrator 19.0.0, SVG Export Plug-In . SVG Version: 6.00 Build 0)  -->
<svg xmlns="http://www.w3.org/2000/svg" xmlns:xlink="http://www.w3.org/1999/xlink" version="1.1" id="Layer_1" x="0px" y="0px" viewBox="0 0 512.002 512.002" style="enable-background:new 0 0 512.002 512.002;" xml:space="preserve">
<g>
	<path style="fill:#8697CB;" d="M459.036,35.311c0,19.5-112.508,35.31-229.517,35.31S0.002,54.811,0.002,35.311   s112.508-35.31,229.517-35.31S459.036,15.811,459.036,35.311"/>
	<g>
		<path style="fill:#556080;" d="M229.519,70.622c-117.01,0-229.517-15.81-229.517-35.31v123.586    c0,19.5,112.508,35.31,229.517,35.31s229.517-15.81,229.517-35.31V35.311C459.036,54.811,346.529,70.622,229.519,70.622"/>
		<path style="fill:#556080;" d="M229.519,370.759c0-18.759,3.743-36.626,10.381-53.01c-3.46,0.026-6.912,0.044-10.381,0.044    c-117.01,0-229.517-15.81-229.517-35.31V406.07c0,19.5,112.508,35.31,229.517,35.31c6.347,0,12.668-0.053,18.962-0.15    C236.484,420.476,229.519,396.457,229.519,370.759"/>
	</g>
	<path style="fill:#8697CB;" d="M239.898,317.751c20.974-51.712,71.618-88.232,130.86-88.232c33.421,0,64.088,11.67,88.276,31.073   V158.898c0,19.5-112.508,35.31-229.517,35.31S0,178.398,0,158.898v123.586c0,19.5,112.508,35.31,229.517,35.31   C232.986,317.795,236.438,317.777,239.898,317.751"/>
	<path style="fill:#13A085;" d="M512.002,370.759c0,78.009-63.232,141.241-141.241,141.241s-141.241-63.232-141.241-141.241   s63.232-141.241,141.241-141.241S512.002,292.75,512.002,370.759"/>
	<path style="fill:#FFFFFF;" d="M423.726,344.277c-4.882,0-8.828-3.946-8.828-8.828v-22.952c0-21.416-19.8-38.841-44.138-38.841   c-24.338,0-44.138,17.426-44.138,38.841v22.952c0,4.882-3.946,8.828-8.828,8.828c-4.882,0-8.828-3.946-8.828-8.828v-22.952   c0-31.153,27.727-56.497,61.793-56.497s61.793,25.344,61.793,56.497v22.952C432.553,340.331,428.608,344.277,423.726,344.277"/>
	<path style="fill:#F0C419;" d="M426.398,459.035H315.126c-13.153,0-23.817-10.664-23.817-23.808v-75.97   c0-13.144,10.664-23.808,23.817-23.808h111.272c13.144,0,23.808,10.664,23.808,23.808v75.97   C450.206,448.372,439.542,459.035,426.398,459.035"/>
	<path style="fill:#FFFFFF;" d="M370.76,406.07c-4.882,0-8.828-3.946-8.828-8.828v-17.655c0-4.882,3.946-8.828,8.828-8.828   c4.882,0,8.828,3.946,8.828,8.828v17.655C379.588,402.124,375.642,406.07,370.76,406.07"/>
</g>
<g>
</g>
<g>
</g>
<g>
</g>
<g>
</g>
<g>
</g>
<g>
</g>
<g>
</g>
<g>
</g>
<g>
</g>
<g>
</g>
<g>
</g>
<g>
</g>
<g>
</g>
<g>
</g>
<g>
</g>
</svg>
