<?xml version="1.0" encoding="iso-8859-1"?>
<!-- Generator: Adobe Illustrator 19.0.0, SVG Export Plug-In . SVG Version: 6.00 Build 0)  -->
<svg xmlns="http://www.w3.org/2000/svg" xmlns:xlink="http://www.w3.org/1999/xlink" version="1.1" id="Layer_1" x="0px" y="0px" viewBox="0 0 512 512" style="enable-background:new 0 0 512 512;" xml:space="preserve">
<g>
	<path style="fill:#F0C419;" d="M406.069,238.345c0,0-33.589,34.578-105.931,34.578v93.219c0,47.025,24.099,92.363,61.069,121.415   c13.083,10.284,26.977,19.129,44.862,24.444c17.885-5.314,34.869-14.159,47.96-24.444C490.99,458.505,512,413.166,512,366.142   v-93.219C439.658,272.922,406.069,238.345,406.069,238.345"/>
	<path style="fill:#FFFFFF;" d="M406.319,474.535c-7.371-3.302-14.654-7.936-23.296-14.733   c-29.343-23.066-47.572-58.959-47.572-93.661v-60.398c31.347-4.555,54.74-14.618,70.621-23.896   c15.881,9.278,39.274,19.341,70.621,23.896v60.398c0,36.758-16.631,71.768-44.482,93.652   C424.91,465.531,415.826,470.677,406.319,474.535"/>
	<path style="fill:#26B99A;" d="M397.241,414.164c-2.33,0-4.582-0.918-6.241-2.586l-26.483-26.483   c-3.452-3.452-3.452-9.031,0-12.482c3.452-3.452,9.031-3.452,12.482,0l19.121,19.112l38.073-53.31   c2.834-3.972,8.36-4.899,12.314-2.048c3.972,2.825,4.89,8.342,2.057,12.306l-44.138,61.793c-1.509,2.11-3.875,3.46-6.453,3.672   C397.727,414.155,397.48,414.164,397.241,414.164"/>
	<path style="fill:#35495E;" d="M459.034,35.31c0,19.5-112.508,35.31-229.517,35.31S0,54.81,0,35.31S112.508,0,229.517,0   S459.034,15.81,459.034,35.31"/>
	<g>
		<path style="fill:#1F2F3D;" d="M229.517,70.621C112.508,70.621,0,54.81,0,35.31v141.241c0,19.5,112.508,35.31,229.517,35.31    s229.517-15.81,229.517-35.31V35.31C459.034,54.81,346.527,70.621,229.517,70.621"/>
		<path style="fill:#1F2F3D;" d="M300.138,366.138v-14.936c-22.731,1.218-46.574,1.898-70.621,1.898    C112.508,353.1,0,337.29,0,317.79v141.241c0,19.5,112.508,35.31,229.517,35.31c46.919,0,93.105-2.542,131.61-6.85    C324.202,458.439,300.138,413.119,300.138,366.138"/>
	</g>
	<path style="fill:#35495E;" d="M300.138,273.655c72.342,0,105.931-35.31,105.931-35.31s17.108,18.123,52.966,28.213v-90.006   c0,19.5-112.508,35.31-229.517,35.31S0,196.052,0,176.552v141.241c0,19.5,112.508,35.31,229.517,35.31   c24.046,0,47.89-0.68,70.621-1.907V273.655z"/>
</g>
<g>
</g>
<g>
</g>
<g>
</g>
<g>
</g>
<g>
</g>
<g>
</g>
<g>
</g>
<g>
</g>
<g>
</g>
<g>
</g>
<g>
</g>
<g>
</g>
<g>
</g>
<g>
</g>
<g>
</g>
</svg>
