<?xml version="1.0" encoding="iso-8859-1"?>
<!-- Generator: Adobe Illustrator 19.0.0, SVG Export Plug-In . SVG Version: 6.00 Build 0)  -->
<svg xmlns="http://www.w3.org/2000/svg" xmlns:xlink="http://www.w3.org/1999/xlink" version="1.1" id="Layer_1" x="0px" y="0px" viewBox="0 0 512 512" style="enable-background:new 0 0 512 512;" xml:space="preserve">
<g>
	<path style="fill:#BDC3C7;" d="M176.552,361.931h-70.621c-14.601,0-26.483-11.882-26.483-26.483v-61.793   c0-14.601,11.882-26.483,26.483-26.483h300.138c4.864,0,8.828-3.955,8.828-8.828v-61.793c0-4.873-3.964-8.828-8.828-8.828h-70.621   c-4.873,0-8.828-3.946-8.828-8.828c0-4.882,3.955-8.828,8.828-8.828h70.621c14.601,0,26.483,11.882,26.483,26.483v61.793   c0,14.601-11.882,26.483-26.483,26.483H105.931c-4.864,0-8.828,3.955-8.828,8.828v61.793c0,4.873,3.964,8.828,8.828,8.828h70.621   c4.873,0,8.828,3.946,8.828,8.828C185.379,357.985,181.425,361.931,176.552,361.931"/>
	<path style="fill:#35495E;" d="M308.966,105.931H26.483C11.855,105.931,0,94.076,0,79.448V26.483C0,11.855,11.855,0,26.483,0   h282.483c14.627,0,26.483,11.855,26.483,26.483v52.966C335.448,94.076,323.593,105.931,308.966,105.931"/>
	<path style="fill:#26B99A;" d="M132.414,70.621h-17.655c-4.873,0-8.828-3.946-8.828-8.828V44.138c0-4.882,3.955-8.828,8.828-8.828   h17.655c4.873,0,8.828,3.946,8.828,8.828v17.655C141.241,66.675,137.287,70.621,132.414,70.621"/>
	<path style="fill:#E64C3C;" d="M61.793,70.621H44.138c-4.873,0-8.828-3.946-8.828-8.828V44.138c0-4.882,3.955-8.828,8.828-8.828   h17.655c4.873,0,8.828,3.946,8.828,8.828v17.655C70.621,66.675,66.666,70.621,61.793,70.621"/>
	<g>
		<path style="fill:#1F2F3D;" d="M291.31,61.793H176.552c-4.873,0-8.828-3.946-8.828-8.828s3.955-8.828,8.828-8.828H291.31    c4.873,0,8.828,3.946,8.828,8.828S296.183,61.793,291.31,61.793"/>
		<path style="fill:#1F2F3D;" d="M308.966,211.862H26.483C11.855,211.862,0,200.007,0,185.379v-52.966    c0-14.627,11.855-26.483,26.483-26.483h282.483c14.627,0,26.483,11.855,26.483,26.483v52.966    C335.448,200.007,323.593,211.862,308.966,211.862"/>
	</g>
	<path style="fill:#26B99A;" d="M132.414,176.552h-17.655c-4.873,0-8.828-3.946-8.828-8.828v-17.655   c0-4.882,3.955-8.828,8.828-8.828h17.655c4.873,0,8.828,3.946,8.828,8.828v17.655C141.241,172.606,137.287,176.552,132.414,176.552   "/>
	<path style="fill:#E64C3C;" d="M61.793,176.552H44.138c-4.873,0-8.828-3.946-8.828-8.828v-17.655c0-4.882,3.955-8.828,8.828-8.828   h17.655c4.873,0,8.828,3.946,8.828,8.828v17.655C70.621,172.606,66.666,176.552,61.793,176.552"/>
	<g>
		<path style="fill:#35495E;" d="M291.31,167.724H176.552c-4.873,0-8.828-3.946-8.828-8.828c0-4.882,3.955-8.828,8.828-8.828H291.31    c4.873,0,8.828,3.946,8.828,8.828C300.138,163.778,296.183,167.724,291.31,167.724"/>
		<path style="fill:#35495E;" d="M485.517,406.069H203.034c-14.627,0-26.483-11.855-26.483-26.483v-52.966    c0-14.627,11.855-26.483,26.483-26.483h282.483c14.627,0,26.483,11.855,26.483,26.483v52.966    C512,394.214,500.145,406.069,485.517,406.069"/>
	</g>
	<path style="fill:#4482C3;" d="M308.966,370.759H291.31c-4.873,0-8.828-3.946-8.828-8.828v-17.655c0-4.882,3.955-8.828,8.828-8.828   h17.655c4.873,0,8.828,3.946,8.828,8.828v17.655C317.793,366.813,313.838,370.759,308.966,370.759"/>
	<path style="fill:#F0C419;" d="M238.345,370.759H220.69c-4.873,0-8.828-3.946-8.828-8.828v-17.655c0-4.882,3.955-8.828,8.828-8.828   h17.655c4.873,0,8.828,3.946,8.828,8.828v17.655C247.172,366.813,243.218,370.759,238.345,370.759"/>
	<g>
		<path style="fill:#1F2F3D;" d="M467.862,361.931H353.103c-4.873,0-8.828-3.946-8.828-8.828c0-4.882,3.955-8.828,8.828-8.828    h114.759c4.873,0,8.828,3.946,8.828,8.828C476.69,357.985,472.735,361.931,467.862,361.931"/>
		<path style="fill:#1F2F3D;" d="M485.517,512H203.034c-14.627,0-26.483-11.855-26.483-26.483v-52.966    c0-14.627,11.855-26.483,26.483-26.483h282.483c14.627,0,26.483,11.855,26.483,26.483v52.966C512,500.145,500.145,512,485.517,512    "/>
	</g>
	<path style="fill:#4482C3;" d="M308.966,476.69H291.31c-4.873,0-8.828-3.946-8.828-8.828v-17.655c0-4.882,3.955-8.828,8.828-8.828   h17.655c4.873,0,8.828,3.946,8.828,8.828v17.655C317.793,472.744,313.838,476.69,308.966,476.69"/>
	<path style="fill:#F0C419;" d="M238.345,476.69H220.69c-4.873,0-8.828-3.946-8.828-8.828v-17.655c0-4.882,3.955-8.828,8.828-8.828   h17.655c4.873,0,8.828,3.946,8.828,8.828v17.655C247.172,472.744,243.218,476.69,238.345,476.69"/>
	<path style="fill:#35495E;" d="M467.862,467.862H353.103c-4.873,0-8.828-3.946-8.828-8.828c0-4.882,3.955-8.828,8.828-8.828   h114.759c4.873,0,8.828,3.946,8.828,8.828C476.69,463.916,472.735,467.862,467.862,467.862"/>
</g>
<g>
</g>
<g>
</g>
<g>
</g>
<g>
</g>
<g>
</g>
<g>
</g>
<g>
</g>
<g>
</g>
<g>
</g>
<g>
</g>
<g>
</g>
<g>
</g>
<g>
</g>
<g>
</g>
<g>
</g>
</svg>
