<?xml version="1.0" encoding="iso-8859-1"?>
<!-- Generator: Adobe Illustrator 19.0.0, SVG Export Plug-In . SVG Version: 6.00 Build 0)  -->
<svg xmlns="http://www.w3.org/2000/svg" xmlns:xlink="http://www.w3.org/1999/xlink" version="1.1" id="Layer_1" x="0px" y="0px" viewBox="0 0 512 512" style="enable-background:new 0 0 512 512;" xml:space="preserve">
<g transform="translate(0 -1)">
	<path style="fill:#35495E;" d="M176.552,358.52v-70.621c0-14.627,11.855-26.483,26.483-26.483H26.483   C11.855,261.416,0,273.272,0,287.899v70.621c0,14.627,11.855,26.483,26.483,26.483h176.552   C188.407,385.003,176.552,373.147,176.552,358.52"/>
	<path style="fill:#1F2F3D;" d="M176.552,234.934v-70.621c0-14.627,11.855-26.483,26.483-26.483H26.483   C11.855,137.83,0,149.686,0,164.313v70.621c0,14.627,11.855,26.483,26.483,26.483h176.552   C188.407,261.416,176.552,249.561,176.552,234.934"/>
	<path style="fill:#35495E;" d="M308.966,137.83H26.483C11.855,137.83,0,125.975,0,111.347V40.727   c0-14.627,11.855-26.483,26.483-26.483h282.483c14.627,0,26.483,11.855,26.483,26.483v70.621   C335.448,125.975,323.593,137.83,308.966,137.83"/>
	<path style="fill:#F0C419;" d="M132.414,102.52h-17.655c-4.873,0-8.828-3.946-8.828-8.828V76.037c0-4.882,3.955-8.828,8.828-8.828   h17.655c4.873,0,8.828,3.946,8.828,8.828v17.655C141.241,98.574,137.287,102.52,132.414,102.52"/>
	<path style="fill:#E64C3C;" d="M61.793,102.52H44.138c-4.873,0-8.828-3.946-8.828-8.828V76.037c0-4.882,3.955-8.828,8.828-8.828   h17.655c4.873,0,8.828,3.946,8.828,8.828v17.655C70.621,98.574,66.666,102.52,61.793,102.52"/>
	<path style="fill:#1F2F3D;" d="M291.31,76.037H176.552c-4.873,0-8.828-3.946-8.828-8.828c0-4.882,3.955-8.828,8.828-8.828H291.31   c4.873,0,8.828,3.946,8.828,8.828C300.138,72.091,296.183,76.037,291.31,76.037"/>
	<path style="fill:#F0C419;" d="M132.414,226.106h-17.655c-4.873,0-8.828-3.946-8.828-8.828v-17.655   c0-4.882,3.955-8.828,8.828-8.828h17.655c4.873,0,8.828,3.946,8.828,8.828v17.655C141.241,222.16,137.287,226.106,132.414,226.106"/>
	<path style="fill:#E64C3C;" d="M61.793,226.106H44.138c-4.873,0-8.828-3.946-8.828-8.828v-17.655c0-4.882,3.955-8.828,8.828-8.828   h17.655c4.873,0,8.828,3.946,8.828,8.828v17.655C70.621,222.16,66.666,226.106,61.793,226.106"/>
	<path style="fill:#F0C419;" d="M132.414,349.692h-17.655c-4.873,0-8.828-3.946-8.828-8.828v-17.655   c0-4.882,3.955-8.828,8.828-8.828h17.655c4.873,0,8.828,3.946,8.828,8.828v17.655C141.241,345.746,137.287,349.692,132.414,349.692   "/>
	<path style="fill:#E64C3C;" d="M61.793,349.692H44.138c-4.873,0-8.828-3.946-8.828-8.828v-17.655c0-4.882,3.955-8.828,8.828-8.828   h17.655c4.873,0,8.828,3.946,8.828,8.828v17.655C70.621,345.746,66.666,349.692,61.793,349.692"/>
	<path style="fill:#ECF0F1;" d="M485.517,261.416H203.034c-14.627,0-26.483-11.855-26.483-26.483v-70.621   c0-14.627,11.855-26.483,26.483-26.483h282.483c14.627,0,26.483,11.855,26.483,26.483v70.621   C512,249.561,500.145,261.416,485.517,261.416"/>
	<path style="fill:#E64C3C;" d="M308.966,226.106H291.31c-4.873,0-8.828-3.946-8.828-8.828v-17.655c0-4.882,3.955-8.828,8.828-8.828   h17.655c4.873,0,8.828,3.946,8.828,8.828v17.655C317.793,222.16,313.838,226.106,308.966,226.106"/>
	<path style="fill:#26B99A;" d="M238.345,226.106H220.69c-4.873,0-8.828-3.946-8.828-8.828v-17.655c0-4.882,3.955-8.828,8.828-8.828   h17.655c4.873,0,8.828,3.946,8.828,8.828v17.655C247.172,222.16,243.218,226.106,238.345,226.106"/>
	<g>
		<path style="fill:#BDC3C7;" d="M467.862,199.623H353.103c-4.873,0-8.828-3.946-8.828-8.828c0-4.882,3.955-8.828,8.828-8.828    h114.759c4.873,0,8.828,3.946,8.828,8.828C476.69,195.677,472.735,199.623,467.862,199.623"/>
		<path style="fill:#BDC3C7;" d="M485.517,385.003H203.034c-14.627,0-26.483-11.855-26.483-26.483v-70.621    c0-14.627,11.855-26.483,26.483-26.483h282.483c14.627,0,26.483,11.855,26.483,26.483v70.621    C512,373.147,500.145,385.003,485.517,385.003"/>
	</g>
	<path style="fill:#E64C3C;" d="M308.966,349.692H291.31c-4.873,0-8.828-3.946-8.828-8.828v-17.655c0-4.882,3.955-8.828,8.828-8.828   h17.655c4.873,0,8.828,3.946,8.828,8.828v17.655C317.793,345.746,313.838,349.692,308.966,349.692"/>
	<path style="fill:#26B99A;" d="M238.345,349.692H220.69c-4.873,0-8.828-3.946-8.828-8.828v-17.655c0-4.882,3.955-8.828,8.828-8.828   h17.655c4.873,0,8.828,3.946,8.828,8.828v17.655C247.172,345.746,243.218,349.692,238.345,349.692"/>
	<g>
		<path style="fill:#ECF0F1;" d="M467.862,323.209H353.103c-4.873,0-8.828-3.946-8.828-8.828s3.955-8.828,8.828-8.828h114.759    c4.873,0,8.828,3.946,8.828,8.828S472.735,323.209,467.862,323.209"/>
		<path style="fill:#ECF0F1;" d="M485.517,508.589H203.034c-14.627,0-26.483-11.855-26.483-26.483v-70.621    c0-14.627,11.855-26.483,26.483-26.483h282.483c14.627,0,26.483,11.855,26.483,26.483v70.621    C512,496.733,500.145,508.589,485.517,508.589"/>
	</g>
	<path style="fill:#E64C3C;" d="M308.966,473.278H291.31c-4.873,0-8.828-3.946-8.828-8.828v-17.655c0-4.882,3.955-8.828,8.828-8.828   h17.655c4.873,0,8.828,3.946,8.828,8.828v17.655C317.793,469.332,313.838,473.278,308.966,473.278"/>
	<path style="fill:#26B99A;" d="M238.345,473.278H220.69c-4.873,0-8.828-3.946-8.828-8.828v-17.655c0-4.882,3.955-8.828,8.828-8.828   h17.655c4.873,0,8.828,3.946,8.828,8.828v17.655C247.172,469.332,243.218,473.278,238.345,473.278"/>
	<path style="fill:#BDC3C7;" d="M467.862,446.796H353.103c-4.873,0-8.828-3.946-8.828-8.828c0-4.882,3.955-8.828,8.828-8.828   h114.759c4.873,0,8.828,3.946,8.828,8.828C476.69,442.85,472.735,446.796,467.862,446.796"/>
	<g>
		<path style="fill:#F0C419;" d="M459.034,111.347c-4.873,0-8.828-3.946-8.828-8.828c0-34.066-27.719-61.793-61.793-61.793    c-4.873,0-8.828-3.946-8.828-8.828s3.955-8.828,8.828-8.828c43.802,0,79.448,35.637,79.448,79.448    C467.862,107.401,463.907,111.347,459.034,111.347"/>
		<path style="fill:#F0C419;" d="M459.034,111.347c-0.927,0-1.871-0.15-2.79-0.459l-26.483-8.828    c-4.626-1.536-7.133-6.532-5.588-11.158c1.545-4.626,6.524-7.142,11.167-5.579l20.092,6.691l13.912-20.877    c2.701-4.061,8.183-5.146,12.244-2.445c4.052,2.71,5.146,8.183,2.445,12.244l-17.655,26.483    C464.711,109.926,461.93,111.347,459.034,111.347"/>
		<path style="fill:#F0C419;" d="M397.241,67.209c-3.699,0-7.141-2.339-8.377-6.038l-8.828-26.483    c-1.254-3.769,0.168-7.927,3.478-10.134l26.483-17.655c4.061-2.71,9.534-1.615,12.244,2.445c2.701,4.061,1.607,9.534-2.445,12.244    l-20.877,13.912l6.7,20.092c1.545,4.626-0.962,9.622-5.588,11.158C399.104,67.059,398.159,67.209,397.241,67.209"/>
	</g>
</g>
<g>
</g>
<g>
</g>
<g>
</g>
<g>
</g>
<g>
</g>
<g>
</g>
<g>
</g>
<g>
</g>
<g>
</g>
<g>
</g>
<g>
</g>
<g>
</g>
<g>
</g>
<g>
</g>
<g>
</g>
</svg>
