<?xml version="1.0" encoding="iso-8859-1"?>
<!-- Generator: Adobe Illustrator 19.0.0, SVG Export Plug-In . SVG Version: 6.00 Build 0)  -->
<svg xmlns="http://www.w3.org/2000/svg" xmlns:xlink="http://www.w3.org/1999/xlink" version="1.1" id="Layer_1" x="0px" y="0px" viewBox="0 0 512.003 512.003" style="enable-background:new 0 0 512.003 512.003;" xml:space="preserve">
<g>
	<path style="fill:#35495E;" d="M292.002,468.153l8.348-12.323c12.392-18.284,1.501-43.242-20.332-46.609l-15.334-2.352v-28.039   l14.614-2.812c21.695-4.174,31.649-29.531,18.58-47.338l-9.181-12.514l3.766-3.758H30.379c-14.388,0-26.034,11.655-26.034,26.034   v104.136c0,14.379,11.646,26.034,26.034,26.034h262.083L292.002,468.153z"/>
	<path style="fill:#1F2F3D;" d="M308.528,296.339l15.915,10.787c17.894,12.114,42.34,1.987,46.418-19.23l3.636-18.875h28.03   l2.36,15.334c3.358,21.834,28.316,32.725,46.609,20.332l12.323-8.348l4.643,4.643c2.829-4.165,4.487-9.19,4.487-14.605V182.241   c0-14.388-11.655-26.034-26.034-26.034H30.373c-14.379,0-26.034,11.646-26.034,26.034v104.136   c0,14.379,11.655,26.034,26.034,26.034h262.083L308.528,296.339z"/>
	<path style="fill:#35495E;" d="M446.918,156.203H30.375c-14.379,0-26.034-11.655-26.034-26.034V26.034   C4.342,11.655,15.996,0,30.375,0h416.542c14.379,0,26.034,11.655,26.034,26.034v104.136   C472.952,144.549,461.297,156.203,446.918,156.203"/>
	<path style="fill:#26B99A;" d="M212.613,112.814h-17.356c-4.799,0-8.678-3.879-8.678-8.678V86.78c0-4.799,3.879-8.678,8.678-8.678   h17.356c4.799,0,8.678,3.879,8.678,8.678v17.356C221.291,108.935,217.412,112.814,212.613,112.814"/>
	<path style="fill:#F0C419;" d="M143.189,112.814h-17.356c-4.799,0-8.678-3.879-8.678-8.678V86.78c0-4.799,3.879-8.678,8.678-8.678   h17.356c4.799,0,8.678,3.879,8.678,8.678v17.356C151.867,108.935,147.988,112.814,143.189,112.814"/>
	<path style="fill:#E64C3C;" d="M73.765,112.814H56.409c-4.799,0-8.678-3.879-8.678-8.678V86.78c0-4.799,3.879-8.678,8.678-8.678   h17.356c4.799,0,8.678,3.879,8.678,8.678v17.356C82.443,108.935,78.564,112.814,73.765,112.814"/>
	<path style="fill:#1F2F3D;" d="M429.562,86.78H273.359c-4.799,0-8.678-3.879-8.678-8.678s3.879-8.678,8.678-8.678h156.203   c4.799,0,8.678,3.879,8.678,8.678S434.361,86.78,429.562,86.78"/>
	<path style="fill:#26B99A;" d="M212.613,269.017h-17.356c-4.799,0-8.678-3.879-8.678-8.678v-17.356   c0-4.799,3.879-8.678,8.678-8.678h17.356c4.799,0,8.678,3.879,8.678,8.678v17.356C221.291,265.138,217.412,269.017,212.613,269.017   "/>
	<path style="fill:#F0C419;" d="M143.189,269.017h-17.356c-4.799,0-8.678-3.879-8.678-8.678v-17.356   c0-4.799,3.879-8.678,8.678-8.678h17.356c4.799,0,8.678,3.879,8.678,8.678v17.356C151.867,265.138,147.988,269.017,143.189,269.017   "/>
	<path style="fill:#E64C3C;" d="M73.765,269.017H56.409c-4.799,0-8.678-3.879-8.678-8.678v-17.356c0-4.799,3.879-8.678,8.678-8.678   h17.356c4.799,0,8.678,3.879,8.678,8.678v17.356C82.443,265.138,78.564,269.017,73.765,269.017"/>
	<path style="fill:#35495E;" d="M429.562,242.983H273.359c-4.799,0-8.678-3.879-8.678-8.678s3.879-8.678,8.678-8.678h156.203   c4.799,0,8.678,3.879,8.678,8.678S434.361,242.983,429.562,242.983"/>
	<path style="fill:#26B99A;" d="M212.613,425.22h-17.356c-4.799,0-8.678-3.879-8.678-8.678v-17.356c0-4.799,3.879-8.678,8.678-8.678   h17.356c4.799,0,8.678,3.879,8.678,8.678v17.356C221.291,421.341,217.412,425.22,212.613,425.22"/>
	<path style="fill:#F0C419;" d="M143.189,425.22h-17.356c-4.799,0-8.678-3.879-8.678-8.678v-17.356c0-4.799,3.879-8.678,8.678-8.678   h17.356c4.799,0,8.678,3.879,8.678,8.678v17.356C151.867,421.341,147.988,425.22,143.189,425.22"/>
	<path style="fill:#E64C3C;" d="M73.765,425.22H56.409c-4.799,0-8.678-3.879-8.678-8.678v-17.356c0-4.799,3.879-8.678,8.678-8.678   h17.356c4.799,0,8.678,3.879,8.678,8.678v17.356C82.443,421.341,78.564,425.22,73.765,425.22"/>
	<path style="fill:#BDC3C7;" d="M507.664,378.831l-14.622-2.812c-21.695-4.174-31.64-29.531-18.571-47.338l9.173-12.514   l-19.829-19.829l-12.323,8.348c-18.284,12.392-43.242,1.501-46.609-20.332l-2.352-15.334h-28.039l-3.636,18.875   c-4.07,21.218-28.524,31.345-46.41,19.23l-15.915-10.787l-19.829,19.829l9.173,12.514c13.069,17.807,3.124,43.164-18.571,47.338   l-14.622,2.812v28.03l15.343,2.36c21.825,3.367,32.716,28.325,20.324,46.609l-8.348,12.323l19.838,19.829l12.505-9.173   c17.816-13.069,43.173-3.124,47.338,18.571l2.812,14.622h28.039l1.658-10.787c3.436-22.328,29.314-33.046,47.529-19.69l8.791,6.456   l19.838-19.829l-8.348-12.323c-12.392-18.284-1.501-43.242,20.324-46.609l15.343-2.36V378.831z"/>
	<path style="fill:#ECF0F1;" d="M426.672,390.508c0,22.363-18.137,40.5-40.5,40.5c-22.363,0-40.5-18.137-40.5-40.5   c0-22.363,18.137-40.5,40.5-40.5C408.535,350.008,426.672,368.145,426.672,390.508"/>
</g>
<g>
</g>
<g>
</g>
<g>
</g>
<g>
</g>
<g>
</g>
<g>
</g>
<g>
</g>
<g>
</g>
<g>
</g>
<g>
</g>
<g>
</g>
<g>
</g>
<g>
</g>
<g>
</g>
<g>
</g>
</svg>
