<?xml version="1.0" encoding="iso-8859-1"?>
<!-- Generator: Adobe Illustrator 19.0.0, SVG Export Plug-In . SVG Version: 6.00 Build 0)  -->
<svg xmlns="http://www.w3.org/2000/svg" xmlns:xlink="http://www.w3.org/1999/xlink" version="1.1" id="Layer_1" x="0px" y="0px" viewBox="0 0 512 512" style="enable-background:new 0 0 512 512;" xml:space="preserve">
<g>
	<path style="fill:#ECF0F1;" d="M494.345,512H17.655C7.91,512,0,504.09,0,494.345V70.621h512v423.724   C512,504.09,504.09,512,494.345,512"/>
	<path style="fill:#35495E;" d="M512,70.621H0V17.655C0,7.91,7.91,0,17.655,0h476.69C504.09,0,512,7.91,512,17.655V70.621z"/>
	<path style="fill:#E64C3C;" d="M44.138,35.31c0,4.882-3.946,8.828-8.828,8.828s-8.828-3.946-8.828-8.828s3.946-8.828,8.828-8.828   S44.138,30.429,44.138,35.31"/>
	<path style="fill:#F0C419;" d="M79.448,35.31c0,4.882-3.946,8.828-8.828,8.828c-4.882,0-8.828-3.946-8.828-8.828   s3.946-8.828,8.828-8.828C75.502,26.483,79.448,30.429,79.448,35.31"/>
	<path style="fill:#24AE5F;" d="M114.759,35.31c0,4.882-3.946,8.828-8.828,8.828c-4.882,0-8.828-3.946-8.828-8.828   s3.946-8.828,8.828-8.828C110.813,26.483,114.759,30.429,114.759,35.31"/>
	<path style="fill:#E64C3C;" d="M264.828,247.172c0,4.882-3.946,8.828-8.828,8.828s-8.828-3.946-8.828-8.828   s3.946-8.828,8.828-8.828S264.828,242.291,264.828,247.172"/>
	<g>
		<path style="fill:#9777A8;" d="M211.862,379.586c-19.474,0-35.31-15.837-35.31-35.31V312.62l-15.069-15.069    c-3.452-3.452-3.452-9.031,0-12.482l15.069-15.069v-31.656c0-19.474,15.837-35.31,35.31-35.31c4.882,0,8.828,3.946,8.828,8.828    c0,4.882-3.946,8.828-8.828,8.828c-9.737,0-17.655,7.918-17.655,17.655v35.31c0,2.348-0.927,4.59-2.586,6.241l-11.414,11.414    l11.414,11.414c1.66,1.651,2.586,3.893,2.586,6.241v35.31c0,9.737,7.918,17.655,17.655,17.655c4.882,0,8.828,3.946,8.828,8.828    C220.69,375.64,216.744,379.586,211.862,379.586"/>
		<path style="fill:#9777A8;" d="M300.138,379.586c-4.882,0-8.828-3.946-8.828-8.828c0-4.882,3.946-8.828,8.828-8.828    c9.737,0,17.655-7.918,17.655-17.655v-35.31c0-2.348,0.927-4.59,2.586-6.241l11.414-11.414l-11.414-11.414    c-1.668-1.651-2.595-3.911-2.586-6.259l0.071-35.31c0-9.719-7.954-17.638-17.726-17.638c-4.882,0-8.828-3.946-8.828-8.828    c0-4.882,3.946-8.828,8.828-8.828c19.509,0,35.381,15.837,35.381,35.31l-0.062,31.665l15.06,15.06    c3.452,3.452,3.452,9.031,0,12.482l-15.069,15.069v31.656C335.448,363.75,319.612,379.586,300.138,379.586"/>
	</g>
	<path style="fill:#E64C3C;" d="M247.172,353.103c-0.918,0-1.863-0.15-2.79-0.459c-4.626-1.536-7.124-6.532-5.579-11.158   l8.828-26.483c1.536-4.626,6.506-7.124,11.158-5.579c4.626,1.536,7.124,6.532,5.579,11.158l-8.828,26.483   C254.314,350.764,250.871,353.103,247.172,353.103"/>
</g>
<g>
</g>
<g>
</g>
<g>
</g>
<g>
</g>
<g>
</g>
<g>
</g>
<g>
</g>
<g>
</g>
<g>
</g>
<g>
</g>
<g>
</g>
<g>
</g>
<g>
</g>
<g>
</g>
<g>
</g>
</svg>
