<?xml version="1.0" encoding="iso-8859-1"?>
<!-- Generator: Adobe Illustrator 19.0.0, SVG Export Plug-In . SVG Version: 6.00 Build 0)  -->
<svg xmlns="http://www.w3.org/2000/svg" xmlns:xlink="http://www.w3.org/1999/xlink" version="1.1" id="Layer_1" x="0px" y="0px" viewBox="0 0 512 512" style="enable-background:new 0 0 512 512;" xml:space="preserve">
<g>
	<path style="fill:#13A085;" d="M406.069,512H105.931C47.431,512,0,464.569,0,406.069V105.931C0,47.431,47.431,0,105.931,0h300.138   C464.569,0,512,47.431,512,105.931v300.138C512,464.569,464.569,512,406.069,512"/>
	<g>
		<path style="fill:#FFFFFF;" d="M158.897,247.172H52.966c-4.882,0-8.828-3.946-8.828-8.828c0-4.882,3.946-8.828,8.828-8.828    h105.931c4.882,0,8.828,3.946,8.828,8.828C167.724,243.226,163.778,247.172,158.897,247.172"/>
		<path style="fill:#FFFFFF;" d="M158.897,282.483H52.966c-4.882,0-8.828-3.946-8.828-8.828s3.946-8.828,8.828-8.828h105.931    c4.882,0,8.828,3.946,8.828,8.828S163.778,282.483,158.897,282.483"/>
		<path style="fill:#FFFFFF;" d="M308.966,247.172H203.034c-4.882,0-8.828-3.946-8.828-8.828c0-4.882,3.946-8.828,8.828-8.828    h105.931c4.882,0,8.828,3.946,8.828,8.828C317.793,243.226,313.847,247.172,308.966,247.172"/>
		<path style="fill:#FFFFFF;" d="M308.966,282.483H203.034c-4.882,0-8.828-3.946-8.828-8.828s3.946-8.828,8.828-8.828h105.931    c4.882,0,8.828,3.946,8.828,8.828S313.847,282.483,308.966,282.483"/>
		<path style="fill:#FFFFFF;" d="M459.034,247.172H353.103c-4.882,0-8.828-3.946-8.828-8.828c0-4.882,3.946-8.828,8.828-8.828    h105.931c4.882,0,8.828,3.946,8.828,8.828C467.862,243.226,463.916,247.172,459.034,247.172"/>
		<path style="fill:#FFFFFF;" d="M459.034,282.483H353.103c-4.882,0-8.828-3.946-8.828-8.828s3.946-8.828,8.828-8.828h105.931    c4.882,0,8.828,3.946,8.828,8.828S463.916,282.483,459.034,282.483"/>
	</g>
</g>
<g>
</g>
<g>
</g>
<g>
</g>
<g>
</g>
<g>
</g>
<g>
</g>
<g>
</g>
<g>
</g>
<g>
</g>
<g>
</g>
<g>
</g>
<g>
</g>
<g>
</g>
<g>
</g>
<g>
</g>
</svg>
