<?xml version="1.0" encoding="iso-8859-1"?>
<!-- Generator: Adobe Illustrator 19.0.0, SVG Export Plug-In . SVG Version: 6.00 Build 0)  -->
<svg xmlns="http://www.w3.org/2000/svg" xmlns:xlink="http://www.w3.org/1999/xlink" version="1.1" id="Layer_1" x="0px" y="0px" viewBox="0 0 512 512" style="enable-background:new 0 0 512 512;" xml:space="preserve">
<g>
	<path style="fill:#9777A8;" d="M406.069,512H105.931C47.431,512,0,464.569,0,406.069V105.931C0,47.431,47.431,0,105.931,0h300.138   C464.569,0,512,47.431,512,105.931v300.138C512,464.569,464.569,512,406.069,512"/>
	<g>
		<path style="fill:#FFFFFF;" d="M353.103,247.172H247.172c-4.873,0-8.828-3.946-8.828-8.828c0-4.882,3.955-8.828,8.828-8.828    h105.931c4.873,0,8.828,3.946,8.828,8.828C361.931,243.226,357.976,247.172,353.103,247.172"/>
		<path style="fill:#FFFFFF;" d="M353.103,282.483H247.172c-4.873,0-8.828-3.946-8.828-8.828s3.955-8.828,8.828-8.828h105.931    c4.873,0,8.828,3.946,8.828,8.828S357.976,282.483,353.103,282.483"/>
		<path style="fill:#FFFFFF;" d="M229.522,344.276c-2.436,0-4.855-0.997-6.603-2.957l-70.621-79.386    c-2.966-3.346-2.975-8.377-0.009-11.732l70.55-79.51c3.231-3.646,8.81-3.972,12.456-0.742c3.646,3.231,3.981,8.819,0.75,12.465    l-65.342,73.64l65.412,73.525c3.24,3.646,2.913,9.225-0.733,12.465C233.706,343.543,231.605,344.276,229.522,344.276"/>
	</g>
</g>
<g>
</g>
<g>
</g>
<g>
</g>
<g>
</g>
<g>
</g>
<g>
</g>
<g>
</g>
<g>
</g>
<g>
</g>
<g>
</g>
<g>
</g>
<g>
</g>
<g>
</g>
<g>
</g>
<g>
</g>
</svg>
