<?xml version="1.0" encoding="iso-8859-1"?>
<!-- Generator: Adobe Illustrator 19.0.0, SVG Export Plug-In . SVG Version: 6.00 Build 0)  -->
<svg xmlns="http://www.w3.org/2000/svg" xmlns:xlink="http://www.w3.org/1999/xlink" version="1.1" id="Layer_1" x="0px" y="0px" viewBox="0 0 512 512" style="enable-background:new 0 0 512 512;" xml:space="preserve">
<g>
	<path style="fill:#F36FA0;" d="M406.069,512H105.931C47.431,512,0,464.569,0,406.069V105.931C0,47.431,47.431,0,105.931,0h300.138   C464.569,0,512,47.431,512,105.931v300.138C512,464.569,464.569,512,406.069,512"/>
	<g>
		<path style="fill:#FFFFFF;" d="M361.931,247.172H256c-4.873,0-8.828-3.946-8.828-8.828c0-4.882,3.955-8.828,8.828-8.828h105.931    c4.873,0,8.828,3.946,8.828,8.828C370.759,243.226,366.804,247.172,361.931,247.172"/>
		<path style="fill:#FFFFFF;" d="M361.931,282.483H256c-4.873,0-8.828-3.946-8.828-8.828s3.955-8.828,8.828-8.828h105.931    c4.873,0,8.828,3.946,8.828,8.828S366.804,282.483,361.931,282.483"/>
		<path style="fill:#FFFFFF;" d="M150.142,344.276c-2.083,0-4.175-0.733-5.853-2.225c-3.646-3.231-3.981-8.819-0.75-12.465    l65.342-73.64l-65.404-73.525c-3.249-3.646-2.913-9.225,0.724-12.465c3.637-3.249,9.225-2.913,12.465,0.724l70.621,79.386    c2.975,3.346,2.975,8.377,0.009,11.732l-70.541,79.51C155.006,343.278,152.579,344.276,150.142,344.276"/>
	</g>
</g>
<g>
</g>
<g>
</g>
<g>
</g>
<g>
</g>
<g>
</g>
<g>
</g>
<g>
</g>
<g>
</g>
<g>
</g>
<g>
</g>
<g>
</g>
<g>
</g>
<g>
</g>
<g>
</g>
<g>
</g>
</svg>
