<?xml version="1.0" encoding="iso-8859-1"?>
<!-- Generator: Adobe Illustrator 19.0.0, SVG Export Plug-In . SVG Version: 6.00 Build 0)  -->
<svg xmlns="http://www.w3.org/2000/svg" xmlns:xlink="http://www.w3.org/1999/xlink" version="1.1" id="Layer_1" x="0px" y="0px" viewBox="0 0 512 512" style="enable-background:new 0 0 512 512;" xml:space="preserve">
<g>
	<path style="fill:#E64C3C;" d="M406.069,512H105.931C47.431,512,0,464.569,0,406.069V105.931C0,47.431,47.431,0,105.931,0h300.138   C464.569,0,512,47.431,512,105.931v300.138C512,464.569,464.569,512,406.069,512"/>
	<g>
		<path style="fill:#FFFFFF;" d="M141.241,353.103c0,4.882-3.955,8.828-8.828,8.828c-4.873,0-8.828-3.946-8.828-8.828    c0-4.882,3.955-8.828,8.828-8.828C137.287,344.276,141.241,348.222,141.241,353.103"/>
		<path style="fill:#FFFFFF;" d="M132.414,326.621c-4.873,0-8.828-3.946-8.828-8.828V176.552c0-4.882,3.955-8.828,8.828-8.828    c4.873,0,8.828,3.946,8.828,8.828v141.241C141.241,322.675,137.287,326.621,132.414,326.621"/>
		<path style="fill:#FFFFFF;" d="M282.483,264.828H176.552c-4.873,0-8.828-3.946-8.828-8.828s3.955-8.828,8.828-8.828h105.931    c4.873,0,8.828,3.946,8.828,8.828S287.356,264.828,282.483,264.828"/>
		<path style="fill:#FFFFFF;" d="M282.483,300.138H176.552c-4.873,0-8.828-3.946-8.828-8.828c0-4.882,3.955-8.828,8.828-8.828    h105.931c4.873,0,8.828,3.946,8.828,8.828C291.31,296.192,287.356,300.138,282.483,300.138"/>
		<path style="fill:#FFFFFF;" d="M423.724,264.828H317.793c-4.873,0-8.828-3.946-8.828-8.828s3.955-8.828,8.828-8.828h105.931    c4.873,0,8.828,3.946,8.828,8.828S428.597,264.828,423.724,264.828"/>
		<path style="fill:#FFFFFF;" d="M423.724,300.138H317.793c-4.873,0-8.828-3.946-8.828-8.828c0-4.882,3.955-8.828,8.828-8.828    h105.931c4.873,0,8.828,3.946,8.828,8.828C432.552,296.192,428.597,300.138,423.724,300.138"/>
	</g>
</g>
<g>
</g>
<g>
</g>
<g>
</g>
<g>
</g>
<g>
</g>
<g>
</g>
<g>
</g>
<g>
</g>
<g>
</g>
<g>
</g>
<g>
</g>
<g>
</g>
<g>
</g>
<g>
</g>
<g>
</g>
</svg>
