<?xml version="1.0" encoding="iso-8859-1"?>
<!-- Generator: Adobe Illustrator 19.0.0, SVG Export Plug-In . SVG Version: 6.00 Build 0)  -->
<svg xmlns="http://www.w3.org/2000/svg" xmlns:xlink="http://www.w3.org/1999/xlink" version="1.1" id="Layer_1" x="0px" y="0px" viewBox="0 0 512 512" style="enable-background:new 0 0 512 512;" xml:space="preserve">
<g>
	<g>
		<path style="fill:#BDC3C7;" d="M61.793,132.414v-17.655c0-4.882,3.955-8.828,8.828-8.828s8.828,3.946,8.828,8.828v17.655    c0,4.882-3.955,8.828-8.828,8.828S61.793,137.295,61.793,132.414 M61.793,194.207v-17.655c0-4.882,3.955-8.828,8.828-8.828    s8.828,3.946,8.828,8.828v17.655c0,4.882-3.955,8.828-8.828,8.828S61.793,199.089,61.793,194.207 M61.793,256v-17.655    c0-4.882,3.955-8.828,8.828-8.828s8.828,3.946,8.828,8.828V256c0,4.882-3.955,8.828-8.828,8.828S61.793,260.882,61.793,256     M61.793,317.793v-17.655c0-4.882,3.955-8.828,8.828-8.828s8.828,3.946,8.828,8.828v17.655c0,4.882-3.955,8.828-8.828,8.828    S61.793,322.675,61.793,317.793 M61.793,370.759v-8.828c0-4.882,3.955-8.828,8.828-8.828s8.828,3.946,8.828,8.828v8.828    c0,4.882-3.955,8.828-8.828,8.828S61.793,375.64,61.793,370.759"/>
		<path style="fill:#BDC3C7;" d="M432.552,158.897v-17.655c0-4.882,3.955-8.828,8.828-8.828s8.828,3.946,8.828,8.828v17.655    c0,4.882-3.955,8.828-8.828,8.828S432.552,163.778,432.552,158.897 M432.552,220.69v-17.655c0-4.882,3.955-8.828,8.828-8.828    s8.828,3.946,8.828,8.828v17.655c0,4.882-3.955,8.828-8.828,8.828S432.552,225.571,432.552,220.69 M432.552,282.483v-17.655    c0-4.882,3.955-8.828,8.828-8.828s8.828,3.946,8.828,8.828v17.655c0,4.882-3.955,8.828-8.828,8.828    S432.552,287.364,432.552,282.483 M432.552,344.276v-17.655c0-4.882,3.955-8.828,8.828-8.828s8.828,3.946,8.828,8.828v17.655    c0,4.882-3.955,8.828-8.828,8.828S432.552,349.158,432.552,344.276 M432.552,397.241v-8.828c0-4.882,3.955-8.828,8.828-8.828    s8.828,3.946,8.828,8.828v8.828c0,4.882-3.955,8.828-8.828,8.828S432.552,402.123,432.552,397.241"/>
		<path style="fill:#BDC3C7;" d="M353.103,70.621c0-4.882,3.955-8.828,8.828-8.828h8.828c4.873,0,8.828,3.946,8.828,8.828    c0,4.882-3.955,8.828-8.828,8.828h-8.828C357.058,79.448,353.103,75.502,353.103,70.621 M291.31,70.621    c0-4.882,3.955-8.828,8.828-8.828h17.655c4.873,0,8.828,3.946,8.828,8.828c0,4.882-3.955,8.828-8.828,8.828h-17.655    C295.265,79.448,291.31,75.502,291.31,70.621 M229.517,70.621c0-4.882,3.955-8.828,8.828-8.828H256    c4.873,0,8.828,3.946,8.828,8.828c0,4.882-3.955,8.828-8.828,8.828h-17.655C233.472,79.448,229.517,75.502,229.517,70.621     M167.724,70.621c0-4.882,3.955-8.828,8.828-8.828h17.655c4.873,0,8.828,3.946,8.828,8.828c0,4.882-3.955,8.828-8.828,8.828    h-17.655C171.679,79.448,167.724,75.502,167.724,70.621 M105.931,70.621c0-4.882,3.955-8.828,8.828-8.828h17.655    c4.873,0,8.828,3.946,8.828,8.828c0,4.882-3.955,8.828-8.828,8.828h-17.655C109.886,79.448,105.931,75.502,105.931,70.621"/>
		<path style="fill:#BDC3C7;" d="M379.586,441.379c0-4.882,3.955-8.828,8.828-8.828h8.828c4.873,0,8.828,3.946,8.828,8.828    c0,4.882-3.955,8.828-8.828,8.828h-8.828C383.541,450.207,379.586,446.261,379.586,441.379 M317.793,441.379    c0-4.882,3.955-8.828,8.828-8.828h17.655c4.873,0,8.828,3.946,8.828,8.828c0,4.882-3.955,8.828-8.828,8.828h-17.655    C321.748,450.207,317.793,446.261,317.793,441.379 M256,441.379c0-4.882,3.955-8.828,8.828-8.828h17.655    c4.873,0,8.828,3.946,8.828,8.828c0,4.882-3.955,8.828-8.828,8.828h-17.655C259.955,450.207,256,446.261,256,441.379     M194.207,441.379c0-4.882,3.955-8.828,8.828-8.828h17.655c4.873,0,8.828,3.946,8.828,8.828c0,4.882-3.955,8.828-8.828,8.828    h-17.655C198.162,450.207,194.207,446.261,194.207,441.379 M132.414,441.379c0-4.882,3.955-8.828,8.828-8.828h17.655    c4.873,0,8.828,3.946,8.828,8.828c0,4.882-3.955,8.828-8.828,8.828h-17.655C136.369,450.207,132.414,446.261,132.414,441.379"/>
	</g>
	<path style="fill:#556080;" d="M158.897,361.931c2.26,0,4.52-0.865,6.241-2.586l132.414-132.414c3.452-3.452,3.452-9.031,0-12.482   s-9.031-3.452-12.482,0L152.655,346.862c-3.452,3.452-3.452,9.031,0,12.482C154.377,361.066,156.637,361.931,158.897,361.931"/>
	<path style="fill:#8697CB;" d="M338.035,279.896L232.104,173.965c-2.525-2.525-3.284-6.321-1.916-9.622s4.59-5.447,8.157-5.447   h105.931c4.873,0,8.828,3.946,8.828,8.828v105.931c0,3.566-2.154,6.788-5.447,8.157c-1.095,0.459-2.242,0.671-3.381,0.671   C341.981,282.483,339.721,281.582,338.035,279.896"/>
	<g>
		<polygon style="fill:#26B99A;" points="0,512 141.241,512 141.241,370.759 0,370.759   "/>
		<polygon style="fill:#26B99A;" points="370.759,141.241 512,141.241 512,0 370.759,0   "/>
		<polygon style="fill:#26B99A;" points="26.483,114.759 114.759,114.759 114.759,26.483 26.483,26.483   "/>
		<polygon style="fill:#26B99A;" points="397.241,485.517 485.517,485.517 485.517,397.241 397.241,397.241   "/>
	</g>
</g>
<g>
</g>
<g>
</g>
<g>
</g>
<g>
</g>
<g>
</g>
<g>
</g>
<g>
</g>
<g>
</g>
<g>
</g>
<g>
</g>
<g>
</g>
<g>
</g>
<g>
</g>
<g>
</g>
<g>
</g>
</svg>
