<?xml version="1.0" encoding="iso-8859-1"?>
<!-- Generator: Adobe Illustrator 19.0.0, SVG Export Plug-In . SVG Version: 6.00 Build 0)  -->
<svg xmlns="http://www.w3.org/2000/svg" xmlns:xlink="http://www.w3.org/1999/xlink" version="1.1" id="Layer_1" x="0px" y="0px" viewBox="0 0 512 512" style="enable-background:new 0 0 512 512;" xml:space="preserve">
<g>
	<g>
		<path style="fill:#BDC3C7;" d="M441.379,141.241c-4.873,0-8.828-3.946-8.828-8.828v-17.655c0-4.882,3.955-8.828,8.828-8.828    s8.828,3.946,8.828,8.828v17.655C450.207,137.295,446.252,141.241,441.379,141.241 M441.379,203.034    c-4.873,0-8.828-3.946-8.828-8.828v-17.655c0-4.882,3.955-8.828,8.828-8.828s8.828,3.946,8.828,8.828v17.655    C450.207,199.089,446.252,203.034,441.379,203.034 M441.379,264.828c-4.873,0-8.828-3.946-8.828-8.828v-17.655    c0-4.882,3.955-8.828,8.828-8.828s8.828,3.946,8.828,8.828V256C450.207,260.882,446.252,264.828,441.379,264.828 M441.379,326.621    c-4.873,0-8.828-3.946-8.828-8.828v-17.655c0-4.882,3.955-8.828,8.828-8.828s8.828,3.946,8.828,8.828v17.655    C450.207,322.675,446.252,326.621,441.379,326.621 M441.379,379.586c-4.873,0-8.828-3.946-8.828-8.828v-8.828    c0-4.882,3.955-8.828,8.828-8.828s8.828,3.946,8.828,8.828v8.828C450.207,375.64,446.252,379.586,441.379,379.586"/>
		<path style="fill:#BDC3C7;" d="M70.621,167.724c-4.873,0-8.828-3.946-8.828-8.828v-17.655c0-4.882,3.955-8.828,8.828-8.828    s8.828,3.946,8.828,8.828v17.655C79.448,163.778,75.494,167.724,70.621,167.724 M70.621,229.517c-4.873,0-8.828-3.946-8.828-8.828    v-17.655c0-4.882,3.955-8.828,8.828-8.828s8.828,3.946,8.828,8.828v17.655C79.448,225.571,75.494,229.517,70.621,229.517     M70.621,291.31c-4.873,0-8.828-3.946-8.828-8.828v-17.655c0-4.882,3.955-8.828,8.828-8.828s8.828,3.946,8.828,8.828v17.655    C79.448,287.364,75.494,291.31,70.621,291.31 M70.621,353.103c-4.873,0-8.828-3.946-8.828-8.828v-17.655    c0-4.882,3.955-8.828,8.828-8.828s8.828,3.946,8.828,8.828v17.655C79.448,349.158,75.494,353.103,70.621,353.103 M70.621,406.069    c-4.873,0-8.828-3.946-8.828-8.828v-8.828c0-4.882,3.955-8.828,8.828-8.828s8.828,3.946,8.828,8.828v8.828    C79.448,402.123,75.494,406.069,70.621,406.069"/>
		<path style="fill:#BDC3C7;" d="M150.069,79.448h-8.828c-4.873,0-8.828-3.946-8.828-8.828c0-4.882,3.955-8.828,8.828-8.828h8.828    c4.873,0,8.828,3.946,8.828,8.828C158.897,75.502,154.942,79.448,150.069,79.448 M211.862,79.448h-17.655    c-4.873,0-8.828-3.946-8.828-8.828c0-4.882,3.955-8.828,8.828-8.828h17.655c4.873,0,8.828,3.946,8.828,8.828    C220.69,75.502,216.735,79.448,211.862,79.448 M273.655,79.448H256c-4.873,0-8.828-3.946-8.828-8.828    c0-4.882,3.955-8.828,8.828-8.828h17.655c4.873,0,8.828,3.946,8.828,8.828C282.483,75.502,278.528,79.448,273.655,79.448     M335.448,79.448h-17.655c-4.873,0-8.828-3.946-8.828-8.828c0-4.882,3.955-8.828,8.828-8.828h17.655    c4.873,0,8.828,3.946,8.828,8.828C344.276,75.502,340.321,79.448,335.448,79.448 M397.241,79.448h-17.655    c-4.873,0-8.828-3.946-8.828-8.828c0-4.882,3.955-8.828,8.828-8.828h17.655c4.873,0,8.828,3.946,8.828,8.828    C406.069,75.502,402.114,79.448,397.241,79.448"/>
		<path style="fill:#BDC3C7;" d="M123.586,450.207h-8.828c-4.873,0-8.828-3.946-8.828-8.828c0-4.882,3.955-8.828,8.828-8.828h8.828    c4.873,0,8.828,3.946,8.828,8.828C132.414,446.261,128.459,450.207,123.586,450.207 M185.379,450.207h-17.655    c-4.873,0-8.828-3.946-8.828-8.828c0-4.882,3.955-8.828,8.828-8.828h17.655c4.873,0,8.828,3.946,8.828,8.828    C194.207,446.261,190.252,450.207,185.379,450.207 M247.172,450.207h-17.655c-4.873,0-8.828-3.946-8.828-8.828    c0-4.882,3.955-8.828,8.828-8.828h17.655c4.873,0,8.828,3.946,8.828,8.828C256,446.261,252.045,450.207,247.172,450.207     M308.966,450.207H291.31c-4.873,0-8.828-3.946-8.828-8.828c0-4.882,3.955-8.828,8.828-8.828h17.655    c4.873,0,8.828,3.946,8.828,8.828C317.793,446.261,313.838,450.207,308.966,450.207 M370.759,450.207h-17.655    c-4.873,0-8.828-3.946-8.828-8.828c0-4.882,3.955-8.828,8.828-8.828h17.655c4.873,0,8.828,3.946,8.828,8.828    C379.586,446.261,375.631,450.207,370.759,450.207"/>
	</g>
	<path style="fill:#556080;" d="M353.103,361.931c-2.26,0-4.52-0.865-6.241-2.586L214.449,226.931   c-3.452-3.452-3.452-9.031,0-12.482s9.031-3.452,12.482,0l132.414,132.414c3.452,3.452,3.452,9.031,0,12.482   C357.623,361.066,355.363,361.931,353.103,361.931"/>
	<path style="fill:#8697CB;" d="M167.724,282.483c-1.139,0-2.286-0.212-3.381-0.671c-3.293-1.359-5.447-4.59-5.447-8.157V167.724   c0-4.882,3.955-8.828,8.828-8.828h105.931c3.566,0,6.788,2.145,8.157,5.447c1.368,3.302,0.609,7.097-1.916,9.622L173.965,279.896   C172.279,281.582,170.019,282.483,167.724,282.483"/>
	<g>
		<polygon style="fill:#26B99A;" points="370.759,512 512,512 512,370.759 370.759,370.759   "/>
		<polygon style="fill:#26B99A;" points="0,141.241 141.241,141.241 141.241,0 0,0   "/>
		<polygon style="fill:#26B99A;" points="397.241,114.759 485.517,114.759 485.517,26.483 397.241,26.483   "/>
		<polygon style="fill:#26B99A;" points="26.483,485.517 114.759,485.517 114.759,397.241 26.483,397.241   "/>
	</g>
</g>
<g>
</g>
<g>
</g>
<g>
</g>
<g>
</g>
<g>
</g>
<g>
</g>
<g>
</g>
<g>
</g>
<g>
</g>
<g>
</g>
<g>
</g>
<g>
</g>
<g>
</g>
<g>
</g>
<g>
</g>
</svg>
