<?xml version="1.0" encoding="iso-8859-1"?>
<!-- Generator: Adobe Illustrator 19.0.0, SVG Export Plug-In . SVG Version: 6.00 Build 0)  -->
<svg xmlns="http://www.w3.org/2000/svg" xmlns:xlink="http://www.w3.org/1999/xlink" version="1.1" id="Layer_1" x="0px" y="0px" viewBox="0 0 512 512" style="enable-background:new 0 0 512 512;" xml:space="preserve">
<g>
	<path style="fill:#4482C3;" d="M512,61.793v291.31c0,24.038-20.1,44.138-44.138,44.138h-256l-88.276,97.103v-97.103H44.138   C20.1,397.241,0,377.141,0,353.103V61.793c0-24.038,20.1-44.138,44.138-44.138h423.724C491.9,17.655,512,37.756,512,61.793"/>
	<g>
		<path style="fill:#FFFFFF;" d="M335.448,132.414H176.552c-4.882,0-8.828-3.946-8.828-8.828v-35.31    c0-4.882,3.946-8.828,8.828-8.828s8.828,3.946,8.828,8.828v26.483h141.241V88.276c0-4.882,3.946-8.828,8.828-8.828    c4.882,0,8.828,3.946,8.828,8.828v35.31C344.276,128.468,340.33,132.414,335.448,132.414"/>
		<path style="fill:#FFFFFF;" d="M335.448,291.31c-4.882,0-8.828-3.946-8.828-8.828V256H185.379v26.483    c0,4.882-3.946,8.828-8.828,8.828s-8.828-3.946-8.828-8.828v-35.31c0-4.882,3.946-8.828,8.828-8.828h158.897    c4.882,0,8.828,3.946,8.828,8.828v35.31C344.276,287.364,340.33,291.31,335.448,291.31"/>
		<path style="fill:#FFFFFF;" d="M167.724,167.724h-44.138c-4.882,0-8.828-3.946-8.828-8.828v-35.31    c0-4.882,3.946-8.828,8.828-8.828s8.828,3.946,8.828,8.828v26.483h35.31c4.882,0,8.828,3.946,8.828,8.828    S172.606,167.724,167.724,167.724"/>
		<path style="fill:#FFFFFF;" d="M123.586,256c-4.882,0-8.828-3.946-8.828-8.828v-35.31c0-4.882,3.946-8.828,8.828-8.828h44.138    c4.882,0,8.828,3.946,8.828,8.828c0,4.882-3.946,8.828-8.828,8.828h-35.31v26.483C132.414,252.054,128.468,256,123.586,256"/>
		<path style="fill:#FFFFFF;" d="M388.414,167.724h-44.138c-4.882,0-8.828-3.946-8.828-8.828s3.946-8.828,8.828-8.828h35.31v-26.483    c0-4.882,3.946-8.828,8.828-8.828c4.882,0,8.828,3.946,8.828,8.828v35.31C397.241,163.778,393.295,167.724,388.414,167.724"/>
		<path style="fill:#FFFFFF;" d="M388.414,256c-4.882,0-8.828-3.946-8.828-8.828V220.69h-35.31c-4.882,0-8.828-3.946-8.828-8.828    c0-4.882,3.946-8.828,8.828-8.828h44.138c4.882,0,8.828,3.946,8.828,8.828v35.31C397.241,252.054,393.295,256,388.414,256"/>
	</g>
</g>
<g>
</g>
<g>
</g>
<g>
</g>
<g>
</g>
<g>
</g>
<g>
</g>
<g>
</g>
<g>
</g>
<g>
</g>
<g>
</g>
<g>
</g>
<g>
</g>
<g>
</g>
<g>
</g>
<g>
</g>
</svg>
