<?xml version="1.0" encoding="iso-8859-1"?>
<!-- Generator: Adobe Illustrator 19.0.0, SVG Export Plug-In . SVG Version: 6.00 Build 0)  -->
<svg xmlns="http://www.w3.org/2000/svg" xmlns:xlink="http://www.w3.org/1999/xlink" version="1.1" id="Layer_1" x="0px" y="0px" viewBox="0 0 512 512" style="enable-background:new 0 0 512 512;" xml:space="preserve">
<g>
	<polygon style="fill:#BDC3C7;" points="406.069,105.931 300.138,105.931 300.138,0  "/>
	<polygon style="fill:#CC4B4C;" points="97.103,406.069 512,406.069 512,194.207 97.103,194.207  "/>
	<g>
		<path style="fill:#FFFFFF;" d="M326.621,379.586c-24.338,0-44.138-19.8-44.138-44.138c0-4.873,3.946-8.828,8.828-8.828    c4.882,0,8.828,3.955,8.828,8.828c0,14.601,11.882,26.483,26.483,26.483c14.601,0,26.483-11.882,26.483-26.483    s-11.882-26.483-26.483-26.483c-24.338,0-44.138-19.8-44.138-44.138c0-24.338,19.8-44.138,44.138-44.138    c24.338,0,44.138,19.8,44.138,44.138c0,4.873-3.946,8.828-8.828,8.828c-4.882,0-8.828-3.955-8.828-8.828    c0-14.601-11.882-26.483-26.483-26.483c-14.601,0-26.483,11.882-26.483,26.483c0,14.601,11.882,26.483,26.483,26.483    c24.338,0,44.138,19.8,44.138,44.138S350.958,379.586,326.621,379.586"/>
		<path style="fill:#FFFFFF;" d="M441.379,379.586c-24.338,0-44.138-19.8-44.138-44.138c0-4.873,3.946-8.828,8.828-8.828    c4.882,0,8.828,3.955,8.828,8.828c0,14.601,11.882,26.483,26.483,26.483s26.483-11.882,26.483-26.483    s-11.882-26.483-26.483-26.483c-24.338,0-44.138-19.8-44.138-44.138c0-24.338,19.8-44.138,44.138-44.138    s44.138,19.8,44.138,44.138c0,4.873-3.946,8.828-8.828,8.828c-4.882,0-8.828-3.955-8.828-8.828    c0-14.601-11.882-26.483-26.483-26.483s-26.483,11.882-26.483,26.483c0,14.601,11.882,26.483,26.483,26.483    c24.338,0,44.138,19.8,44.138,44.138S465.717,379.586,441.379,379.586"/>
		<path style="fill:#FFFFFF;" d="M203.034,379.586c-43.811,0-79.448-35.646-79.448-79.448s35.637-79.448,79.448-79.448    c18.008,0,35.646,6.188,49.664,17.434c3.805,3.046,4.414,8.607,1.359,12.403c-3.037,3.814-8.589,4.431-12.412,1.368    c-11.052-8.863-24.408-13.55-38.612-13.55c-34.066,0-61.793,27.719-61.793,61.793s27.727,61.793,61.793,61.793    c14.204,0,27.56-4.687,38.63-13.55c3.822-3.046,9.366-2.428,12.403,1.368c3.054,3.805,2.445,9.357-1.368,12.403    C238.68,373.398,221.034,379.586,203.034,379.586"/>
	</g>
	<polygon style="fill:#ECF0F1;" points="97.103,406.069 97.103,194.207 406.069,194.207 406.069,105.931 300.138,105.931 300.138,0    0,0 0,512 406.069,512 406.069,406.069  "/>
</g>
<g>
</g>
<g>
</g>
<g>
</g>
<g>
</g>
<g>
</g>
<g>
</g>
<g>
</g>
<g>
</g>
<g>
</g>
<g>
</g>
<g>
</g>
<g>
</g>
<g>
</g>
<g>
</g>
<g>
</g>
</svg>
