<?xml version="1.0" encoding="iso-8859-1"?>
<!-- Generator: Adobe Illustrator 19.0.0, SVG Export Plug-In . SVG Version: 6.00 Build 0)  -->
<svg xmlns="http://www.w3.org/2000/svg" xmlns:xlink="http://www.w3.org/1999/xlink" version="1.1" id="Layer_1" x="0px" y="0px" viewBox="0 0 512.001 512.001" style="enable-background:new 0 0 512.001 512.001;" xml:space="preserve">
<g>
	<path style="fill:#4482C3;" d="M339.861,0c-95.073,0-172.138,69.094-172.138,154.324c0,31.417,10.487,60.619,28.469,84.992   c-2.366,28.169-9.154,67.84-28.469,87.146c0,0,59.021-8.271,98.993-32.415c22.201,9.357,46.98,14.618,73.145,14.618   c95.073,0,172.138-69.094,172.138-154.342C511.999,69.094,434.934,0,339.861,0"/>
	<path style="fill:#F0C419;" d="M232.353,486.198c-17.62-10.814-47.925-53.645-47.925-53.645h20.1h30.155h5.138   c10.893,0,22.263-7.009,24.611-18.538c0.565-2.834,0.591-5.402-0.371-7.247c-9.569-18.264-28.31-51.95-35.902-95.258   c-31.232,10.831-60.434,14.954-60.434,14.954c19.315-19.306,26.103-58.977,28.46-87.146c-9.922-13.453-17.452-28.425-22.307-44.376   c-11.282-5.729-24.505-9.419-39.698-9.56c-44.5,0.424-72.527,30.782-82.308,56.011c-5.464,14.071-7.804,29.422-8.686,44.818   c-3.16,55.49-27.524,98.869-38.886,120.558c-0.962,1.845-0.945,4.414-0.371,7.247c2.348,11.529,13.709,18.538,24.611,18.538h5.138   h30.146h20.109c0,0-30.314,42.831-47.934,53.645c-10.92,6.691-27.436,15.236-35.999,25.803h264.828   C256.258,501.434,243.272,492.889,232.353,486.198"/>
	<g>
		<path style="fill:#FFFFFF;" d="M291.318,238.345c-2.631,0-5.235-1.174-6.974-3.407l-61.793-79.448    c-2.481-3.187-2.481-7.654,0-10.84l61.793-79.448c2.993-3.831,8.545-4.555,12.385-1.545c3.849,2.993,4.546,8.536,1.545,12.385    l-57.574,74.028l57.574,74.028c3.001,3.849,2.304,9.393-1.545,12.385C295.123,237.745,293.207,238.345,291.318,238.345"/>
		<path style="fill:#FFFFFF;" d="M397.232,238.345c-1.889,0-3.805-0.6-5.411-1.863c-3.849-2.993-4.546-8.536-1.545-12.385    l57.574-74.028l-57.574-74.028c-3.001-3.849-2.304-9.393,1.545-12.385c3.858-3.01,9.393-2.286,12.385,1.545l61.793,79.448    c2.481,3.187,2.481,7.654,0,10.84l-61.793,79.448C402.466,237.171,399.862,238.345,397.232,238.345"/>
		<path style="fill:#FFFFFF;" d="M326.629,247.172c-0.574,0-1.156-0.053-1.739-0.177c-4.776-0.953-7.883-5.597-6.921-10.381    l35.31-176.552c0.945-4.785,5.614-7.927,10.381-6.921c4.776,0.953,7.883,5.597,6.921,10.381l-35.31,176.552    C334.441,244.277,330.751,247.172,326.629,247.172"/>
	</g>
</g>
<g>
</g>
<g>
</g>
<g>
</g>
<g>
</g>
<g>
</g>
<g>
</g>
<g>
</g>
<g>
</g>
<g>
</g>
<g>
</g>
<g>
</g>
<g>
</g>
<g>
</g>
<g>
</g>
<g>
</g>
</svg>
