<?xml version="1.0" encoding="iso-8859-1"?>
<!-- Generator: Adobe Illustrator 19.0.0, SVG Export Plug-In . SVG Version: 6.00 Build 0)  -->
<svg xmlns="http://www.w3.org/2000/svg" xmlns:xlink="http://www.w3.org/1999/xlink" version="1.1" id="Layer_1" x="0px" y="0px" viewBox="0 0 512.002 512.002" style="enable-background:new 0 0 512.002 512.002;" xml:space="preserve">
<g>
	<path style="fill:#4482C3;" d="M224.596,490.948l-36.873-23.57c-9.163-4.996-19.818-22.272-19.818-32.706v-28.601   c0,0,25.45-16.825,33.271-50.873c6.479-4.193,10.805-11.441,10.805-19.686v-21.389l-25.114-69.606v-0.018   c-10.911-15.298-19.006-32.371-23.605-50.635c-12.129-5.138-27.789-8.483-48.322-8.483c-95.356,0-88.276,70.621-88.276,70.621   v27.595c-4.758,4.299-8.766,13.727-8.766,20.612v31.303c0,8.245,4.334,15.492,10.823,19.686   c7.812,34.048,33.254,50.873,33.254,50.873v28.601c0,10.434-10.655,27.71-19.809,32.706l-36.873,23.57   c-9.622,6.144-5.261,21.054,6.153,21.054h206.998C229.866,512.002,234.218,497.092,224.596,490.948"/>
	<path style="fill:#E57E25;" d="M335.45,0c-97.51,0-176.552,71.142-176.552,158.897c0,31.55,10.346,60.875,27.966,85.601   c-2.728,27.701-9.754,63.912-27.966,82.123c0,0,52.286-7.345,91.772-28.345c25.167,12.42,54.051,19.518,84.78,19.518   c97.51,0,176.552-71.142,176.552-158.897S432.959,0,335.45,0"/>
	<g>
		<path style="fill:#FFFFFF;" d="M282.493,247.172c-2.631,0-5.235-1.174-6.974-3.407l-61.793-79.448    c-2.481-3.187-2.481-7.654,0-10.84l61.793-79.448c3.001-3.831,8.536-4.555,12.385-1.545c3.849,2.993,4.546,8.536,1.545,12.385    l-57.574,74.028l57.574,74.028c3.001,3.849,2.304,9.393-1.545,12.385C286.298,246.572,284.382,247.172,282.493,247.172"/>
		<path style="fill:#FFFFFF;" d="M388.406,247.172c-1.889,0-3.805-0.6-5.411-1.863c-3.849-2.993-4.546-8.536-1.545-12.385    l57.574-74.028L381.45,84.868c-3.001-3.849-2.304-9.393,1.545-12.385c3.858-3.01,9.401-2.286,12.385,1.545l61.793,79.448    c2.481,3.187,2.481,7.654,0,10.84l-61.793,79.448C393.641,245.998,391.037,247.172,388.406,247.172"/>
		<path style="fill:#FFFFFF;" d="M317.803,256c-0.574,0-1.156-0.053-1.739-0.177c-4.776-0.953-7.883-5.597-6.921-10.381    l35.31-176.552c0.953-4.793,5.597-7.918,10.381-6.921c4.776,0.953,7.883,5.597,6.921,10.381l-35.31,176.552    C325.616,253.105,321.926,256,317.803,256"/>
	</g>
</g>
<g>
</g>
<g>
</g>
<g>
</g>
<g>
</g>
<g>
</g>
<g>
</g>
<g>
</g>
<g>
</g>
<g>
</g>
<g>
</g>
<g>
</g>
<g>
</g>
<g>
</g>
<g>
</g>
<g>
</g>
</svg>
