<?xml version="1.0" encoding="iso-8859-1"?>
<!-- Generator: Adobe Illustrator 19.0.0, SVG Export Plug-In . SVG Version: 6.00 Build 0)  -->
<svg xmlns="http://www.w3.org/2000/svg" xmlns:xlink="http://www.w3.org/1999/xlink" version="1.1" id="Layer_1" x="0px" y="0px" viewBox="0 0 512 512" style="enable-background:new 0 0 512 512;" xml:space="preserve">
<g>
	<path style="fill:#ECF0F1;" d="M494.345,512H17.655C7.91,512,0,504.09,0,494.345V70.621h512v423.724   C512,504.09,504.09,512,494.345,512"/>
	<path style="fill:#35495E;" d="M512,70.621H0V17.655C0,7.91,7.91,0,17.655,0h476.69C504.09,0,512,7.91,512,17.655V70.621z"/>
	<path style="fill:#E64C3C;" d="M44.138,35.31c0,4.882-3.946,8.828-8.828,8.828s-8.828-3.946-8.828-8.828s3.946-8.828,8.828-8.828   S44.138,30.429,44.138,35.31"/>
	<path style="fill:#F0C419;" d="M79.448,35.31c0,4.882-3.946,8.828-8.828,8.828c-4.882,0-8.828-3.946-8.828-8.828   s3.946-8.828,8.828-8.828C75.502,26.483,79.448,30.429,79.448,35.31"/>
	<path style="fill:#24AE5F;" d="M114.759,35.31c0,4.882-3.946,8.828-8.828,8.828c-4.882,0-8.828-3.946-8.828-8.828   s3.946-8.828,8.828-8.828C110.813,26.483,114.759,30.429,114.759,35.31"/>
	<path style="fill:#0096E6;" d="M105.931,123.586H44.138c-4.882,0-8.828-3.946-8.828-8.828s3.946-8.828,8.828-8.828h61.793   c4.882,0,8.828,3.946,8.828,8.828S110.813,123.586,105.931,123.586"/>
	<path style="fill:#E64C3C;" d="M273.655,123.586H158.897c-4.882,0-8.828-3.946-8.828-8.828s3.946-8.828,8.828-8.828h114.759   c4.882,0,8.828,3.946,8.828,8.828S278.537,123.586,273.655,123.586"/>
	<path style="fill:#F0C419;" d="M158.897,176.552H44.138c-4.882,0-8.828-3.946-8.828-8.828s3.946-8.828,8.828-8.828h114.759   c4.882,0,8.828,3.946,8.828,8.828S163.778,176.552,158.897,176.552"/>
	<path style="fill:#24AE5F;" d="M247.172,176.552h-35.31c-4.882,0-8.828-3.946-8.828-8.828s3.946-8.828,8.828-8.828h35.31   c4.882,0,8.828,3.946,8.828,8.828S252.054,176.552,247.172,176.552"/>
	<path style="fill:#8697CB;" d="M105.931,229.517H44.138c-4.882,0-8.828-3.946-8.828-8.828s3.946-8.828,8.828-8.828h61.793   c4.882,0,8.828,3.946,8.828,8.828S110.813,229.517,105.931,229.517"/>
	<path style="fill:#E64C3C;" d="M247.172,229.517h-88.276c-4.882,0-8.828-3.946-8.828-8.828s3.946-8.828,8.828-8.828h88.276   c4.882,0,8.828,3.946,8.828,8.828S252.054,229.517,247.172,229.517"/>
	<path style="fill:#24AE5F;" d="M158.897,282.483H44.138c-4.882,0-8.828-3.946-8.828-8.828s3.946-8.828,8.828-8.828h114.759   c4.882,0,8.828,3.946,8.828,8.828S163.778,282.483,158.897,282.483"/>
	<path style="fill:#F0C419;" d="M247.172,282.483h-35.31c-4.882,0-8.828-3.946-8.828-8.828s3.946-8.828,8.828-8.828h35.31   c4.882,0,8.828,3.946,8.828,8.828S252.054,282.483,247.172,282.483"/>
	<path style="fill:#9777A8;" d="M44.138,476.69c-4.882,0-8.828-3.946-8.828-8.828c0-4.882,3.946-8.828,8.828-8.828   c9.737,0,17.655-7.918,17.655-17.655v-26.483c0-2.348,0.927-4.59,2.586-6.241l11.414-11.414L64.38,385.827   c-1.668-1.66-2.595-3.911-2.586-6.268l0.071-26.483c0-9.71-7.954-17.629-17.726-17.629c-4.882,0-8.828-3.946-8.828-8.828   c0-4.882,3.946-8.828,8.828-8.828c19.509,0,35.381,15.837,35.381,35.31l-0.062,22.837L94.517,391c3.452,3.452,3.452,9.031,0,12.482   l-15.069,15.069v22.828C79.448,460.853,63.612,476.69,44.138,476.69"/>
</g>
<g>
</g>
<g>
</g>
<g>
</g>
<g>
</g>
<g>
</g>
<g>
</g>
<g>
</g>
<g>
</g>
<g>
</g>
<g>
</g>
<g>
</g>
<g>
</g>
<g>
</g>
<g>
</g>
<g>
</g>
</svg>
