<?xml version="1.0" encoding="iso-8859-1"?>
<!-- Generator: Adobe Illustrator 19.0.0, SVG Export Plug-In . SVG Version: 6.00 Build 0)  -->
<svg xmlns="http://www.w3.org/2000/svg" xmlns:xlink="http://www.w3.org/1999/xlink" version="1.1" id="Layer_1" x="0px" y="0px" viewBox="0 0 512 512" style="enable-background:new 0 0 512 512;" xml:space="preserve">
<g>
	<path style="fill:#BDC3C7;" d="M308.145,406.069c-1.836,5.12-6.691,8.828-12.42,8.828h-70.621c-5.729,0-10.593-3.708-12.42-8.828   H5.102c-2.816,0-5.102,2.286-5.102,5.102v25.106c0,2.816,2.286,5.102,5.102,5.102h501.795c2.816,0,5.102-2.286,5.102-5.102v-25.106   c0-2.816-2.286-5.102-5.102-5.102H308.145z"/>
	<path style="fill:#ECF0F1;" d="M212.68,406.069c1.836,5.12,6.691,8.828,12.42,8.828h70.621c5.729,0,10.593-3.708,12.42-8.828h186.2   V97.103c0-14.627-11.855-26.483-26.483-26.483H44.134c-14.627,0-26.483,11.855-26.483,26.483v308.966H212.68z"/>
	<polygon style="fill:#35495E;" points="52.964,370.759 459.033,370.759 459.033,105.931 52.964,105.931  "/>
	<path style="fill:#F0C419;" d="M211.86,282.483c0,4.882-3.955,8.828-8.828,8.828s-8.828-3.946-8.828-8.828s3.955-8.828,8.828-8.828   S211.86,277.601,211.86,282.483"/>
	<g>
		<path style="fill:#8697CB;" d="M167.727,291.31c-2.586,0-5.146-1.13-6.894-3.31l-35.31-44.076    c-2.578-3.222-2.586-7.804-0.009-11.026l35.31-44.2c3.046-3.822,8.598-4.44,12.412-1.386c3.805,3.037,4.423,8.589,1.386,12.403    l-30.905,38.682l30.897,38.568c3.046,3.805,2.436,9.366-1.368,12.403C171.611,290.684,169.66,291.31,167.727,291.31"/>
		<path style="fill:#8697CB;" d="M344.27,291.31c-1.933,0-3.884-0.627-5.517-1.942c-3.805-3.037-4.414-8.598-1.368-12.403    l30.897-38.568l-30.905-38.682c-3.037-3.814-2.419-9.366,1.386-12.403c3.814-3.037,9.366-2.428,12.412,1.386l35.31,44.2    c2.578,3.222,2.569,7.804-0.009,11.026L351.164,288C349.416,290.18,346.856,291.31,344.27,291.31"/>
	</g>
	<path style="fill:#F0C419;" d="M203.033,256c-4.873,0-8.828-3.946-8.828-8.828v-52.966c0-4.882,3.955-8.828,8.828-8.828   s8.828,3.946,8.828,8.828v52.966C211.86,252.054,207.906,256,203.033,256"/>
	<g>
		<path style="fill:#FFFFFF;" d="M255.998,291.31h-17.655c-4.873,0-8.828-3.946-8.828-8.828s3.955-8.828,8.828-8.828h17.655    c4.873,0,8.828,3.946,8.828,8.828S260.871,291.31,255.998,291.31"/>
		<path style="fill:#FFFFFF;" d="M308.964,291.31h-17.655c-4.873,0-8.828-3.946-8.828-8.828s3.955-8.828,8.828-8.828h17.655    c4.873,0,8.828,3.946,8.828,8.828S313.837,291.31,308.964,291.31"/>
	</g>
</g>
<g>
</g>
<g>
</g>
<g>
</g>
<g>
</g>
<g>
</g>
<g>
</g>
<g>
</g>
<g>
</g>
<g>
</g>
<g>
</g>
<g>
</g>
<g>
</g>
<g>
</g>
<g>
</g>
<g>
</g>
</svg>
