<?xml version="1.0" encoding="iso-8859-1"?>
<!-- Generator: Adobe Illustrator 19.0.0, SVG Export Plug-In . SVG Version: 6.00 Build 0)  -->
<svg xmlns="http://www.w3.org/2000/svg" xmlns:xlink="http://www.w3.org/1999/xlink" version="1.1" id="Layer_1" x="0px" y="0px" viewBox="0 0 512 512" style="enable-background:new 0 0 512 512;" xml:space="preserve">
<g>
	<path style="fill:#ECF0F1;" d="M415.797,512H96.212c-14.133,0-25.591-11.705-25.591-26.147V26.147C70.621,11.705,82.079,0,96.212,0   h319.585c14.133,0,25.582,11.705,25.582,26.147v459.705C441.379,500.295,429.93,512,415.797,512"/>
	<polygon style="fill:#35495E;" points="105.935,459.034 406.073,459.034 406.073,52.966 105.935,52.966  "/>
	<g>
		<path style="fill:#BDC3C7;" d="M264.831,35.31h-8.828c-4.873,0-8.828-3.946-8.828-8.828s3.955-8.828,8.828-8.828h8.828    c4.873,0,8.828,3.946,8.828,8.828S269.704,35.31,264.831,35.31"/>
		<path style="fill:#BDC3C7;" d="M282.486,485.517c0,14.627-11.855,26.483-26.483,26.483c-14.627,0-26.483-11.855-26.483-26.483    s11.855-26.483,26.483-26.483C270.631,459.034,282.486,470.89,282.486,485.517"/>
	</g>
	<path style="fill:#F0C419;" d="M220.693,176.552c0,4.882-3.955,8.828-8.828,8.828s-8.828-3.946-8.828-8.828   s3.955-8.828,8.828-8.828S220.693,171.67,220.693,176.552"/>
	<path style="fill:#8697CB;" d="M176.56,185.379c-2.586,0-5.146-1.13-6.894-3.31l-35.31-44.076   c-2.578-3.222-2.586-7.804-0.009-11.026l35.31-44.2c3.046-3.814,8.598-4.44,12.412-1.386c3.805,3.037,4.423,8.589,1.386,12.403   l-30.905,38.682l30.897,38.568c3.046,3.805,2.436,9.366-1.368,12.403C180.444,184.753,178.493,185.379,176.56,185.379"/>
	<path style="fill:#F0C419;" d="M211.866,150.069c-4.873,0-8.828-3.946-8.828-8.828V88.276c0-4.882,3.955-8.828,8.828-8.828   s8.828,3.946,8.828,8.828v52.966C220.693,146.123,216.738,150.069,211.866,150.069"/>
	<g>
		<path style="fill:#FFFFFF;" d="M264.831,185.379h-17.655c-4.873,0-8.828-3.946-8.828-8.828s3.955-8.828,8.828-8.828h17.655    c4.873,0,8.828,3.946,8.828,8.828S269.704,185.379,264.831,185.379"/>
		<path style="fill:#FFFFFF;" d="M317.797,185.379h-17.655c-4.873,0-8.828-3.946-8.828-8.828s3.955-8.828,8.828-8.828h17.655    c4.873,0,8.828,3.946,8.828,8.828S322.669,185.379,317.797,185.379"/>
	</g>
	<path style="fill:#26B99A;" d="M141.245,432.552c-4.873,0-8.828-3.946-8.828-8.828c0-4.882,3.955-8.828,8.828-8.828   c9.737,0,17.655-7.918,17.655-17.655v-26.483c0-2.348,0.927-4.59,2.586-6.241l11.414-11.414l-11.414-11.414   c-1.668-1.66-2.586-3.911-2.586-6.268l0.071-26.483c0-9.71-7.954-17.629-17.726-17.629c-4.873,0-8.828-3.946-8.828-8.828   s3.955-8.828,8.828-8.828c19.509,0,35.381,15.837,35.381,35.31l-0.062,22.837l15.06,15.06c3.452,3.452,3.452,9.031,0,12.482   l-15.069,15.069v22.828C176.555,416.715,160.719,432.552,141.245,432.552"/>
</g>
<g>
</g>
<g>
</g>
<g>
</g>
<g>
</g>
<g>
</g>
<g>
</g>
<g>
</g>
<g>
</g>
<g>
</g>
<g>
</g>
<g>
</g>
<g>
</g>
<g>
</g>
<g>
</g>
<g>
</g>
</svg>
