<?xml version="1.0" encoding="iso-8859-1"?>
<!-- Generator: Adobe Illustrator 19.0.0, SVG Export Plug-In . SVG Version: 6.00 Build 0)  -->
<svg xmlns="http://www.w3.org/2000/svg" xmlns:xlink="http://www.w3.org/1999/xlink" version="1.1" id="Layer_1" x="0px" y="0px" viewBox="0 0 512 512" style="enable-background:new 0 0 512 512;" xml:space="preserve">
<g>
	<path style="fill:#ECF0F1;" d="M494.345,512H17.655C7.91,512,0,504.09,0,494.345V70.621h512v423.724   C512,504.09,504.09,512,494.345,512"/>
	<path style="fill:#35495E;" d="M512,70.621H0V17.655C0,7.91,7.91,0,17.655,0h476.69C504.09,0,512,7.91,512,17.655V70.621z"/>
	<path style="fill:#E64C3C;" d="M44.138,35.31c0,4.882-3.955,8.828-8.828,8.828s-8.828-3.946-8.828-8.828s3.955-8.828,8.828-8.828   S44.138,30.429,44.138,35.31"/>
	<path style="fill:#F0C419;" d="M79.448,35.31c0,4.882-3.955,8.828-8.828,8.828s-8.828-3.946-8.828-8.828s3.955-8.828,8.828-8.828   S79.448,30.429,79.448,35.31"/>
	<path style="fill:#24AE5F;" d="M114.759,35.31c0,4.882-3.955,8.828-8.828,8.828c-4.873,0-8.828-3.946-8.828-8.828   s3.955-8.828,8.828-8.828C110.804,26.483,114.759,30.429,114.759,35.31"/>
	<g>
		<path style="fill:#35495E;" d="M308.987,158.897c0,4.882-3.946,8.828-8.828,8.828c-4.873,0-8.828-3.946-8.828-8.828    c0-4.882,3.955-8.828,8.828-8.828C305.041,150.069,308.987,154.015,308.987,158.897"/>
		<path style="fill:#35495E;" d="M79.448,256c-19.474,0-35.31-15.837-35.31-35.31c0-4.882,3.955-8.828,8.828-8.828    s8.828,3.946,8.828,8.828c0,9.737,7.918,17.655,17.655,17.655s17.655-7.918,17.655-17.655s-7.918-17.655-17.655-17.655    c-19.474,0-35.31-15.837-35.31-35.31s15.837-35.31,35.31-35.31s35.31,15.837,35.31,35.31c0,4.882-3.955,8.828-8.828,8.828    c-4.873,0-8.828-3.946-8.828-8.828c0-9.737-7.918-17.655-17.655-17.655s-17.655,7.918-17.655,17.655s7.918,17.655,17.655,17.655    c19.474,0,35.31,15.837,35.31,35.31S98.922,256,79.448,256"/>
		<path style="fill:#35495E;" d="M176.552,256c-24.338,0-44.138-19.8-44.138-44.138s19.8-44.138,44.138-44.138    c12.668,0,24.735,5.447,33.112,14.954c3.222,3.655,2.878,9.234-0.777,12.456c-3.672,3.24-9.242,2.878-12.465-0.777    c-5.032-5.703-12.279-8.978-19.871-8.978c-14.601,0-26.483,11.882-26.483,26.483c0,14.601,11.882,26.483,26.483,26.483    c7.592,0,14.839-3.266,19.871-8.978c3.231-3.655,8.801-4.008,12.465-0.768c3.646,3.231,3.999,8.81,0.768,12.465    C201.269,250.553,189.21,256,176.552,256"/>
		<path style="fill:#35495E;" d="M238.362,256c-4.873,0-8.828-3.946-8.828-8.828v-70.621c0-4.882,3.955-8.828,8.828-8.828    s8.828,3.946,8.828,8.828v70.621C247.19,252.054,243.235,256,238.362,256"/>
		<path style="fill:#35495E;" d="M238.362,211.862c-4.873,0-8.828-3.946-8.828-8.828c0-19.474,15.837-35.31,35.31-35.31    c4.873,0,8.828,3.946,8.828,8.828s-3.955,8.828-8.828,8.828c-9.737,0-17.655,7.918-17.655,17.655    C247.19,207.916,243.235,211.862,238.362,211.862"/>
		<path style="fill:#35495E;" d="M300.159,256c-4.873,0-8.828-3.946-8.828-8.828v-52.966c0-4.882,3.955-8.828,8.828-8.828    s8.828,3.946,8.828,8.828v52.966C308.987,252.054,305.032,256,300.159,256"/>
		<path style="fill:#35495E;" d="M335.469,256c-4.873,0-8.828-3.946-8.828-8.828v-88.276c0-4.882,3.955-8.828,8.828-8.828    c4.873,0,8.828,3.946,8.828,8.828v88.276C344.297,252.054,340.342,256,335.469,256"/>
		<path style="fill:#35495E;" d="M344.297,185.379h17.655c4.873,0,8.828-3.955,8.828-8.828c0-4.873-3.955-8.828-8.828-8.828h-17.655    V185.379z M361.952,203.034h-26.483c-4.873,0-8.828-3.946-8.828-8.828v-35.31c0-4.882,3.955-8.828,8.828-8.828h26.483    c14.601,0,26.483,11.882,26.483,26.483C388.435,191.153,376.553,203.034,361.952,203.034L361.952,203.034z"/>
		<path style="fill:#35495E;" d="M450.207,185.379h-35.31c-4.873,0-8.828-3.946-8.828-8.828s3.955-8.828,8.828-8.828h35.31    c4.873,0,8.828,3.946,8.828,8.828S455.08,185.379,450.207,185.379"/>
		<path style="fill:#35495E;" d="M459.034,256c-19.474,0-35.31-15.837-35.31-35.31v-70.621c0-4.882,3.955-8.828,8.828-8.828    s8.828,3.946,8.828,8.828v70.621c0,9.737,7.918,17.655,17.655,17.655c4.873,0,8.828,3.946,8.828,8.828S463.907,256,459.034,256"/>
	</g>
	<path style="fill:#556080;" d="M361.931,467.603c-2.26,0-4.52-0.865-6.241-2.586l-68.661-68.661c-3.452-3.452-3.452-9.039,0-12.482   c3.443-3.452,9.031-3.452,12.482,0l68.661,68.661c3.452,3.452,3.452,9.031,0,12.482   C366.451,466.738,364.191,467.603,361.931,467.603"/>
	<path style="fill:#8697CB;" d="M268.302,461.362h-0.035c-3.619-0.018-6.868-2.242-8.183-5.614l-56.179-143.563   c-1.28-3.275-0.512-6.974,1.977-9.463c2.481-2.489,6.197-3.249,9.454-1.977l143.572,56.179c3.372,1.324,5.597,4.573,5.605,8.192   c0.018,3.619-2.18,6.886-5.544,8.227l-58.906,23.561l-23.561,58.906C275.161,459.164,271.913,461.362,268.302,461.362"/>
</g>
<g>
</g>
<g>
</g>
<g>
</g>
<g>
</g>
<g>
</g>
<g>
</g>
<g>
</g>
<g>
</g>
<g>
</g>
<g>
</g>
<g>
</g>
<g>
</g>
<g>
</g>
<g>
</g>
<g>
</g>
</svg>
