<?xml version="1.0" encoding="iso-8859-1"?>
<!-- Generator: Adobe Illustrator 19.0.0, SVG Export Plug-In . SVG Version: 6.00 Build 0)  -->
<svg xmlns="http://www.w3.org/2000/svg" xmlns:xlink="http://www.w3.org/1999/xlink" version="1.1" id="Layer_1" x="0px" y="0px" viewBox="0 0 512 512" style="enable-background:new 0 0 512 512;" xml:space="preserve">
<g>
	<path style="fill:#F0C419;" d="M406.069,512H105.931C47.431,512,0,464.569,0,406.069V105.931C0,47.431,47.431,0,105.931,0h300.138   C464.569,0,512,47.431,512,105.931v300.138C512,464.569,464.569,512,406.069,512"/>
	<g>
		<path style="fill:#FFFFFF;" d="M308.987,220.69c0,4.882-3.946,8.828-8.828,8.828c-4.873,0-8.828-3.946-8.828-8.828    s3.955-8.828,8.828-8.828C305.041,211.862,308.987,215.808,308.987,220.69"/>
		<path style="fill:#FFFFFF;" d="M79.448,317.793c-19.474,0-35.31-15.837-35.31-35.31c0-4.882,3.955-8.828,8.828-8.828    s8.828,3.946,8.828,8.828c0,9.737,7.918,17.655,17.655,17.655s17.655-7.918,17.655-17.655s-7.918-17.655-17.655-17.655    c-19.474,0-35.31-15.837-35.31-35.31s15.837-35.31,35.31-35.31s35.31,15.837,35.31,35.31c0,4.882-3.955,8.828-8.828,8.828    c-4.873,0-8.828-3.946-8.828-8.828c0-9.737-7.918-17.655-17.655-17.655s-17.655,7.918-17.655,17.655s7.918,17.655,17.655,17.655    c19.474,0,35.31,15.837,35.31,35.31S98.922,317.793,79.448,317.793"/>
		<path style="fill:#FFFFFF;" d="M176.552,317.793c-24.338,0-44.138-19.8-44.138-44.138s19.8-44.138,44.138-44.138    c12.668,0,24.735,5.447,33.112,14.954c3.222,3.655,2.878,9.234-0.777,12.456c-3.672,3.231-9.242,2.878-12.465-0.777    c-5.032-5.703-12.279-8.978-19.871-8.978c-14.601,0-26.483,11.882-26.483,26.483c0,14.601,11.882,26.483,26.483,26.483    c7.592,0,14.839-3.266,19.871-8.978c3.231-3.655,8.801-3.999,12.465-0.768c3.646,3.231,3.999,8.81,0.768,12.465    C201.269,312.346,189.21,317.793,176.552,317.793"/>
		<path style="fill:#FFFFFF;" d="M238.362,317.793c-4.873,0-8.828-3.946-8.828-8.828v-70.621c0-4.882,3.955-8.828,8.828-8.828    s8.828,3.946,8.828,8.828v70.621C247.19,313.847,243.235,317.793,238.362,317.793"/>
		<path style="fill:#FFFFFF;" d="M238.362,273.655c-4.873,0-8.828-3.946-8.828-8.828c0-19.474,15.837-35.31,35.31-35.31    c4.873,0,8.828,3.946,8.828,8.828c0,4.882-3.955,8.828-8.828,8.828c-9.737,0-17.655,7.918-17.655,17.655    C247.19,269.709,243.235,273.655,238.362,273.655"/>
		<path style="fill:#FFFFFF;" d="M300.159,317.793c-4.873,0-8.828-3.946-8.828-8.828V256c0-4.882,3.955-8.828,8.828-8.828    s8.828,3.946,8.828,8.828v52.966C308.987,313.847,305.032,317.793,300.159,317.793"/>
		<path style="fill:#FFFFFF;" d="M335.469,317.793c-4.873,0-8.828-3.946-8.828-8.828V220.69c0-4.882,3.955-8.828,8.828-8.828    c4.873,0,8.828,3.946,8.828,8.828v88.276C344.297,313.847,340.342,317.793,335.469,317.793"/>
		<path style="fill:#FFFFFF;" d="M344.297,247.172h17.655c4.873,0,8.828-3.955,8.828-8.828c0-4.873-3.955-8.828-8.828-8.828h-17.655    V247.172z M361.952,264.828h-26.483c-4.873,0-8.828-3.946-8.828-8.828v-35.31c0-4.882,3.955-8.828,8.828-8.828h26.483    c14.601,0,26.483,11.882,26.483,26.483C388.435,252.946,376.553,264.828,361.952,264.828L361.952,264.828z"/>
		<path style="fill:#FFFFFF;" d="M450.207,247.172h-35.31c-4.873,0-8.828-3.946-8.828-8.828c0-4.882,3.955-8.828,8.828-8.828h35.31    c4.873,0,8.828,3.946,8.828,8.828C459.034,243.226,455.08,247.172,450.207,247.172"/>
		<path style="fill:#FFFFFF;" d="M459.034,317.793c-19.474,0-35.31-15.837-35.31-35.31v-70.621c0-4.882,3.955-8.828,8.828-8.828    s8.828,3.946,8.828,8.828v70.621c0,9.737,7.918,17.655,17.655,17.655c4.873,0,8.828,3.946,8.828,8.828    C467.862,313.847,463.907,317.793,459.034,317.793"/>
	</g>
</g>
<g>
</g>
<g>
</g>
<g>
</g>
<g>
</g>
<g>
</g>
<g>
</g>
<g>
</g>
<g>
</g>
<g>
</g>
<g>
</g>
<g>
</g>
<g>
</g>
<g>
</g>
<g>
</g>
<g>
</g>
</svg>
