<?xml version="1.0" encoding="iso-8859-1"?>
<!-- Generator: Adobe Illustrator 19.0.0, SVG Export Plug-In . SVG Version: 6.00 Build 0)  -->
<svg xmlns="http://www.w3.org/2000/svg" xmlns:xlink="http://www.w3.org/1999/xlink" version="1.1" id="Layer_1" x="0px" y="0px" viewBox="0 0 512 512" style="enable-background:new 0 0 512 512;" xml:space="preserve">
<g>
	<path style="fill:#ECF0F1;" d="M494.345,512H17.655C7.91,512,0,504.09,0,494.345V70.621h512v423.724   C512,504.09,504.09,512,494.345,512"/>
	<path style="fill:#35495E;" d="M512,70.621H0V17.655C0,7.91,7.91,0,17.655,0h476.69C504.09,0,512,7.91,512,17.655V70.621z"/>
	<path style="fill:#E64C3C;" d="M44.138,35.31c0,4.873-3.946,8.828-8.828,8.828s-8.828-3.955-8.828-8.828s3.946-8.828,8.828-8.828   S44.138,30.438,44.138,35.31"/>
	<path style="fill:#F0C419;" d="M79.448,35.31c0,4.873-3.946,8.828-8.828,8.828c-4.882,0-8.828-3.955-8.828-8.828   s3.946-8.828,8.828-8.828C75.502,26.483,79.448,30.438,79.448,35.31"/>
	<path style="fill:#24AE5F;" d="M114.759,35.31c0,4.873-3.946,8.828-8.828,8.828c-4.882,0-8.828-3.955-8.828-8.828   s3.946-8.828,8.828-8.828C110.813,26.483,114.759,30.438,114.759,35.31"/>
	<g>
		<path style="fill:#8697CB;" d="M88.276,282.483c-19.474,0-35.31-15.837-35.31-35.31v-31.656l-15.069-15.069    c-3.452-3.452-3.452-9.031,0-12.482l15.069-15.069v-31.656c0-19.474,15.837-35.31,35.31-35.31c4.882,0,8.828,3.955,8.828,8.828    s-3.946,8.828-8.828,8.828c-9.737,0-17.655,7.918-17.655,17.655v35.31c0,2.339-0.927,4.59-2.586,6.241L56.62,194.207    l11.414,11.414c1.66,1.651,2.586,3.902,2.586,6.241v35.31c0,9.737,7.918,17.655,17.655,17.655c4.882,0,8.828,3.955,8.828,8.828    C97.103,278.528,93.158,282.483,88.276,282.483"/>
		<path style="fill:#8697CB;" d="M79.448,485.517c-4.882,0-8.828-3.955-8.828-8.828c0-4.873,3.946-8.828,8.828-8.828    c9.737,0,17.655-7.918,17.655-17.655v-35.31c0-2.339,0.927-4.59,2.586-6.241l11.414-11.414L99.69,385.827    c-1.668-1.66-2.595-3.911-2.586-6.259l0.071-35.31c0-9.719-7.954-17.638-17.726-17.638c-4.882,0-8.828-3.955-8.828-8.828    c0-4.873,3.946-8.828,8.828-8.828c19.509,0,35.381,15.837,35.381,35.31l-0.062,31.656L129.827,391    c3.452,3.452,3.452,9.031,0,12.482l-15.069,15.069v31.656C114.759,469.681,98.922,485.517,79.448,485.517"/>
	</g>
	<g>
		<path style="fill:#26B99A;" d="M167.715,282.483c-1.28,0-2.578-0.274-3.814-0.865c-18.591-8.916-40.316-37.155-40.316-87.411    c0-48.64,20.657-76.959,39.989-87.243c4.308-2.295,9.649-0.662,11.944,3.646s0.653,9.657-3.646,11.944    c-14.133,7.512-30.632,30.791-30.632,71.654c0,39.353,15.219,64.256,30.305,71.486c4.396,2.11,6.25,7.38,4.131,11.776    C174.159,280.638,171.008,282.483,167.715,282.483"/>
		<path style="fill:#26B99A;" d="M203.043,282.483c-3.16,0-6.215-1.695-7.804-4.679c-2.295-4.308-0.653-9.657,3.646-11.944    c14.133-7.512,30.632-30.791,30.632-71.654c0-39.353-15.219-64.256-30.305-71.486c-4.396-2.11-6.25-7.38-4.131-11.776    c2.101-4.396,7.353-6.268,11.776-4.149c18.591,8.916,40.316,37.155,40.316,87.411c0,48.64-20.657,76.959-39.989,87.243    C205.859,282.147,204.438,282.483,203.043,282.483"/>
	</g>
</g>
<g>
</g>
<g>
</g>
<g>
</g>
<g>
</g>
<g>
</g>
<g>
</g>
<g>
</g>
<g>
</g>
<g>
</g>
<g>
</g>
<g>
</g>
<g>
</g>
<g>
</g>
<g>
</g>
<g>
</g>
</svg>
