<?xml version="1.0" encoding="iso-8859-1"?>
<!-- Generator: Adobe Illustrator 19.0.0, SVG Export Plug-In . SVG Version: 6.00 Build 0)  -->
<svg xmlns="http://www.w3.org/2000/svg" xmlns:xlink="http://www.w3.org/1999/xlink" version="1.1" id="Layer_1" x="0px" y="0px" viewBox="0 0 512 512" style="enable-background:new 0 0 512 512;" xml:space="preserve">
<g>
	<g>
		<polygon style="fill:#F0C419;" points="0,512 176.552,512 176.552,0 0,0   "/>
		<polygon style="fill:#F0C419;" points="335.449,512 512,512 512,0 335.449,0   "/>
	</g>
	<path style="fill:#C03A2B;" d="M211.871,512c-2.79,0-5.526-1.315-7.247-3.769c-2.79-3.999-1.81-9.498,2.18-12.297l78.027-54.493   l-78.027-54.625c-2.366-1.651-3.769-4.352-3.769-7.23c0-2.887,1.412-5.588,3.769-7.239l78.027-54.493l-78.027-54.625   c-2.366-1.651-3.769-4.352-3.769-7.23c0-2.887,1.412-5.588,3.769-7.239l78.027-54.493l-78.027-54.625   c-2.366-1.651-3.769-4.352-3.769-7.23c0-2.887,1.412-5.588,3.769-7.239l78.027-54.493l-78.027-54.625   c-3.999-2.798-4.97-8.298-2.172-12.288c2.807-3.999,8.298-4.97,12.288-2.172l87.799,61.458c1.836,1.086,3.275,2.798,3.937,4.917   c1.156,3.672-0.106,7.68-3.266,9.887l-78.124,54.563l77.453,54.219c1.836,1.086,3.275,2.798,3.937,4.917   c1.156,3.672-0.106,7.68-3.266,9.887l-78.124,54.563l77.453,54.219c1.836,1.086,3.275,2.798,3.937,4.917   c1.156,3.672-0.106,7.68-3.266,9.887l-78.124,54.563l77.453,54.219c1.836,1.086,3.275,2.798,3.937,4.917   c1.156,3.672-0.106,7.68-3.266,9.887l-88.47,61.793C215.376,511.48,213.619,512,211.871,512"/>
</g>
<g>
</g>
<g>
</g>
<g>
</g>
<g>
</g>
<g>
</g>
<g>
</g>
<g>
</g>
<g>
</g>
<g>
</g>
<g>
</g>
<g>
</g>
<g>
</g>
<g>
</g>
<g>
</g>
<g>
</g>
</svg>
