<?xml version="1.0" encoding="iso-8859-1"?>
<!-- Generator: Adobe Illustrator 19.0.0, SVG Export Plug-In . SVG Version: 6.00 Build 0)  -->
<svg xmlns="http://www.w3.org/2000/svg" xmlns:xlink="http://www.w3.org/1999/xlink" version="1.1" id="Layer_1" x="0px" y="0px" viewBox="0 0 512 512" style="enable-background:new 0 0 512 512;" xml:space="preserve">
<g>
	<path style="fill:#5889C4;" d="M406.069,512H105.931C47.431,512,0,464.569,0,406.069V105.931C0,47.431,47.431,0,105.931,0h300.138   C464.569,0,512,47.431,512,105.931v300.138C512,464.569,464.569,512,406.069,512"/>
	<g>
		<path style="fill:#FFFFFF;" d="M150.069,353.082c-2.26,0-4.52-0.865-6.241-2.586l-88.276-88.258    c-3.452-3.443-3.452-9.022-0.009-12.473l88.196-88.329c3.452-3.46,9.048-3.452,12.491-0.009c3.452,3.443,3.452,9.031,0.009,12.482    l-81.964,82.088l82.035,82.017c3.452,3.443,3.452,9.031,0,12.482C154.589,352.217,152.329,353.082,150.069,353.082"/>
		<path style="fill:#FFFFFF;" d="M362.009,353.159c-2.26,0-4.52-0.865-6.241-2.578c-3.452-3.452-3.452-9.039-0.009-12.491    l81.964-82.088l-82.035-82.017c-3.443-3.443-3.443-9.031,0-12.482c3.452-3.452,9.039-3.452,12.482,0l88.276,88.258    c3.452,3.443,3.452,9.031,0.009,12.473l-88.196,88.338C366.537,352.294,364.269,353.159,362.009,353.159"/>
		<path style="fill:#FFFFFF;" d="M194.207,335.448c0,4.873-3.946,8.828-8.828,8.828c-4.882,0-8.828-3.955-8.828-8.828    s3.946-8.828,8.828-8.828C190.261,326.621,194.207,330.575,194.207,335.448"/>
		<path style="fill:#FFFFFF;" d="M229.517,335.448c0,4.873-3.946,8.828-8.828,8.828s-8.828-3.955-8.828-8.828    s3.946-8.828,8.828-8.828S229.517,330.575,229.517,335.448"/>
		<path style="fill:#FFFFFF;" d="M264.828,335.448c0,4.873-3.946,8.828-8.828,8.828s-8.828-3.955-8.828-8.828    s3.946-8.828,8.828-8.828S264.828,330.575,264.828,335.448"/>
		<path style="fill:#FFFFFF;" d="M300.138,335.448c0,4.873-3.946,8.828-8.828,8.828c-4.882,0-8.828-3.955-8.828-8.828    s3.946-8.828,8.828-8.828C296.192,326.621,300.138,330.575,300.138,335.448"/>
		<path style="fill:#FFFFFF;" d="M335.448,335.448c0,4.873-3.946,8.828-8.828,8.828c-4.882,0-8.828-3.955-8.828-8.828    s3.946-8.828,8.828-8.828C331.502,326.621,335.448,330.575,335.448,335.448"/>
	</g>
</g>
<g>
</g>
<g>
</g>
<g>
</g>
<g>
</g>
<g>
</g>
<g>
</g>
<g>
</g>
<g>
</g>
<g>
</g>
<g>
</g>
<g>
</g>
<g>
</g>
<g>
</g>
<g>
</g>
<g>
</g>
</svg>
