<?xml version="1.0" encoding="iso-8859-1"?>
<!-- Generator: Adobe Illustrator 19.0.0, SVG Export Plug-In . SVG Version: 6.00 Build 0)  -->
<svg xmlns="http://www.w3.org/2000/svg" xmlns:xlink="http://www.w3.org/1999/xlink" version="1.1" id="Layer_1" x="0px" y="0px" viewBox="0 0 512 512" style="enable-background:new 0 0 512 512;" xml:space="preserve">
<g>
	<path style="fill:#E57E25;" d="M406.069,512H105.931C47.431,512,0,464.569,0,406.069V105.931C0,47.431,47.431,0,105.931,0h300.138   C464.569,0,512,47.431,512,105.931v300.138C512,464.569,464.569,512,406.069,512"/>
	<g>
		<path style="fill:#FFFFFF;" d="M141.241,353.082c-2.26,0-4.52-0.865-6.241-2.586l-88.276-88.258    c-3.452-3.443-3.452-9.022-0.009-12.473l88.196-88.329c3.452-3.46,9.048-3.452,12.491-0.009c3.452,3.443,3.452,9.031,0.009,12.482    l-81.964,82.088l82.035,82.017c3.452,3.443,3.452,9.031,0,12.482C145.761,352.217,143.501,353.082,141.241,353.082"/>
		<path style="fill:#FFFFFF;" d="M370.836,353.159c-2.26,0-4.52-0.865-6.241-2.578c-3.452-3.452-3.452-9.039-0.009-12.491    l81.964-82.088l-82.035-82.017c-3.443-3.443-3.443-9.031,0-12.482c3.452-3.452,9.039-3.452,12.482,0l88.276,88.258    c3.452,3.443,3.452,9.031,0.009,12.473l-88.196,88.338C375.365,352.294,373.096,353.159,370.836,353.159"/>
		<path style="fill:#FFFFFF;" d="M282.483,353.108c-0.839,0-1.686-0.124-2.534-0.371c-4.67-1.404-7.318-6.329-5.923-10.999    l52.966-176.552c1.395-4.661,6.312-7.345,10.99-5.914c4.67,1.395,7.318,6.321,5.923,10.99L290.94,346.814    C289.792,350.636,286.287,353.108,282.483,353.108"/>
		<path style="fill:#FFFFFF;" d="M247.172,353.103h-61.793c-4.882,0-8.828-3.955-8.828-8.828c0-4.873,3.946-8.828,8.828-8.828    h61.793c4.882,0,8.828,3.955,8.828,8.828C256,349.149,252.054,353.103,247.172,353.103"/>
	</g>
</g>
<g>
</g>
<g>
</g>
<g>
</g>
<g>
</g>
<g>
</g>
<g>
</g>
<g>
</g>
<g>
</g>
<g>
</g>
<g>
</g>
<g>
</g>
<g>
</g>
<g>
</g>
<g>
</g>
<g>
</g>
</svg>
