<?xml version="1.0" encoding="iso-8859-1"?>
<!-- Generator: Adobe Illustrator 19.0.0, SVG Export Plug-In . SVG Version: 6.00 Build 0)  -->
<svg xmlns="http://www.w3.org/2000/svg" xmlns:xlink="http://www.w3.org/1999/xlink" version="1.1" id="Layer_1" x="0px" y="0px" viewBox="0 0 512 512" style="enable-background:new 0 0 512 512;" xml:space="preserve">
<g>
	<polygon style="fill:#BDC3C7;" points="476.69,105.931 370.759,105.931 370.759,0  "/>
	<g>
		<path style="fill:#ECF0F1;" d="M370.759,105.931V0H70.621v243.756l2.922-2.922l13.877,9.401    c15.59,10.567,36.908,1.739,40.466-16.764l3.169-16.463h24.444l2.066,13.383c2.922,19.032,24.691,28.531,40.633,17.726    l10.743-7.283l17.284,17.284l-7.998,10.92c-11.388,15.528-2.71,37.632,16.199,41.269l12.747,2.454v24.444l-13.374,2.057    c-19.041,2.931-28.531,24.691-17.726,40.633l7.274,10.752l-17.284,17.284l-7.671-5.632c-15.881-11.644-38.444-2.295-41.446,17.17    l-1.448,9.401h-24.444l-2.454-12.738c-3.637-18.918-25.732-27.595-41.269-16.207l-10.911,8.007l-5.8-5.8V512H476.69V105.931    H370.759z"/>
		<path style="fill:#ECF0F1;" d="M70.621,361.845v6.621C70.903,366.241,70.912,364.025,70.621,361.845"/>
	</g>
	<path style="fill:#BDC3C7;" d="M247.172,312.759l-12.747-2.454c-18.909-3.637-27.586-25.741-16.199-41.269l7.998-10.911   L208.94,240.84l-10.743,7.274c-15.943,10.805-37.711,1.306-40.633-17.726l-2.066-13.374h-24.444l-3.169,16.463   c-3.558,18.494-24.876,27.321-40.466,16.755l-13.877-9.393l-17.284,17.284l7.998,10.911c11.388,15.528,2.71,37.632-16.199,41.269   l-12.747,2.454v24.444l13.374,2.057c19.041,2.931,28.531,24.691,17.726,40.642l-7.274,10.743l17.284,17.284l10.911-7.998   c15.537-11.396,37.632-2.719,41.269,16.199l2.454,12.747h24.444l1.448-9.41c3.001-19.456,25.565-28.804,41.446-17.161l7.671,5.623   l17.284-17.284l-7.274-10.743c-10.805-15.951-1.315-37.711,17.726-40.642l13.374-2.057V312.759z"/>
	<path style="fill:#ECF0F1;" d="M176.552,322.944c0,19.5-15.81,35.31-35.31,35.31s-35.31-15.81-35.31-35.31s15.81-35.31,35.31-35.31   S176.552,303.444,176.552,322.944"/>
	<path style="fill:#FFFFFF;" d="M317.793,158.897V70.621H141.241v146.388h14.257l2.066,13.383   c2.922,19.032,24.691,28.531,40.633,17.726l10.743-7.283l17.284,17.284l-7.998,10.92c-11.388,15.528-2.71,37.632,16.199,41.269   l12.747,2.454v24.444l-13.374,2.057c-19.041,2.931-28.531,24.691-17.726,40.633l7.274,10.752l-17.284,17.284l-7.671-5.632   c-15.881-11.644-38.444-2.295-41.446,17.17l-1.448,9.401h-14.257v12.509h264.828V158.897H317.793z"/>
</g>
<g>
</g>
<g>
</g>
<g>
</g>
<g>
</g>
<g>
</g>
<g>
</g>
<g>
</g>
<g>
</g>
<g>
</g>
<g>
</g>
<g>
</g>
<g>
</g>
<g>
</g>
<g>
</g>
<g>
</g>
</svg>
