<?xml version="1.0" encoding="iso-8859-1"?>
<!-- Generator: Adobe Illustrator 19.0.0, SVG Export Plug-In . SVG Version: 6.00 Build 0)  -->
<svg xmlns="http://www.w3.org/2000/svg" xmlns:xlink="http://www.w3.org/1999/xlink" version="1.1" id="Layer_1" x="0px" y="0px" viewBox="0 0 512 512" style="enable-background:new 0 0 512 512;" xml:space="preserve">
<g>
	<polygon style="fill:#BDC3C7;" points="459.034,105.931 353.103,105.931 353.103,0  "/>
	<polygon style="fill:#ECF0F1;" points="459.034,105.931 353.103,105.931 353.103,0 52.966,0 52.966,512 459.034,512  "/>
	<polygon style="fill:#FFFFFF;" points="123.586,441.379 123.586,70.621 300.138,70.621 300.138,158.897 388.414,158.897    388.414,441.379  "/>
	<g>
		<path style="fill:#FFC14F;" d="M335.448,238.345H176.552c-9.746,0-17.655-7.91-17.655-17.655s7.91-17.655,17.655-17.655h158.897    c9.746,0,17.655,7.91,17.655,17.655S345.194,238.345,335.448,238.345"/>
		<path style="fill:#FFC14F;" d="M335.448,317.793H176.552c-9.746,0-17.655-7.91-17.655-17.655c0-9.746,7.91-17.655,17.655-17.655    h158.897c9.746,0,17.655,7.91,17.655,17.655C353.103,309.884,345.194,317.793,335.448,317.793"/>
		<path style="fill:#FFC14F;" d="M335.448,397.241H176.552c-9.746,0-17.655-7.91-17.655-17.655c0-9.746,7.91-17.655,17.655-17.655    h158.897c9.746,0,17.655,7.91,17.655,17.655C353.103,389.332,345.194,397.241,335.448,397.241"/>
	</g>
</g>
<g>
</g>
<g>
</g>
<g>
</g>
<g>
</g>
<g>
</g>
<g>
</g>
<g>
</g>
<g>
</g>
<g>
</g>
<g>
</g>
<g>
</g>
<g>
</g>
<g>
</g>
<g>
</g>
<g>
</g>
</svg>
