<?xml version="1.0" encoding="iso-8859-1"?>
<!-- Generator: Adobe Illustrator 19.0.0, SVG Export Plug-In . SVG Version: 6.00 Build 0)  -->
<svg xmlns="http://www.w3.org/2000/svg" xmlns:xlink="http://www.w3.org/1999/xlink" version="1.1" id="Layer_1" x="0px" y="0px" viewBox="0 0 512 512" style="enable-background:new 0 0 512 512;" xml:space="preserve">
<g>
	<g>
		<path style="fill:#E57E25;" d="M211.862,194.207H35.31c-19.5,0-35.31-15.81-35.31-35.31v-17.655h247.172v17.655    C247.172,178.397,231.362,194.207,211.862,194.207"/>
		<path style="fill:#E57E25;" d="M247.172,512H0v-17.655c0-19.5,15.81-35.31,35.31-35.31h176.552c19.5,0,35.31,15.81,35.31,35.31    V512z"/>
	</g>
	<polygon style="fill:#F0C419;" points="35.31,459.034 211.862,459.034 211.862,194.207 35.31,194.207  "/>
	<g>
		<path style="fill:#E57E25;" d="M211.862,272.612L55.049,194.205H35.31v9.869l172.606,86.307c1.262,0.627,2.613,0.927,3.937,0.927    h0.009V272.612z"/>
		<path style="fill:#E57E25;" d="M211.862,360.888L39.256,274.589c-1.271-0.644-2.613-0.856-3.946-0.847v18.609l172.606,86.307    c1.262,0.627,2.613,0.927,3.937,0.927h0.009V360.888z"/>
		<path style="fill:#E57E25;" d="M35.31,380.63l156.813,78.407h19.738v-9.869L39.256,362.86c-1.271-0.636-2.613-0.847-3.946-0.847    V380.63z"/>
	</g>
	<g>
		<path style="fill:#4482C3;" d="M476.69,52.966H300.138c-19.5,0-35.31-15.81-35.31-35.31V0H512v17.655    C512,37.155,496.19,52.966,476.69,52.966"/>
		<path style="fill:#4482C3;" d="M512,370.759H264.828v-17.655c0-19.5,15.81-35.31,35.31-35.31H476.69    c19.5,0,35.31,15.81,35.31,35.31V370.759z"/>
	</g>
	<polygon style="fill:#D0E8F9;" points="300.138,317.793 476.69,317.793 476.69,52.966 300.138,52.966  "/>
	<g>
		<path style="fill:#4482C3;" d="M476.69,131.37L319.876,52.964h-19.738v9.869l172.606,86.307c1.262,0.627,2.613,0.927,3.937,0.927    h0.009V131.37z"/>
		<path style="fill:#4482C3;" d="M476.69,219.646l-172.606-86.298c-1.271-0.644-2.613-0.856-3.946-0.847v18.609l172.606,86.307    c1.262,0.627,2.613,0.927,3.937,0.927h0.009V219.646z"/>
		<path style="fill:#4482C3;" d="M300.138,239.388l156.813,78.407h19.738v-9.869l-172.606-86.307    c-1.271-0.636-2.613-0.847-3.946-0.847V239.388z"/>
	</g>
</g>
<g>
</g>
<g>
</g>
<g>
</g>
<g>
</g>
<g>
</g>
<g>
</g>
<g>
</g>
<g>
</g>
<g>
</g>
<g>
</g>
<g>
</g>
<g>
</g>
<g>
</g>
<g>
</g>
<g>
</g>
</svg>
