<?xml version="1.0" encoding="iso-8859-1"?>
<!-- Generator: Adobe Illustrator 19.0.0, SVG Export Plug-In . SVG Version: 6.00 Build 0)  -->
<svg xmlns="http://www.w3.org/2000/svg" xmlns:xlink="http://www.w3.org/1999/xlink" version="1.1" id="Layer_1" x="0px" y="0px" viewBox="0 0 512 512" style="enable-background:new 0 0 512 512;" xml:space="preserve">
<g>
	<polygon style="fill:#BDC3C7;" points="406.069,105.931 300.138,105.931 300.138,0  "/>
	<polygon style="fill:#26B99A;" points="185.379,406.069 512,406.069 512,194.207 185.379,194.207  "/>
	<polygon style="fill:#ECF0F1;" points="185.379,406.069 185.379,194.207 406.069,194.207 406.069,105.931 300.138,105.931    300.138,0 0,0 0,512 406.069,512 406.069,406.069  "/>
	<g>
		<path style="fill:#FFFFFF;" d="M247.172,247.172c0,4.873-3.955,8.828-8.828,8.828c-4.873,0-8.828-3.955-8.828-8.828    c0-4.873,3.955-8.828,8.828-8.828C243.218,238.345,247.172,242.3,247.172,247.172"/>
		<path style="fill:#FFFFFF;" d="M238.345,379.586c-4.873,0-8.828-3.955-8.828-8.828v-88.276c0-4.873,3.955-8.828,8.828-8.828    c4.873,0,8.828,3.955,8.828,8.828v88.276C247.172,375.631,243.218,379.586,238.345,379.586"/>
		<path style="fill:#FFFFFF;" d="M273.655,379.586c-4.873,0-8.828-3.955-8.828-8.828V247.172c0-4.873,3.955-8.828,8.828-8.828    c4.873,0,8.828,3.955,8.828,8.828v123.586C282.483,375.631,278.528,379.586,273.655,379.586"/>
		<path style="fill:#FFFFFF;" d="M339.862,256c-12.164,0-22.069,9.905-22.069,22.069c0,12.164,9.905,22.069,22.069,22.069    s22.069-9.905,22.069-22.069C361.931,265.905,352.026,256,339.862,256 M339.862,317.793c-21.901,0-39.724-17.823-39.724-39.724    c0-21.901,17.823-39.724,39.724-39.724c21.901,0,39.724,17.823,39.724,39.724C379.586,299.97,361.763,317.793,339.862,317.793"/>
		<path style="fill:#FFFFFF;" d="M339.862,317.793c-12.164,0-22.069,9.905-22.069,22.069s9.905,22.069,22.069,22.069    s22.069-9.905,22.069-22.069S352.026,317.793,339.862,317.793 M339.862,379.586c-21.901,0-39.724-17.823-39.724-39.724    c0-21.901,17.823-39.724,39.724-39.724c21.901,0,39.724,17.823,39.724,39.724C379.586,361.763,361.763,379.586,339.862,379.586"/>
		<path style="fill:#FFFFFF;" d="M406.069,379.586c-4.873,0-8.828-3.955-8.828-8.828v-70.621c0-4.873,3.955-8.828,8.828-8.828    s8.828,3.955,8.828,8.828v70.621C414.897,375.631,410.942,379.586,406.069,379.586"/>
		<path style="fill:#FFFFFF;" d="M459.034,379.586c-4.873,0-8.828-3.955-8.828-8.828v-35.31c0-4.864-3.964-8.828-8.828-8.828h-35.31    c-4.873,0-8.828-3.955-8.828-8.828c0-4.873,3.955-8.828,8.828-8.828h35.31c14.601,0,26.483,11.882,26.483,26.483v35.31    C467.862,375.631,463.907,379.586,459.034,379.586"/>
	</g>
</g>
<g>
</g>
<g>
</g>
<g>
</g>
<g>
</g>
<g>
</g>
<g>
</g>
<g>
</g>
<g>
</g>
<g>
</g>
<g>
</g>
<g>
</g>
<g>
</g>
<g>
</g>
<g>
</g>
<g>
</g>
</svg>
