<?xml version="1.0" encoding="iso-8859-1"?>
<!-- Generator: Adobe Illustrator 19.0.0, SVG Export Plug-In . SVG Version: 6.00 Build 0)  -->
<svg xmlns="http://www.w3.org/2000/svg" xmlns:xlink="http://www.w3.org/1999/xlink" version="1.1" id="Layer_1" x="0px" y="0px" viewBox="0 0 512 512" style="enable-background:new 0 0 512 512;" xml:space="preserve">
<g>
	<polygon style="fill:#BDC3C7;" points="432.552,105.931 326.621,105.931 326.621,0  "/>
	<path style="fill:#ECF0F1;" d="M326.621,105.931V0H26.483v476.69h210.141c-9.825-11.22-15.934-26.836-15.934-44.138   c0-34.127,23.72-61.793,52.966-61.793v-35.31h158.897V105.931H326.621z"/>
	<path style="fill:#FFFFFF;" d="M273.655,158.897V70.621H97.103v335.448h128.75c8.51-20.86,26.686-35.31,47.801-35.31v-35.31h88.276   V158.897H273.655z"/>
	<path style="fill:#F0C419;" d="M273.655,406.069c0,58.5,47.431,105.931,105.931,105.931s105.931-47.431,105.931-105.931v-70.621   H273.655V406.069"/>
	<path style="fill:#D25627;" d="M273.655,406.069v-35.31c-29.246,0-52.966,27.666-52.966,61.793s23.72,61.793,52.966,61.793   c11.997,0,23.031-4.714,31.921-12.562C285.899,462.548,273.655,435.756,273.655,406.069"/>
</g>
<g>
</g>
<g>
</g>
<g>
</g>
<g>
</g>
<g>
</g>
<g>
</g>
<g>
</g>
<g>
</g>
<g>
</g>
<g>
</g>
<g>
</g>
<g>
</g>
<g>
</g>
<g>
</g>
<g>
</g>
</svg>
