<?xml version="1.0" encoding="iso-8859-1"?>
<!-- Generator: Adobe Illustrator 19.0.0, SVG Export Plug-In . SVG Version: 6.00 Build 0)  -->
<svg xmlns="http://www.w3.org/2000/svg" xmlns:xlink="http://www.w3.org/1999/xlink" version="1.1" id="Layer_1" x="0px" y="0px" viewBox="0 0 512 512" style="enable-background:new 0 0 512 512;" xml:space="preserve">
<g>
	<path style="fill:#ECF0F1;" d="M494.345,512H17.655C7.91,512,0,504.09,0,494.345V70.621h512v423.724   C512,504.09,504.09,512,494.345,512"/>
	<path style="fill:#35495E;" d="M512,70.621H0V17.655C0,7.91,7.91,0,17.655,0h476.69C504.09,0,512,7.91,512,17.655V70.621z"/>
	<path style="fill:#E64C3C;" d="M44.138,35.31c0,4.873-3.946,8.828-8.828,8.828s-8.828-3.955-8.828-8.828s3.946-8.828,8.828-8.828   S44.138,30.438,44.138,35.31"/>
	<path style="fill:#F0C419;" d="M79.448,35.31c0,4.873-3.946,8.828-8.828,8.828c-4.882,0-8.828-3.955-8.828-8.828   s3.946-8.828,8.828-8.828C75.502,26.483,79.448,30.438,79.448,35.31"/>
	<path style="fill:#24AE5F;" d="M114.759,35.31c0,4.873-3.946,8.828-8.828,8.828c-4.882,0-8.828-3.955-8.828-8.828   s3.946-8.828,8.828-8.828C110.813,26.483,114.759,30.438,114.759,35.31"/>
	<path style="fill:#35495E;" d="M388.414,423.681c-2.083,0-4.175-0.733-5.853-2.216l-95.762-84.851   c-3.646-3.231-3.981-8.819-0.75-12.465c3.24-3.663,8.81-3.981,12.456-0.75l95.762,84.842c3.646,3.24,3.981,8.819,0.75,12.465   C393.278,422.675,390.841,423.681,388.414,423.681"/>
	<path style="fill:#8697CB;" d="M317.793,264.828c0,53.628-43.476,97.103-97.103,97.103s-97.103-43.476-97.103-97.103   s43.476-97.103,97.103-97.103S317.793,211.2,317.793,264.828"/>
	<g>
		<path style="fill:#FFFFFF;" d="M176.561,308.966c-2.692,0-5.332-1.218-7.071-3.531l-26.483-35.31    c-2.348-3.134-2.348-7.459,0-10.593l26.483-35.31c2.922-3.902,8.457-4.696,12.359-1.766c3.902,2.922,4.696,8.457,1.766,12.359    l-22.51,30.014l22.51,30.014c2.931,3.902,2.136,9.437-1.766,12.359C180.259,308.392,178.406,308.966,176.561,308.966"/>
		<path style="fill:#FFFFFF;" d="M264.819,308.966c-1.845,0-3.699-0.574-5.288-1.766c-3.902-2.922-4.696-8.457-1.766-12.359    l22.51-30.014l-22.51-30.014c-2.931-3.902-2.136-9.437,1.766-12.359c3.902-2.94,9.437-2.136,12.359,1.766l26.483,35.31    c2.348,3.134,2.348,7.459,0,10.593l-26.483,35.31C270.151,307.747,267.511,308.966,264.819,308.966"/>
		<path style="fill:#FFFFFF;" d="M203.034,317.798c-1.095,0-2.207-0.203-3.275-0.636c-4.529-1.81-6.735-6.947-4.926-11.476    l35.31-88.276c1.81-4.529,6.983-6.718,11.476-4.917c4.529,1.81,6.735,6.947,4.926,11.476l-35.31,88.276    C209.849,315.697,206.53,317.798,203.034,317.798"/>
	</g>
</g>
<g>
</g>
<g>
</g>
<g>
</g>
<g>
</g>
<g>
</g>
<g>
</g>
<g>
</g>
<g>
</g>
<g>
</g>
<g>
</g>
<g>
</g>
<g>
</g>
<g>
</g>
<g>
</g>
<g>
</g>
</svg>
