<?xml version="1.0" encoding="iso-8859-1"?>
<!-- Generator: Adobe Illustrator 19.0.0, SVG Export Plug-In . SVG Version: 6.00 Build 0)  -->
<svg xmlns="http://www.w3.org/2000/svg" xmlns:xlink="http://www.w3.org/1999/xlink" version="1.1" id="Layer_1" x="0px" y="0px" viewBox="0 0 512 512" style="enable-background:new 0 0 512 512;" xml:space="preserve">
<g>
	<path d="M264.828,353.103c0,4.873-3.946,8.828-8.828,8.828s-8.828-3.955-8.828-8.828c0-4.873,3.946-8.828,8.828-8.828   S264.828,348.231,264.828,353.103"/>
	<path style="fill:#BDC3C7;" d="M351.103,467.862H160.886c-1.969,0-2.737-2.719-1.095-3.858l15.943-11.237   c17.187-12.12,25.309-34.348,20.303-55.526h119.94v0.018c-5.014,21.177,3.116,43.405,20.312,55.526l15.925,11.22   C353.857,465.161,353.08,467.862,351.103,467.862"/>
	<path style="fill:#ECF0F1;" d="M481.121,397.241H30.879C13.824,397.241,0,383.417,0,366.354V39.715   C0,22.652,13.824,8.828,30.879,8.828h450.242C498.176,8.828,512,22.652,512,39.715v326.638   C512,383.417,498.176,397.241,481.121,397.241"/>
	<path style="fill:#35495E;" d="M512,317.793H0V39.715C0,22.652,13.824,8.828,30.879,8.828h450.242   C498.176,8.828,512,22.652,512,39.715V317.793z"/>
	<path style="fill:#ECF0F1;" d="M353.103,503.172H158.897c-9.746,0-17.655-7.91-17.655-17.655s7.91-17.655,17.655-17.655h194.207   c9.746,0,17.655,7.91,17.655,17.655S362.849,503.172,353.103,503.172"/>
	<path style="fill:#F0C419;" d="M123.586,141.241c0,4.873-3.946,8.828-8.828,8.828s-8.828-3.955-8.828-8.828   s3.946-8.828,8.828-8.828S123.586,136.369,123.586,141.241"/>
	<path style="fill:#26B99A;" d="M79.457,150.069c-2.595,0-5.164-1.139-6.903-3.319L37.35,102.674   c-2.569-3.222-2.578-7.786-0.009-11.008l35.204-44.2c3.037-3.805,8.572-4.44,12.403-1.404c3.814,3.037,4.44,8.589,1.404,12.403   L55.543,97.156l30.799,38.577c3.046,3.814,2.428,9.366-1.386,12.403C83.324,149.442,81.39,150.069,79.457,150.069"/>
	<path style="fill:#F0C419;" d="M114.759,114.759c-4.882,0-8.828-3.955-8.828-8.828V52.966c0-4.873,3.946-8.828,8.828-8.828   s8.828,3.955,8.828,8.828v52.966C123.586,110.804,119.64,114.759,114.759,114.759"/>
	<g>
		<path style="fill:#FFFFFF;" d="M167.724,150.069h-17.655c-4.882,0-8.828-3.955-8.828-8.828s3.946-8.828,8.828-8.828h17.655    c4.882,0,8.828,3.955,8.828,8.828S172.606,150.069,167.724,150.069"/>
		<path style="fill:#FFFFFF;" d="M220.69,150.069h-17.655c-4.882,0-8.828-3.955-8.828-8.828s3.946-8.828,8.828-8.828h17.655    c4.882,0,8.828,3.955,8.828,8.828S225.571,150.069,220.69,150.069"/>
	</g>
</g>
<g>
</g>
<g>
</g>
<g>
</g>
<g>
</g>
<g>
</g>
<g>
</g>
<g>
</g>
<g>
</g>
<g>
</g>
<g>
</g>
<g>
</g>
<g>
</g>
<g>
</g>
<g>
</g>
<g>
</g>
</svg>
