<?xml version="1.0" encoding="iso-8859-1"?>
<!-- Generator: Adobe Illustrator 19.0.0, SVG Export Plug-In . SVG Version: 6.00 Build 0)  -->
<svg xmlns="http://www.w3.org/2000/svg" xmlns:xlink="http://www.w3.org/1999/xlink" version="1.1" id="Layer_1" x="0px" y="0px" viewBox="0 0 512 512" style="enable-background:new 0 0 512 512;" xml:space="preserve">
<g>
	<path style="fill:#ECF0F1;" d="M379.922,512H149.734c-14.442,0-26.147-11.705-26.147-26.138V26.138   C123.587,11.705,135.292,0,149.734,0h230.188c14.442,0,26.147,11.705,26.147,26.138v459.723   C406.069,500.295,394.364,512,379.922,512"/>
	<polygon style="fill:#35495E;" points="123.586,441.379 406.069,441.379 406.069,52.966 123.586,52.966  "/>
	<g>
		<path style="fill:#BDC3C7;" d="M300.137,35.31H256c-4.882,0-8.828-3.955-8.828-8.828s3.946-8.828,8.828-8.828h44.138    c4.882,0,8.828,3.955,8.828,8.828S305.019,35.31,300.137,35.31"/>
		<path style="fill:#BDC3C7;" d="M229.517,35.31h-8.828c-4.882,0-8.828-3.955-8.828-8.828s3.946-8.828,8.828-8.828h8.828    c4.882,0,8.828,3.955,8.828,8.828S234.398,35.31,229.517,35.31"/>
		<path style="fill:#BDC3C7;" d="M114.758,97.103c-4.882,0-8.828-3.955-8.828-8.828v-8.828c0-4.873,3.946-8.828,8.828-8.828    c4.882,0,8.828,3.955,8.828,8.828v8.828C123.586,93.149,119.64,97.103,114.758,97.103"/>
		<path style="fill:#BDC3C7;" d="M114.758,132.414c-4.882,0-8.828-3.955-8.828-8.828v-8.828c0-4.873,3.946-8.828,8.828-8.828    c4.882,0,8.828,3.955,8.828,8.828v8.828C123.586,128.459,119.64,132.414,114.758,132.414"/>
		<path style="fill:#BDC3C7;" d="M114.758,167.724c-4.882,0-8.828-3.955-8.828-8.828v-8.828c0-4.873,3.946-8.828,8.828-8.828    c4.882,0,8.828,3.955,8.828,8.828v8.828C123.586,163.769,119.64,167.724,114.758,167.724"/>
		<path style="fill:#BDC3C7;" d="M291.31,476.69c0,14.627-11.855,26.483-26.483,26.483c-14.627,0-26.483-11.855-26.483-26.483    c0-14.627,11.855-26.483,26.483-26.483C279.454,450.207,291.31,462.062,291.31,476.69"/>
	</g>
	<g>
		<path style="fill:#26B99A;" d="M220.689,167.724c0,4.873-3.946,8.828-8.828,8.828c-4.882,0-8.828-3.955-8.828-8.828    s3.946-8.828,8.828-8.828C216.743,158.897,220.689,162.851,220.689,167.724"/>
		<path style="fill:#26B99A;" d="M256,167.724c0,4.873-3.946,8.828-8.828,8.828c-4.882,0-8.828-3.955-8.828-8.828    s3.946-8.828,8.828-8.828C252.054,158.897,256,162.851,256,167.724"/>
		<path style="fill:#26B99A;" d="M167.836,176.552c-2.251,0-4.511-0.856-6.223-2.569c-3.46-3.443-3.478-9.031-0.035-12.491    l28.99-29.131l-28.981-29.016c-3.443-3.452-3.443-9.039,0.009-12.491c3.452-3.434,9.039-3.443,12.491,0.009l35.196,35.257    c3.434,3.434,3.443,9.013,0.009,12.465l-35.196,35.372C172.373,175.687,170.105,176.552,167.836,176.552"/>
	</g>
</g>
<g>
</g>
<g>
</g>
<g>
</g>
<g>
</g>
<g>
</g>
<g>
</g>
<g>
</g>
<g>
</g>
<g>
</g>
<g>
</g>
<g>
</g>
<g>
</g>
<g>
</g>
<g>
</g>
<g>
</g>
</svg>
