<?xml version="1.0" encoding="iso-8859-1"?>
<!-- Generator: Adobe Illustrator 19.0.0, SVG Export Plug-In . SVG Version: 6.00 Build 0)  -->
<svg xmlns="http://www.w3.org/2000/svg" xmlns:xlink="http://www.w3.org/1999/xlink" version="1.1" id="Layer_1" x="0px" y="0px" viewBox="0 0 512 512" style="enable-background:new 0 0 512 512;" xml:space="preserve">
<g>
	<path style="fill:#E96360;" d="M406.069,512H105.931C47.431,512,0,464.569,0,406.069V105.931C0,47.431,47.431,0,105.931,0h300.138   C464.569,0,512,47.431,512,105.931v300.138C512,464.569,464.569,512,406.069,512"/>
	<g>
		<path style="fill:#FFFFFF;" d="M264.828,353.103c0,4.873-3.946,8.828-8.828,8.828s-8.828-3.955-8.828-8.828    c0-4.873,3.946-8.828,8.828-8.828S264.828,348.231,264.828,353.103"/>
		<path style="fill:#FFFFFF;" d="M176.689,353.082c-2.26,0-4.52-0.856-6.232-2.578L82.04,262.246    c-1.66-1.651-2.595-3.902-2.595-6.241c0-2.348,0.936-4.59,2.586-6.25l88.338-88.329c3.452-3.452,9.039-3.452,12.482,0    c3.452,3.452,3.452,9.039,0,12.482l-82.088,82.088l82.158,82.008c3.46,3.452,3.46,9.031,0.018,12.491    C181.218,352.217,178.949,353.082,176.689,353.082"/>
		<path style="fill:#FFFFFF;" d="M335.388,353.159c-2.26,0-4.52-0.865-6.241-2.587c-3.452-3.452-3.452-9.031,0-12.482l82.088-82.088    l-82.158-82.008c-3.452-3.452-3.452-9.031-0.018-12.482c3.452-3.46,9.057-3.46,12.482-0.009l88.417,88.249    c1.66,1.651,2.595,3.902,2.595,6.241c0,2.348-0.936,4.59-2.586,6.25l-88.338,88.329    C339.908,352.294,337.648,353.159,335.388,353.159"/>
		<path style="fill:#FFFFFF;" d="M256,326.621c-4.882,0-8.828-3.955-8.828-8.828V158.897c0-4.873,3.946-8.828,8.828-8.828    s8.828,3.955,8.828,8.828v158.897C264.828,322.666,260.882,326.621,256,326.621"/>
	</g>
</g>
<g>
</g>
<g>
</g>
<g>
</g>
<g>
</g>
<g>
</g>
<g>
</g>
<g>
</g>
<g>
</g>
<g>
</g>
<g>
</g>
<g>
</g>
<g>
</g>
<g>
</g>
<g>
</g>
<g>
</g>
</svg>
