<?xml version="1.0" encoding="iso-8859-1"?>
<!-- Generator: Adobe Illustrator 19.0.0, SVG Export Plug-In . SVG Version: 6.00 Build 0)  -->
<svg xmlns="http://www.w3.org/2000/svg" xmlns:xlink="http://www.w3.org/1999/xlink" version="1.1" id="Layer_1" x="0px" y="0px" viewBox="0 0 512 512" style="enable-background:new 0 0 512 512;" xml:space="preserve">
<g>
	<path style="fill:#ECF0F1;" d="M494.345,512H17.655C7.91,512,0,504.09,0,494.345V70.621h512v423.724   C512,504.09,504.09,512,494.345,512"/>
	<path style="fill:#35495E;" d="M512,70.621H0V17.655C0,7.91,7.91,0,17.655,0h476.69C504.09,0,512,7.91,512,17.655V70.621z"/>
	<path style="fill:#E64C3C;" d="M44.138,35.31c0,4.873-3.955,8.828-8.828,8.828s-8.828-3.955-8.828-8.828s3.955-8.828,8.828-8.828   S44.138,30.438,44.138,35.31"/>
	<path style="fill:#F0C419;" d="M79.448,35.31c0,4.873-3.955,8.828-8.828,8.828s-8.828-3.955-8.828-8.828s3.955-8.828,8.828-8.828   S79.448,30.438,79.448,35.31"/>
	<path style="fill:#24AE5F;" d="M114.759,35.31c0,4.873-3.955,8.828-8.828,8.828c-4.873,0-8.828-3.955-8.828-8.828   s3.955-8.828,8.828-8.828C110.804,26.483,114.759,30.438,114.759,35.31"/>
	<g>
		<path style="fill:#84B5CB;" d="M141.241,361.931c-4.873,0-8.828-3.955-8.828-8.828V247.172c0-4.873,3.955-8.828,8.828-8.828    s8.828,3.955,8.828,8.828v105.931C150.069,357.976,146.114,361.931,141.241,361.931"/>
		<path style="fill:#84B5CB;" d="M150.069,291.31h26.483c4.864,0,8.828-3.964,8.828-8.828v-17.655c0-4.864-3.964-8.828-8.828-8.828    h-26.483V291.31z M176.552,308.966h-35.31c-4.873,0-8.828-3.955-8.828-8.828v-52.966c0-4.873,3.955-8.828,8.828-8.828h35.31    c14.601,0,26.483,11.882,26.483,26.483v17.655C203.034,297.084,191.153,308.966,176.552,308.966L176.552,308.966z"/>
		<path style="fill:#84B5CB;" d="M317.793,361.931c-4.873,0-8.828-3.955-8.828-8.828V247.172c0-4.873,3.955-8.828,8.828-8.828    c4.873,0,8.828,3.955,8.828,8.828v105.931C326.621,357.976,322.666,361.931,317.793,361.931"/>
		<path style="fill:#84B5CB;" d="M326.621,291.31h26.483c4.864,0,8.828-3.964,8.828-8.828v-17.655c0-4.864-3.964-8.828-8.828-8.828    h-26.483V291.31z M353.103,308.966h-35.31c-4.873,0-8.828-3.955-8.828-8.828v-52.966c0-4.873,3.955-8.828,8.828-8.828h35.31    c14.601,0,26.483,11.882,26.483,26.483v17.655C379.586,297.084,367.704,308.966,353.103,308.966L353.103,308.966z"/>
		<path style="fill:#84B5CB;" d="M229.517,361.931c-4.873,0-8.828-3.955-8.828-8.828V247.172c0-4.873,3.955-8.828,8.828-8.828    s8.828,3.955,8.828,8.828v105.931C238.345,357.976,234.39,361.931,229.517,361.931"/>
		<path style="fill:#84B5CB;" d="M282.483,361.931c-4.873,0-8.828-3.955-8.828-8.828v-35.31c0-4.864-3.964-8.828-8.828-8.828h-35.31    c-4.873,0-8.828-3.955-8.828-8.828c0-4.873,3.955-8.828,8.828-8.828h35.31c14.601,0,26.483,11.882,26.483,26.483v35.31    C291.31,357.976,287.356,361.931,282.483,361.931"/>
		<path style="fill:#84B5CB;" d="M123.586,388.414c-19.474,0-35.31-15.837-35.31-35.31v-31.656L64.38,297.551    c-3.452-3.452-3.452-9.031,0-12.482l23.896-23.896v-31.656c0-19.474,15.837-35.31,35.31-35.31c4.873,0,8.828,3.955,8.828,8.828    c0,4.873-3.955,8.828-8.828,8.828c-9.737,0-17.655,7.918-17.655,17.655v35.31c0,2.339-0.927,4.59-2.586,6.241L83.103,291.31    l20.242,20.242c1.66,1.651,2.586,3.902,2.586,6.241v35.31c0,9.737,7.918,17.655,17.655,17.655c4.873,0,8.828,3.955,8.828,8.828    S128.459,388.414,123.586,388.414"/>
		<path style="fill:#84B5CB;" d="M388.414,388.414c-4.873,0-8.828-3.955-8.828-8.828s3.955-8.828,8.828-8.828    c9.737,0,17.655-7.918,17.655-17.655v-35.31c0-2.339,0.927-4.59,2.586-6.241l20.242-20.242l-20.242-20.242    c-1.66-1.66-2.586-3.911-2.586-6.259l0.071-35.31c0-9.719-7.954-17.638-17.726-17.638c-4.873,0-8.828-3.955-8.828-8.828    c0-4.873,3.955-8.828,8.828-8.828c19.509,0,35.381,15.837,35.381,35.31l-0.062,31.656l23.887,23.896    c3.452,3.452,3.452,9.031,0,12.482l-23.896,23.896v31.656C423.724,372.577,407.887,388.414,388.414,388.414"/>
	</g>
</g>
<g>
</g>
<g>
</g>
<g>
</g>
<g>
</g>
<g>
</g>
<g>
</g>
<g>
</g>
<g>
</g>
<g>
</g>
<g>
</g>
<g>
</g>
<g>
</g>
<g>
</g>
<g>
</g>
<g>
</g>
</svg>
