<?xml version="1.0" encoding="iso-8859-1"?>
<!-- Generator: Adobe Illustrator 19.0.0, SVG Export Plug-In . SVG Version: 6.00 Build 0)  -->
<svg xmlns="http://www.w3.org/2000/svg" xmlns:xlink="http://www.w3.org/1999/xlink" version="1.1" id="Layer_1" x="0px" y="0px" viewBox="0 0 512 512" style="enable-background:new 0 0 512 512;" xml:space="preserve">
<g>
	<path style="fill:#ECF0F1;" d="M494.345,512H17.655C7.91,512,0,504.09,0,494.345V70.621h512v423.724   C512,504.09,504.09,512,494.345,512"/>
	<path style="fill:#35495E;" d="M512,70.621H0V17.655C0,7.91,7.91,0,17.655,0h476.69C504.09,0,512,7.91,512,17.655V70.621z"/>
	<path style="fill:#E64C3C;" d="M44.138,35.31c0,4.873-3.955,8.828-8.828,8.828s-8.828-3.955-8.828-8.828s3.955-8.828,8.828-8.828   S44.138,30.438,44.138,35.31"/>
	<path style="fill:#F0C419;" d="M79.448,35.31c0,4.873-3.955,8.828-8.828,8.828s-8.828-3.955-8.828-8.828s3.955-8.828,8.828-8.828   S79.448,30.438,79.448,35.31"/>
	<path style="fill:#24AE5F;" d="M114.759,35.31c0,4.873-3.955,8.828-8.828,8.828c-4.873,0-8.828-3.955-8.828-8.828   s3.955-8.828,8.828-8.828C110.804,26.483,114.759,30.438,114.759,35.31"/>
	<g>
		<path style="fill:#F29C1F;" d="M79.457,370.759c-2.754,0-5.473-1.289-7.194-3.699l-44.138-61.793    c-2.189-3.072-2.189-7.186,0-10.258l44.138-61.793c2.834-3.972,8.351-4.89,12.314-2.057c3.972,2.834,4.89,8.351,2.057,12.314    l-40.474,56.664l40.474,56.664c2.834,3.964,1.916,9.481-2.057,12.314C83.023,370.22,81.231,370.759,79.457,370.759"/>
		<path style="fill:#F29C1F;" d="M432.543,370.759c-1.774,0-3.566-0.538-5.12-1.642c-3.972-2.834-4.89-8.351-2.057-12.314    l40.474-56.664l-40.474-56.664c-2.834-3.964-1.916-9.481,2.057-12.314c3.955-2.834,9.472-1.916,12.314,2.057l44.138,61.793    c2.189,3.072,2.189,7.186,0,10.258l-44.138,61.793C438.016,369.47,435.297,370.759,432.543,370.759"/>
		<path style="fill:#F29C1F;" d="M167.724,361.931c-34.074,0-61.793-27.719-61.793-61.793s27.719-61.793,61.793-61.793    c15.228,0,29.846,5.588,41.19,15.731c3.628,3.249,3.937,8.828,0.689,12.456c-3.24,3.637-8.828,3.955-12.456,0.697    C189.052,259.99,178.6,256,167.724,256c-24.338,0-44.138,19.8-44.138,44.138c0,24.338,19.8,44.138,44.138,44.138    c10.876,0,21.336-3.99,29.422-11.237c3.646-3.257,9.225-2.94,12.473,0.689c3.249,3.637,2.94,9.216-0.697,12.465    C197.588,356.343,182.961,361.931,167.724,361.931"/>
		<path style="fill:#F29C1F;" d="M273.655,361.931c-19.474,0-35.31-15.837-35.31-35.31c0-4.873,3.955-8.828,8.828-8.828    c4.873,0,8.828,3.955,8.828,8.828c0,9.737,7.918,17.655,17.655,17.655c9.737,0,17.655-7.918,17.655-17.655    c0-9.737-7.918-17.655-17.655-17.655c-19.474,0-35.31-15.837-35.31-35.31s15.837-35.31,35.31-35.31s35.31,15.837,35.31,35.31    c0,4.873-3.955,8.828-8.828,8.828c-4.873,0-8.828-3.955-8.828-8.828c0-9.737-7.918-17.655-17.655-17.655    c-9.737,0-17.655,7.918-17.655,17.655c0,9.737,7.918,17.655,17.655,17.655c19.474,0,35.31,15.837,35.31,35.31    S293.129,361.931,273.655,361.931"/>
		<path style="fill:#F29C1F;" d="M370.759,361.931c-19.474,0-35.31-15.837-35.31-35.31c0-4.873,3.955-8.828,8.828-8.828    c4.873,0,8.828,3.955,8.828,8.828c0,9.737,7.918,17.655,17.655,17.655c9.737,0,17.655-7.918,17.655-17.655    c0-9.737-7.918-17.655-17.655-17.655c-19.474,0-35.31-15.837-35.31-35.31s15.837-35.31,35.31-35.31    c19.474,0,35.31,15.837,35.31,35.31c0,4.873-3.955,8.828-8.828,8.828c-4.873,0-8.828-3.955-8.828-8.828    c0-9.737-7.918-17.655-17.655-17.655c-9.737,0-17.655,7.918-17.655,17.655c0,9.737,7.918,17.655,17.655,17.655    c19.474,0,35.31,15.837,35.31,35.31S390.232,361.931,370.759,361.931"/>
	</g>
</g>
<g>
</g>
<g>
</g>
<g>
</g>
<g>
</g>
<g>
</g>
<g>
</g>
<g>
</g>
<g>
</g>
<g>
</g>
<g>
</g>
<g>
</g>
<g>
</g>
<g>
</g>
<g>
</g>
<g>
</g>
</svg>
