<?xml version="1.0" encoding="iso-8859-1"?>
<!-- Generator: Adobe Illustrator 19.0.0, SVG Export Plug-In . SVG Version: 6.00 Build 0)  -->
<svg xmlns="http://www.w3.org/2000/svg" xmlns:xlink="http://www.w3.org/1999/xlink" version="1.1" id="Layer_1" x="0px" y="0px" viewBox="0 0 512 512" style="enable-background:new 0 0 512 512;" xml:space="preserve">
<g>
	<path style="fill:#ECF0F1;" d="M494.345,512H17.655C7.91,512,0,504.09,0,494.345V70.621h512v423.724   C512,504.09,504.09,512,494.345,512"/>
	<path style="fill:#35495E;" d="M512,70.621H0V17.655C0,7.91,7.91,0,17.655,0h476.69C504.09,0,512,7.91,512,17.655V70.621z"/>
	<path style="fill:#E64C3C;" d="M44.138,35.31c0,4.873-3.955,8.828-8.828,8.828s-8.828-3.955-8.828-8.828s3.955-8.828,8.828-8.828   S44.138,30.438,44.138,35.31"/>
	<path style="fill:#F0C419;" d="M79.448,35.31c0,4.873-3.955,8.828-8.828,8.828s-8.828-3.955-8.828-8.828s3.955-8.828,8.828-8.828   S79.448,30.438,79.448,35.31"/>
	<path style="fill:#24AE5F;" d="M114.759,35.31c0,4.873-3.955,8.828-8.828,8.828c-4.873,0-8.828-3.955-8.828-8.828   s3.955-8.828,8.828-8.828C110.804,26.483,114.759,30.438,114.759,35.31"/>
	<g>
		<path style="fill:#285680;" d="M79.457,370.759c-2.754,0-5.473-1.289-7.194-3.699l-44.138-61.793    c-2.189-3.072-2.189-7.186,0-10.258l44.138-61.793c2.834-3.972,8.36-4.89,12.314-2.057c3.972,2.834,4.89,8.351,2.057,12.314    l-40.474,56.664l40.474,56.664c2.834,3.964,1.916,9.481-2.057,12.314C83.023,370.22,81.231,370.759,79.457,370.759"/>
		<path style="fill:#285680;" d="M432.543,370.759c-1.774,0-3.566-0.538-5.12-1.642c-3.972-2.834-4.89-8.351-2.057-12.314    l40.474-56.664l-40.474-56.664c-2.834-3.964-1.916-9.481,2.057-12.314c3.955-2.834,9.481-1.916,12.314,2.057l44.138,61.793    c2.189,3.072,2.189,7.186,0,10.258l-44.138,61.793C438.016,369.47,435.297,370.759,432.543,370.759"/>
		<path style="fill:#285680;" d="M105.931,344.276c-4.873,0-8.828-3.955-8.828-8.828v-70.621c0-4.873,3.955-8.828,8.828-8.828    c4.873,0,8.828,3.955,8.828,8.828v70.621C114.759,340.321,110.804,344.276,105.931,344.276"/>
		<path style="fill:#285680;" d="M158.897,344.276c-4.873,0-8.828-3.955-8.828-8.828v-70.621c0-4.873,3.955-8.828,8.828-8.828    c4.873,0,8.828,3.955,8.828,8.828v70.621C167.724,340.321,163.769,344.276,158.897,344.276"/>
		<path style="fill:#285680;" d="M158.897,308.966h-52.966c-4.873,0-8.828-3.955-8.828-8.828c0-4.873,3.955-8.828,8.828-8.828    h52.966c4.873,0,8.828,3.955,8.828,8.828C167.724,305.011,163.769,308.966,158.897,308.966"/>
		<path style="fill:#285680;" d="M247.172,273.655h-52.966c-4.873,0-8.828-3.955-8.828-8.828s3.955-8.828,8.828-8.828h52.966    c4.873,0,8.828,3.955,8.828,8.828S252.045,273.655,247.172,273.655"/>
		<path style="fill:#285680;" d="M220.69,344.276c-4.873,0-8.828-3.955-8.828-8.828v-70.621c0-4.873,3.955-8.828,8.828-8.828    c4.873,0,8.828,3.955,8.828,8.828v70.621C229.517,340.321,225.562,344.276,220.69,344.276"/>
		<path style="fill:#285680;" d="M335.448,344.276c-4.873,0-8.828-3.955-8.828-8.828V291.31l-10.593,14.124    c-3.328,4.449-10.796,4.449-14.124,0L291.31,291.31v44.138c0,4.873-3.955,8.828-8.828,8.828c-4.873,0-8.828-3.955-8.828-8.828    v-70.621c0-3.805,2.428-7.177,6.038-8.377c3.602-1.201,7.574,0.044,9.852,3.081l19.421,25.891l19.421-25.891    c2.278-3.037,6.259-4.273,9.852-3.081c3.61,1.201,6.038,4.573,6.038,8.377v70.621    C344.276,340.321,340.321,344.276,335.448,344.276"/>
		<path style="fill:#285680;" d="M406.069,344.276h-35.31c-4.873,0-8.828-3.955-8.828-8.828v-70.621    c0-4.873,3.955-8.828,8.828-8.828c4.873,0,8.828,3.955,8.828,8.828v61.793h26.483c4.873,0,8.828,3.955,8.828,8.828    S410.942,344.276,406.069,344.276"/>
	</g>
</g>
<g>
</g>
<g>
</g>
<g>
</g>
<g>
</g>
<g>
</g>
<g>
</g>
<g>
</g>
<g>
</g>
<g>
</g>
<g>
</g>
<g>
</g>
<g>
</g>
<g>
</g>
<g>
</g>
<g>
</g>
</svg>
