<?xml version="1.0" encoding="iso-8859-1"?>
<!-- Generator: Adobe Illustrator 19.0.0, SVG Export Plug-In . SVG Version: 6.00 Build 0)  -->
<svg xmlns="http://www.w3.org/2000/svg" xmlns:xlink="http://www.w3.org/1999/xlink" version="1.1" id="Layer_1" x="0px" y="0px" viewBox="0 0 512 512" style="enable-background:new 0 0 512 512;" xml:space="preserve">
<g>
	<polygon style="fill:#BDC3C7;" points="459.034,105.931 353.103,105.931 353.103,0  "/>
	<polygon style="fill:#ECF0F1;" points="459.034,105.931 353.103,105.931 353.103,0 52.966,0 52.966,512 459.034,512  "/>
	<path style="fill:#13A085;" d="M256,256h-61.793V123.586c0-4.873-3.946-8.828-8.828-8.828h-17.655   c-4.882,0-8.828,3.955-8.828,8.828v335.448c0,4.873,3.946,8.828,8.828,8.828h17.655c4.882,0,8.828-3.955,8.828-8.828V291.31H256   c34.127,0,61.793,27.666,61.793,61.793v105.931c0,4.873,3.946,8.828,8.828,8.828h17.655c4.882,0,8.828-3.955,8.828-8.828V353.103   C353.103,299.476,309.628,256,256,256"/>
</g>
<g>
</g>
<g>
</g>
<g>
</g>
<g>
</g>
<g>
</g>
<g>
</g>
<g>
</g>
<g>
</g>
<g>
</g>
<g>
</g>
<g>
</g>
<g>
</g>
<g>
</g>
<g>
</g>
<g>
</g>
</svg>
