<?xml version="1.0" encoding="iso-8859-1"?>
<!-- Generator: Adobe Illustrator 19.0.0, SVG Export Plug-In . SVG Version: 6.00 Build 0)  -->
<svg xmlns="http://www.w3.org/2000/svg" xmlns:xlink="http://www.w3.org/1999/xlink" version="1.1" id="Layer_1" x="0px" y="0px" viewBox="0 0 512 512" style="enable-background:new 0 0 512 512;" xml:space="preserve">
<g>
	<polygon style="fill:#BDC3C7;" points="459.034,105.931 353.103,105.931 353.103,0  "/>
	<polygon style="fill:#ECF0F1;" points="459.034,105.931 353.103,105.931 353.103,0 52.966,0 52.966,512 459.034,512  "/>
	<polygon style="fill:#FFFFFF;" points="123.586,441.379 123.586,70.621 300.138,70.621 300.138,158.897 388.414,158.897    388.414,441.379  "/>
	<path style="fill:#5889C4;" d="M335.474,441.379c8.783,0,12.129-10.717,4.732-15.378l-28.363-17.832   c-7.053-3.778-11.705-16.861-11.705-24.753v-21.645c0,0,16.031-12.729,22.051-38.497c4.988-3.169,13.259-8.66,13.259-14.901V284.69   c0-5.217-5.164-12.341-8.828-15.607v-20.877c0,0,2.578-53.928-70.621-53.998c-73.198,0.071-70.621,53.998-70.621,53.998v20.877   c-3.663,3.266-8.828,10.39-8.828,15.607v23.684c0,6.241,8.28,11.732,13.259,14.901c6.02,25.768,22.051,38.497,22.051,38.497v21.645   c0,7.892-4.652,20.974-11.705,24.753l-28.363,17.832c-7.398,4.661-4.052,15.378,4.732,15.378H335.474z"/>
</g>
<g>
</g>
<g>
</g>
<g>
</g>
<g>
</g>
<g>
</g>
<g>
</g>
<g>
</g>
<g>
</g>
<g>
</g>
<g>
</g>
<g>
</g>
<g>
</g>
<g>
</g>
<g>
</g>
<g>
</g>
</svg>
