<?xml version="1.0" encoding="iso-8859-1"?>
<!-- Generator: Adobe Illustrator 19.0.0, SVG Export Plug-In . SVG Version: 6.00 Build 0)  -->
<svg xmlns="http://www.w3.org/2000/svg" xmlns:xlink="http://www.w3.org/1999/xlink" version="1.1" id="Layer_1" x="0px" y="0px" viewBox="0 0 512 512" style="enable-background:new 0 0 512 512;" xml:space="preserve">
<g>
	<polygon style="fill:#BDC3C7;" points="406.069,105.931 300.138,105.931 300.138,0  "/>
	<polygon style="fill:#E96360;" points="264.828,388.414 512,388.414 512,211.862 264.828,211.862  "/>
	<polygon style="fill:#ECF0F1;" points="264.828,388.414 264.828,211.862 406.069,211.862 406.069,105.931 300.138,105.931    300.138,0 0,0 0,512 406.069,512 406.069,388.414  "/>
	<g>
		<path style="fill:#FFFFFF;" d="M361.931,361.931c-2.26,0-4.52-0.865-6.241-2.586l-52.966-52.966    c-3.452-3.452-3.452-9.031,0-12.482l52.966-52.966c3.452-3.452,9.031-3.452,12.482,0s3.452,9.031,0,12.482l-46.724,46.724    l46.724,46.724c3.452,3.452,3.452,9.031,0,12.482C366.451,361.066,364.191,361.931,361.931,361.931"/>
		<path style="fill:#FFFFFF;" d="M414.897,361.931c-2.26,0-4.52-0.865-6.241-2.586c-3.452-3.452-3.452-9.031,0-12.482l46.724-46.724    l-46.724-46.724c-3.452-3.452-3.452-9.031,0-12.482c3.452-3.452,9.031-3.452,12.482,0l52.966,52.966    c3.452,3.452,3.452,9.031,0,12.482l-52.966,52.966C419.416,361.066,417.156,361.931,414.897,361.931"/>
	</g>
</g>
<g>
</g>
<g>
</g>
<g>
</g>
<g>
</g>
<g>
</g>
<g>
</g>
<g>
</g>
<g>
</g>
<g>
</g>
<g>
</g>
<g>
</g>
<g>
</g>
<g>
</g>
<g>
</g>
<g>
</g>
</svg>
