<?xml version="1.0" encoding="iso-8859-1"?>
<!-- Generator: Adobe Illustrator 19.0.0, SVG Export Plug-In . SVG Version: 6.00 Build 0)  -->
<svg xmlns="http://www.w3.org/2000/svg" xmlns:xlink="http://www.w3.org/1999/xlink" version="1.1" id="Layer_1" x="0px" y="0px" viewBox="0 0 512 512" style="enable-background:new 0 0 512 512;" xml:space="preserve">
<g>
	<polygon style="fill:#BDC3C7;" points="406.069,105.931 300.138,105.931 300.138,0  "/>
	<polygon style="fill:#84B5CB;" points="123.586,406.069 512,406.069 512,194.207 123.586,194.207  "/>
	<polygon style="fill:#ECF0F1;" points="123.586,406.069 123.586,194.207 406.069,194.207 406.069,105.931 300.138,105.931    300.138,0 0,0 0,512 406.069,512 406.069,406.069  "/>
	<g>
		<path style="fill:#FFFFFF;" d="M370.759,238.345H264.828c-4.873,0-8.828-3.955-8.828-8.828s3.955-8.828,8.828-8.828h105.931    c4.873,0,8.828,3.955,8.828,8.828S375.631,238.345,370.759,238.345"/>
		<path style="fill:#FFFFFF;" d="M317.793,379.586c-4.873,0-8.828-3.955-8.828-8.828V229.517c0-4.873,3.955-8.828,8.828-8.828    c4.873,0,8.828,3.955,8.828,8.828v141.241C326.621,375.631,322.666,379.586,317.793,379.586"/>
		<path style="fill:#FFFFFF;" d="M167.724,361.931h8.863c24.32,0,44.103-19.783,44.103-44.103v-35.381    c0-24.32-19.783-44.103-44.103-44.103h-8.863V361.931z M176.587,379.586h-17.69c-4.873,0-8.828-3.955-8.828-8.828V229.517    c0-4.873,3.955-8.828,8.828-8.828h17.69c34.057,0,61.758,27.701,61.758,61.758v35.381    C238.345,351.885,210.644,379.586,176.587,379.586L176.587,379.586z"/>
		<path style="fill:#FFFFFF;" d="M414.897,361.931h8.863c24.32,0,44.103-19.783,44.103-44.103v-35.381    c0-24.32-19.783-44.103-44.103-44.103h-8.863V361.931z M423.759,379.586h-17.69c-4.873,0-8.828-3.955-8.828-8.828V229.517    c0-4.873,3.955-8.828,8.828-8.828h17.69c34.057,0,61.758,27.701,61.758,61.758v35.381    C485.517,351.885,457.816,379.586,423.759,379.586L423.759,379.586z"/>
	</g>
</g>
<g>
</g>
<g>
</g>
<g>
</g>
<g>
</g>
<g>
</g>
<g>
</g>
<g>
</g>
<g>
</g>
<g>
</g>
<g>
</g>
<g>
</g>
<g>
</g>
<g>
</g>
<g>
</g>
<g>
</g>
</svg>
