<?xml version="1.0" encoding="iso-8859-1"?>
<!-- Generator: Adobe Illustrator 19.0.0, SVG Export Plug-In . SVG Version: 6.00 Build 0)  -->
<svg xmlns="http://www.w3.org/2000/svg" xmlns:xlink="http://www.w3.org/1999/xlink" version="1.1" id="Layer_1" x="0px" y="0px" viewBox="0 0 512 512" style="enable-background:new 0 0 512 512;" xml:space="preserve">
<g>
	<polygon style="fill:#BDC3C7;" points="406.069,105.931 300.138,105.931 300.138,0  "/>
	<polygon style="fill:#26B99A;" points="105.931,406.069 512,406.069 512,194.207 105.931,194.207  "/>
	<polygon style="fill:#ECF0F1;" points="105.931,406.069 105.931,194.207 406.069,194.207 406.069,105.931 300.138,105.931    300.138,0 0,0 0,512 406.069,512 406.069,406.069  "/>
	<g>
		<path style="fill:#FFFFFF;" d="M476.698,379.586c-2.94,0-5.817-1.474-7.495-4.149l-88.276-141.241    c-2.586-4.131-1.333-9.578,2.807-12.164c4.131-2.586,9.578-1.324,12.164,2.807l88.276,141.241    c2.586,4.131,1.333,9.578-2.807,12.164C479.912,379.154,478.296,379.586,476.698,379.586"/>
		<path style="fill:#FFFFFF;" d="M388.405,379.586c-1.598,0-3.213-0.433-4.67-1.342c-4.14-2.586-5.394-8.033-2.807-12.164    l88.276-141.241c2.578-4.14,8.042-5.402,12.164-2.807c4.14,2.586,5.394,8.033,2.807,12.164L395.9,375.437    C394.222,378.112,391.345,379.586,388.405,379.586"/>
		<path style="fill:#FFFFFF;" d="M317.793,379.586c-24.338,0-44.138-19.8-44.138-44.138c0-4.873,3.955-8.828,8.828-8.828    c4.873,0,8.828,3.955,8.828,8.828c0,14.601,11.882,26.483,26.483,26.483c14.601,0,26.483-11.882,26.483-26.483    s-11.882-26.483-26.483-26.483c-24.338,0-44.138-19.8-44.138-44.138c0-24.338,19.8-44.138,44.138-44.138    c24.338,0,44.138,19.8,44.138,44.138c0,4.873-3.955,8.828-8.828,8.828c-4.873,0-8.828-3.955-8.828-8.828    c0-14.601-11.882-26.483-26.483-26.483c-14.601,0-26.483,11.882-26.483,26.483c0,14.601,11.882,26.483,26.483,26.483    c24.338,0,44.138,19.8,44.138,44.138S342.131,379.586,317.793,379.586"/>
		<path style="fill:#FFFFFF;" d="M247.172,238.345H141.241c-4.873,0-8.828-3.955-8.828-8.828s3.955-8.828,8.828-8.828h105.931    c4.873,0,8.828,3.955,8.828,8.828S252.045,238.345,247.172,238.345"/>
		<path style="fill:#FFFFFF;" d="M194.207,379.586c-4.873,0-8.828-3.955-8.828-8.828V229.517c0-4.873,3.955-8.828,8.828-8.828    s8.828,3.955,8.828,8.828v141.241C203.034,375.631,199.08,379.586,194.207,379.586"/>
	</g>
</g>
<g>
</g>
<g>
</g>
<g>
</g>
<g>
</g>
<g>
</g>
<g>
</g>
<g>
</g>
<g>
</g>
<g>
</g>
<g>
</g>
<g>
</g>
<g>
</g>
<g>
</g>
<g>
</g>
<g>
</g>
</svg>
