<?xml version="1.0" encoding="iso-8859-1"?>
<!-- Generator: Adobe Illustrator 19.0.0, SVG Export Plug-In . SVG Version: 6.00 Build 0)  -->
<svg xmlns="http://www.w3.org/2000/svg" xmlns:xlink="http://www.w3.org/1999/xlink" version="1.1" id="Layer_1" x="0px" y="0px" viewBox="0 0 512 512" style="enable-background:new 0 0 512 512;" xml:space="preserve">
<g>
	<polygon style="fill:#ECF0F1;" points="432.552,335.448 432.552,105.931 326.621,105.931 326.621,0 26.483,0 26.483,512    308.966,512 308.966,335.448  "/>
	<polygon style="fill:#FFFFFF;" points="308.966,335.448 361.931,335.448 361.931,158.897 273.655,158.897 273.655,70.621    97.103,70.621 97.103,441.379 308.966,441.379  "/>
	<polygon style="fill:#BDC3C7;" points="432.552,105.931 326.621,105.931 326.621,0  "/>
	<g>
		<path style="fill:#E57E25;" d="M308.966,397.241c-4.882,0-8.828-3.955-8.828-8.828v-79.448c0-34.074-27.727-61.793-61.793-61.793    h-88.276c-4.882,0-8.828-3.955-8.828-8.828c0-4.873,3.946-8.828,8.828-8.828h88.276c43.811,0,79.448,35.646,79.448,79.448v79.448    C317.793,393.287,313.847,397.241,308.966,397.241"/>
		<path style="fill:#E57E25;" d="M150.069,397.241c-4.882,0-8.828-3.955-8.828-8.828V123.586c0-4.873,3.946-8.828,8.828-8.828    c4.882,0,8.828,3.955,8.828,8.828v264.828C158.897,393.287,154.951,397.241,150.069,397.241"/>
	</g>
	<polygon style="fill:#F0C419;" points="300.138,512 485.517,512 485.517,335.448 300.138,335.448  "/>
</g>
<g>
</g>
<g>
</g>
<g>
</g>
<g>
</g>
<g>
</g>
<g>
</g>
<g>
</g>
<g>
</g>
<g>
</g>
<g>
</g>
<g>
</g>
<g>
</g>
<g>
</g>
<g>
</g>
<g>
</g>
</svg>
