<?xml version="1.0" encoding="iso-8859-1"?>
<!-- Generator: Adobe Illustrator 19.0.0, SVG Export Plug-In . SVG Version: 6.00 Build 0)  -->
<svg xmlns="http://www.w3.org/2000/svg" xmlns:xlink="http://www.w3.org/1999/xlink" version="1.1" id="Layer_1" x="0px" y="0px" viewBox="0 0 512 512" style="enable-background:new 0 0 512 512;" xml:space="preserve">
<g>
	<path style="fill:#ECF0F1;" d="M494.345,512H17.655C7.91,512,0,504.09,0,494.345V70.621h512v423.724   C512,504.09,504.09,512,494.345,512"/>
	<path style="fill:#35495E;" d="M512,70.621H0V17.655C0,7.91,7.91,0,17.655,0h476.69C504.09,0,512,7.91,512,17.655V70.621z"/>
	<path style="fill:#E64C3C;" d="M44.138,35.31c0,4.873-3.955,8.828-8.828,8.828s-8.828-3.955-8.828-8.828s3.955-8.828,8.828-8.828   S44.138,30.438,44.138,35.31"/>
	<path style="fill:#F0C419;" d="M79.448,35.31c0,4.873-3.955,8.828-8.828,8.828s-8.828-3.955-8.828-8.828s3.955-8.828,8.828-8.828   S79.448,30.438,79.448,35.31"/>
	<path style="fill:#24AE5F;" d="M114.759,35.31c0,4.873-3.955,8.828-8.828,8.828c-4.873,0-8.828-3.955-8.828-8.828   s3.955-8.828,8.828-8.828C110.804,26.483,114.759,30.438,114.759,35.31"/>
	<path style="fill:#F0C419;" d="M141.241,203.034c0,4.873-3.955,8.828-8.828,8.828c-4.873,0-8.828-3.955-8.828-8.828   c0-4.873,3.955-8.828,8.828-8.828C137.287,194.207,141.241,198.162,141.241,203.034"/>
	<path style="fill:#26B99A;" d="M88.276,211.862c-2.26,0-4.52-0.865-6.241-2.586l-44.138-44.138c-3.452-3.452-3.452-9.031,0-12.482   l44.138-44.138c3.452-3.452,9.031-3.452,12.482,0s3.452,9.031,0,12.482L56.62,158.897l37.897,37.897   c3.452,3.452,3.452,9.031,0,12.482C92.796,210.997,90.536,211.862,88.276,211.862"/>
	<path style="fill:#F0C419;" d="M132.414,176.552c-4.873,0-8.828-3.955-8.828-8.828v-52.966c0-4.873,3.955-8.828,8.828-8.828   c4.873,0,8.828,3.955,8.828,8.828v52.966C141.241,172.597,137.287,176.552,132.414,176.552"/>
	<g>
		<path style="fill:#35495E;" d="M194.207,211.862h-17.655c-4.873,0-8.828-3.955-8.828-8.828c0-4.873,3.955-8.828,8.828-8.828    h17.655c4.873,0,8.828,3.955,8.828,8.828C203.034,207.907,199.08,211.862,194.207,211.862"/>
		<path style="fill:#35495E;" d="M247.172,211.862h-17.655c-4.873,0-8.828-3.955-8.828-8.828c0-4.873,3.955-8.828,8.828-8.828    h17.655c4.873,0,8.828,3.955,8.828,8.828C256,207.907,252.045,211.862,247.172,211.862"/>
	</g>
</g>
<g>
</g>
<g>
</g>
<g>
</g>
<g>
</g>
<g>
</g>
<g>
</g>
<g>
</g>
<g>
</g>
<g>
</g>
<g>
</g>
<g>
</g>
<g>
</g>
<g>
</g>
<g>
</g>
<g>
</g>
</svg>
