<?xml version="1.0" encoding="iso-8859-1"?>
<!-- Generator: Adobe Illustrator 19.0.0, SVG Export Plug-In . SVG Version: 6.00 Build 0)  -->
<svg xmlns="http://www.w3.org/2000/svg" xmlns:xlink="http://www.w3.org/1999/xlink" version="1.1" id="Layer_1" x="0px" y="0px" viewBox="0 0 512 512" style="enable-background:new 0 0 512 512;" xml:space="preserve">
<g>
	<polygon style="fill:#BDC3C7;" points="459.034,105.931 353.103,105.931 353.103,0  "/>
	<polygon style="fill:#ECF0F1;" points="459.034,105.931 353.103,105.931 353.103,0 52.966,0 52.966,512 459.034,512  "/>
	<polygon style="fill:#FFFFFF;" points="123.586,441.379 123.586,70.621 300.138,70.621 300.138,158.897 388.414,158.897    388.414,441.379  "/>
	<g>
		<path style="fill:#E57E25;" d="M335.448,397.241c-4.882,0-8.828-3.955-8.828-8.828v-79.448c0-34.074-27.727-61.793-61.793-61.793    h-88.276c-4.882,0-8.828-3.955-8.828-8.828c0-4.873,3.946-8.828,8.828-8.828h88.276c43.811,0,79.448,35.646,79.448,79.448v79.448    C344.276,393.287,340.33,397.241,335.448,397.241"/>
		<path style="fill:#E57E25;" d="M176.552,397.241c-4.882,0-8.828-3.955-8.828-8.828V123.586c0-4.873,3.946-8.828,8.828-8.828    c4.882,0,8.828,3.955,8.828,8.828v264.828C185.379,393.287,181.433,397.241,176.552,397.241"/>
	</g>
</g>
<g>
</g>
<g>
</g>
<g>
</g>
<g>
</g>
<g>
</g>
<g>
</g>
<g>
</g>
<g>
</g>
<g>
</g>
<g>
</g>
<g>
</g>
<g>
</g>
<g>
</g>
<g>
</g>
<g>
</g>
</svg>
