<?xml version="1.0" encoding="iso-8859-1"?>
<!-- Generator: Adobe Illustrator 19.0.0, SVG Export Plug-In . SVG Version: 6.00 Build 0)  -->
<svg xmlns="http://www.w3.org/2000/svg" xmlns:xlink="http://www.w3.org/1999/xlink" version="1.1" id="Layer_1" x="0px" y="0px" viewBox="0 0 512 512" style="enable-background:new 0 0 512 512;" xml:space="preserve">
<g>
	<polygon style="fill:#BDC3C7;" points="406.069,105.931 300.138,105.931 300.138,0  "/>
	<polygon style="fill:#E57E25;" points="176.552,406.069 512,406.069 512,194.207 176.552,194.207  "/>
	<polygon style="fill:#ECF0F1;" points="176.552,406.069 176.552,194.207 406.069,194.207 406.069,105.931 300.138,105.931    300.138,0 0,0 0,512 406.069,512 406.069,406.069  "/>
	<g>
		<path style="fill:#FFFFFF;" d="M282.483,361.931h8.872c24.311,0,44.094-19.783,44.094-44.103v-35.381    c0-24.32-19.783-44.103-44.094-44.103h-8.872V361.931z M291.354,379.586h-17.699c-4.882,0-8.828-3.955-8.828-8.828V229.517    c0-4.873,3.946-8.828,8.828-8.828h17.699c34.048,0,61.749,27.701,61.749,61.758v35.381    C353.103,351.885,325.402,379.586,291.354,379.586L291.354,379.586z"/>
		<path style="fill:#FFFFFF;" d="M229.517,379.586c-4.882,0-8.828-3.955-8.828-8.828V229.517c0-4.873,3.946-8.828,8.828-8.828    s8.828,3.955,8.828,8.828v141.241C238.345,375.631,234.399,379.586,229.517,379.586"/>
		<path style="fill:#FFFFFF;" d="M459.034,379.586h-70.621c-4.882,0-8.828-3.955-8.828-8.828V229.517    c0-4.873,3.946-8.828,8.828-8.828c4.882,0,8.828,3.955,8.828,8.828v132.414h61.793c4.882,0,8.828,3.955,8.828,8.828    C467.862,375.631,463.916,379.586,459.034,379.586"/>
	</g>
</g>
<g>
</g>
<g>
</g>
<g>
</g>
<g>
</g>
<g>
</g>
<g>
</g>
<g>
</g>
<g>
</g>
<g>
</g>
<g>
</g>
<g>
</g>
<g>
</g>
<g>
</g>
<g>
</g>
<g>
</g>
</svg>
