<?xml version="1.0" encoding="iso-8859-1"?>
<!-- Generator: Adobe Illustrator 19.0.0, SVG Export Plug-In . SVG Version: 6.00 Build 0)  -->
<svg xmlns="http://www.w3.org/2000/svg" xmlns:xlink="http://www.w3.org/1999/xlink" version="1.1" id="Layer_1" x="0px" y="0px" viewBox="0 0 512 512" style="enable-background:new 0 0 512 512;" xml:space="preserve">
<g>
	<polygon style="fill:#BDC3C7;" points="406.069,105.931 300.138,105.931 300.138,0  "/>
	<polygon style="fill:#13A085;" points="211.862,414.897 512,414.897 512,238.345 211.862,238.345  "/>
	<polygon style="fill:#ECF0F1;" points="211.862,414.897 211.862,238.345 406.069,238.345 406.069,105.931 300.138,105.931    300.138,0 0,0 0,512 406.069,512 406.069,414.897  "/>
	<g>
		<path style="fill:#FFFFFF;" d="M247.172,388.414c-4.882,0-8.828-3.955-8.828-8.828V273.655c0-4.873,3.946-8.828,8.828-8.828    s8.828,3.955,8.828,8.828v105.931C256,384.459,252.054,388.414,247.172,388.414"/>
		<path style="fill:#FFFFFF;" d="M256,317.793h26.483c4.873,0,8.828-3.964,8.828-8.828V291.31c0-4.864-3.955-8.828-8.828-8.828H256    V317.793z M282.483,335.448h-35.31c-4.882,0-8.828-3.955-8.828-8.828v-52.966c0-4.873,3.946-8.828,8.828-8.828h35.31    c14.601,0,26.483,11.882,26.483,26.483v17.655C308.966,323.566,297.084,335.448,282.483,335.448L282.483,335.448z"/>
		<path style="fill:#FFFFFF;" d="M423.724,388.414c-4.882,0-8.828-3.955-8.828-8.828V273.655c0-4.873,3.946-8.828,8.828-8.828    c4.882,0,8.828,3.955,8.828,8.828v105.931C432.552,384.459,428.606,388.414,423.724,388.414"/>
		<path style="fill:#FFFFFF;" d="M432.552,317.793h26.483c4.873,0,8.828-3.964,8.828-8.828V291.31c0-4.864-3.955-8.828-8.828-8.828    h-26.483V317.793z M459.034,335.448h-35.31c-4.882,0-8.828-3.955-8.828-8.828v-52.966c0-4.873,3.946-8.828,8.828-8.828h35.31    c14.601,0,26.483,11.882,26.483,26.483v17.655C485.517,323.566,473.635,335.448,459.034,335.448L459.034,335.448z"/>
		<path style="fill:#FFFFFF;" d="M335.448,388.414c-4.882,0-8.828-3.955-8.828-8.828V273.655c0-4.873,3.946-8.828,8.828-8.828    c4.882,0,8.828,3.955,8.828,8.828v105.931C344.276,384.459,340.33,388.414,335.448,388.414"/>
		<path style="fill:#FFFFFF;" d="M388.414,388.414c-4.882,0-8.828-3.955-8.828-8.828v-35.31c0-4.864-3.955-8.828-8.828-8.828h-35.31    c-4.882,0-8.828-3.955-8.828-8.828c0-4.873,3.946-8.828,8.828-8.828h35.31c14.601,0,26.483,11.882,26.483,26.483v35.31    C397.241,384.459,393.295,388.414,388.414,388.414"/>
	</g>
</g>
<g>
</g>
<g>
</g>
<g>
</g>
<g>
</g>
<g>
</g>
<g>
</g>
<g>
</g>
<g>
</g>
<g>
</g>
<g>
</g>
<g>
</g>
<g>
</g>
<g>
</g>
<g>
</g>
<g>
</g>
</svg>
