<?xml version="1.0" encoding="iso-8859-1"?>
<!-- Generator: Adobe Illustrator 19.0.0, SVG Export Plug-In . SVG Version: 6.00 Build 0)  -->
<svg xmlns="http://www.w3.org/2000/svg" xmlns:xlink="http://www.w3.org/1999/xlink" version="1.1" id="Layer_1" x="0px" y="0px" viewBox="0 0 512 512" style="enable-background:new 0 0 512 512;" xml:space="preserve">
<g>
	<polygon style="fill:#BDC3C7;" points="406.069,105.931 300.138,105.931 300.138,0  "/>
	<polygon style="fill:#E96360;" points="97.103,406.069 512,406.069 512,194.207 97.103,194.207  "/>
	<path style="fill:#FFFFFF;" d="M291.31,379.586c-24.338,0-44.138-19.8-44.138-44.138c0-4.873,3.946-8.828,8.828-8.828   s8.828,3.955,8.828,8.828c0,14.601,11.882,26.483,26.483,26.483c14.601,0,26.483-11.882,26.483-26.483   s-11.882-26.483-26.483-26.483c-24.338,0-44.138-19.8-44.138-44.138c0-24.338,19.8-44.138,44.138-44.138   c24.338,0,44.138,19.8,44.138,44.138c0,4.873-3.946,8.828-8.828,8.828c-4.882,0-8.828-3.955-8.828-8.828   c0-14.601-11.882-26.483-26.483-26.483c-14.601,0-26.483,11.882-26.483,26.483c0,14.601,11.882,26.483,26.483,26.483   c24.338,0,44.138,19.8,44.138,44.138S315.648,379.586,291.31,379.586"/>
	<polygon style="fill:#ECF0F1;" points="97.103,406.069 97.103,194.207 406.069,194.207 406.069,105.931 300.138,105.931 300.138,0    0,0 0,512 406.069,512 406.069,406.069  "/>
	<g>
		<path style="fill:#FFFFFF;" d="M150.069,291.31h35.31c9.737,0,17.655-7.918,17.655-17.655V256c0-9.737-7.918-17.655-17.655-17.655    h-35.31V291.31z M185.379,308.966h-44.138c-4.882,0-8.828-3.955-8.828-8.828v-70.621c0-4.873,3.946-8.828,8.828-8.828h44.138    c19.474,0,35.31,15.837,35.31,35.31v17.655C220.69,293.129,204.853,308.966,185.379,308.966L185.379,308.966z"/>
		<path style="fill:#FFFFFF;" d="M211.862,379.586c-2.26,0-4.52-0.865-6.241-2.586L135,306.379c-3.452-3.452-3.452-9.031,0-12.482    s9.031-3.452,12.482,0l70.621,70.621c3.452,3.452,3.452,9.031,0,12.482C216.382,378.721,214.122,379.586,211.862,379.586"/>
		<path style="fill:#FFFFFF;" d="M467.862,238.345H361.931c-4.882,0-8.828-3.955-8.828-8.828s3.946-8.828,8.828-8.828h105.931    c4.882,0,8.828,3.955,8.828,8.828S472.744,238.345,467.862,238.345"/>
		<path style="fill:#FFFFFF;" d="M414.897,379.586c-4.882,0-8.828-3.955-8.828-8.828V229.517c0-4.873,3.946-8.828,8.828-8.828    c4.882,0,8.828,3.955,8.828,8.828v141.241C423.724,375.631,419.778,379.586,414.897,379.586"/>
		<path style="fill:#FFFFFF;" d="M141.241,388.414c-4.882,0-8.828-3.955-8.828-8.828V229.517c0-4.873,3.946-8.828,8.828-8.828    s8.828,3.955,8.828,8.828v150.069C150.069,384.459,146.123,388.414,141.241,388.414"/>
	</g>
</g>
<g>
</g>
<g>
</g>
<g>
</g>
<g>
</g>
<g>
</g>
<g>
</g>
<g>
</g>
<g>
</g>
<g>
</g>
<g>
</g>
<g>
</g>
<g>
</g>
<g>
</g>
<g>
</g>
<g>
</g>
</svg>
