<?xml version="1.0" encoding="iso-8859-1"?>
<!-- Generator: Adobe Illustrator 19.0.0, SVG Export Plug-In . SVG Version: 6.00 Build 0)  -->
<svg xmlns="http://www.w3.org/2000/svg" xmlns:xlink="http://www.w3.org/1999/xlink" version="1.1" id="Layer_1" x="0px" y="0px" viewBox="0 0 512 512" style="enable-background:new 0 0 512 512;" xml:space="preserve">
<g>
	<polygon style="fill:#BDC3C7;" points="406.069,105.931 300.138,105.931 300.138,0  "/>
	<polygon style="fill:#FFC14F;" points="176.552,423.724 512,423.724 512,176.552 176.552,176.552  "/>
	<polygon style="fill:#ECF0F1;" points="176.552,423.724 176.552,176.552 406.069,176.552 406.069,105.931 300.138,105.931    300.138,0 0,0 0,512 406.069,512 406.069,423.724  "/>
	<g>
		<path style="fill:#FFFFFF;" d="M273.655,397.241c-19.474,0-35.31-15.837-35.31-35.31v-31.656l-23.896-23.896    c-3.452-3.452-3.452-9.031,0-12.482l23.896-23.896v-31.656c0-19.474,15.837-35.31,35.31-35.31c4.873,0,8.828,3.955,8.828,8.828    c0,4.873-3.955,8.828-8.828,8.828c-9.737,0-17.655,7.918-17.655,17.655v35.31c0,2.339-0.927,4.59-2.586,6.241l-20.242,20.242    l20.242,20.242c1.66,1.651,2.586,3.902,2.586,6.241v35.31c0,9.737,7.918,17.655,17.655,17.655c4.873,0,8.828,3.955,8.828,8.828    S278.528,397.241,273.655,397.241"/>
		<path style="fill:#FFFFFF;" d="M414.897,397.241c-4.873,0-8.828-3.955-8.828-8.828s3.955-8.828,8.828-8.828    c9.737,0,17.655-7.918,17.655-17.655v-35.31c0-2.339,0.927-4.59,2.586-6.241l20.242-20.242l-20.242-20.242    c-1.66-1.66-2.586-3.911-2.586-6.259l0.071-35.31c0-9.719-7.954-17.638-17.726-17.638c-4.873,0-8.828-3.955-8.828-8.828    c0-4.873,3.955-8.828,8.828-8.828c19.509,0,35.381,15.837,35.381,35.31l-0.062,31.656l23.887,23.896    c3.452,3.452,3.452,9.031,0,12.482l-23.896,23.896v31.656C450.207,381.405,434.37,397.241,414.897,397.241"/>
		<path style="fill:#FFFFFF;" d="M379.586,370.759h-70.621c-4.873,0-8.828-3.955-8.828-8.828V238.345    c0-4.873,3.955-8.828,8.828-8.828s8.828,3.955,8.828,8.828v114.759h61.793c4.873,0,8.828,3.955,8.828,8.828    S384.459,370.759,379.586,370.759"/>
	</g>
</g>
<g>
</g>
<g>
</g>
<g>
</g>
<g>
</g>
<g>
</g>
<g>
</g>
<g>
</g>
<g>
</g>
<g>
</g>
<g>
</g>
<g>
</g>
<g>
</g>
<g>
</g>
<g>
</g>
<g>
</g>
</svg>
