<?xml version="1.0" encoding="iso-8859-1"?>
<!-- Generator: Adobe Illustrator 19.0.0, SVG Export Plug-In . SVG Version: 6.00 Build 0)  -->
<svg version="1.1" id="Capa_1" xmlns="http://www.w3.org/2000/svg" xmlns:xlink="http://www.w3.org/1999/xlink" x="0px" y="0px"
	 viewBox="0 0 508 508" style="enable-background:new 0 0 508 508;" xml:space="preserve">
<circle style="fill:#F2F2F2;" cx="254" cy="254" r="254"/>
<circle style="fill:#FFFFFF;" cx="254" cy="254" r="206.8"/>
<path style="fill:#F2705B;" d="M305,254l60.1-60.1c14.1-14.1,14.1-36.9,0-51s-36.9-14.1-51,0L254,203l-60.1-60.1
	c-14.1-14.1-36.9-14.1-51,0s-14.1,36.9,0,51L203,254l-60.1,60.1c-14.1,14.1-14.1,36.9,0,51s36.9,14.1,51,0L254,305l60.1,60.1
	c14.1,14.1,36.9,14.1,51,0s14.1-36.9,0-51L305,254z"/>
<g>
</g>
<g>
</g>
<g>
</g>
<g>
</g>
<g>
</g>
<g>
</g>
<g>
</g>
<g>
</g>
<g>
</g>
<g>
</g>
<g>
</g>
<g>
</g>
<g>
</g>
<g>
</g>
<g>
</g>
</svg>
