<?xml version="1.0" encoding="iso-8859-1"?>
<!-- Generator: Adobe Illustrator 19.0.0, SVG Export Plug-In . SVG Version: 6.00 Build 0)  -->
<svg version="1.1" id="Capa_1" xmlns="http://www.w3.org/2000/svg" xmlns:xlink="http://www.w3.org/1999/xlink" x="0px" y="0px"
	 viewBox="0 0 508.1 508.1" style="enable-background:new 0 0 508.1 508.1;" xml:space="preserve">
<path style="fill:#F2F2F2;" d="M429.9,0H78.3C66.6,0,57.1,9.5,57.1,21.2v465.7c0,11.7,9.5,21.2,21.2,21.2h351.5
	c11.7,0,21.2-9.5,21.2-21.2V21.2C451,9.5,441.5,0,429.9,0z"/>
<rect x="101.7" y="44.4" style="fill:#89D6F7;" width="304.9" height="94.9"/>
<g>
	<circle style="fill:#65C5B8;" cx="137.5" cy="427.7" r="35.9"/>
	<circle style="fill:#65C5B8;" cx="254.1" cy="427.7" r="35.9"/>
</g>
<circle style="fill:#F2705B;" cx="370.3" cy="427.7" r="35.9"/>
<g>
	<circle style="fill:#65C5B8;" cx="137.5" cy="322.7" r="35.9"/>
	<circle style="fill:#65C5B8;" cx="254.1" cy="322.7" r="35.9"/>
</g>
<circle style="fill:#FFCF5C;" cx="370.3" cy="322.7" r="35.9"/>
<g>
	<circle style="fill:#65C5B8;" cx="137.5" cy="217.8" r="35.9"/>
	<circle style="fill:#65C5B8;" cx="254.1" cy="217.8" r="35.9"/>
	<circle style="fill:#65C5B8;" cx="370.3" cy="217.8" r="35.9"/>
</g>
<g>
</g>
<g>
</g>
<g>
</g>
<g>
</g>
<g>
</g>
<g>
</g>
<g>
</g>
<g>
</g>
<g>
</g>
<g>
</g>
<g>
</g>
<g>
</g>
<g>
</g>
<g>
</g>
<g>
</g>
</svg>
