<?xml version="1.0" encoding="iso-8859-1"?>
<!-- Generator: Adobe Illustrator 19.0.0, SVG Export Plug-In . SVG Version: 6.00 Build 0)  -->
<svg version="1.1" id="Capa_1" xmlns="http://www.w3.org/2000/svg" xmlns:xlink="http://www.w3.org/1999/xlink" x="0px" y="0px"
	 viewBox="0 0 508 508" style="enable-background:new 0 0 508 508;" xml:space="preserve">
<polygon style="fill:#41596B;" points="412.3,115.6 95.7,115.6 0.3,199.2 0.3,199.2 253.9,359.2 254.1,359.2 507.7,199.2 
	507.7,359.2 507.7,359.2 507.7,199.2 "/>
<polygon style="fill:#F2F2F2;" points="439.1,98.9 439.1,372.1 68.9,372.1 68.9,0 340.2,0 "/>
<path style="fill:#FFD05C;" d="M254,359.3L0.3,199.2v274.9c0,10.7,5,20.2,12.7,26.4c5.8,4.7,13.1,7.4,21.1,7.4h439.8
	c7.9,0,15.3-2.8,21.1-7.4c7.8-6.2,12.7-15.7,12.7-26.4V199.2L254,359.3z"/>
<path style="fill:#F6B44B;" d="M254,359.3L13,500.6c5.8,4.7,13.1,7.4,21.1,7.4h439.8c7.9,0,15.3-2.8,21.1-7.4L254,359.3z"/>
<polygon style="fill:#CDD5DF;" points="340.2,98.9 439.1,98.9 340.2,0 "/>
<rect x="133.4" y="26.8" style="fill:#89D6F7;" width="112.3" height="129.8"/>
<g>
	<rect x="133.4" y="191.3" style="fill:#CDD5DF;" width="241.2" height="22.4"/>
	<polygon style="fill:#CDD5DF;" points="374.6,265.5 133.4,265.5 130.3,243.1 371.5,243.1 	"/>
</g>
<g>
</g>
<g>
</g>
<g>
</g>
<g>
</g>
<g>
</g>
<g>
</g>
<g>
</g>
<g>
</g>
<g>
</g>
<g>
</g>
<g>
</g>
<g>
</g>
<g>
</g>
<g>
</g>
<g>
</g>
</svg>
