<?xml version="1.0" encoding="iso-8859-1"?>
<!-- Generator: Adobe Illustrator 19.0.0, SVG Export Plug-In . SVG Version: 6.00 Build 0)  -->
<svg version="1.1" id="Capa_1" xmlns="http://www.w3.org/2000/svg" xmlns:xlink="http://www.w3.org/1999/xlink" x="0px" y="0px"
	 viewBox="0 0 508.1 508.1" style="enable-background:new 0 0 508.1 508.1;" xml:space="preserve">
<path style="fill:#F2F2F2;" d="M0,147.6v339.3c0,11.7,9.5,21.2,21.2,21.2h465.7c11.7,0,21.2-9.5,21.2-21.2V147.6H0z"/>
<path style="fill:#89D6F7;" d="M486.8,0H21.2C9.5,0,0,9.5,0,21.2v126.4h508V21.2C508,9.5,498.5,0,486.8,0z"/>
<rect x="33.9" y="33.9" style="fill:#F2F2F2;" width="440.3" height="79.8"/>
<rect x="33.9" y="181.5" style="fill:#FFD05C;" width="203.2" height="129.4"/>
<rect x="33.9" y="344.7" style="fill:#89D6F7;" width="203.2" height="129.4"/>
<rect x="270.9" y="181.5" style="fill:#CDD5DF;" width="203.2" height="129.4"/>
<rect x="270.9" y="344.7" style="fill:#F2705B;" width="203.2" height="129.4"/>
<g>
	<rect x="84.8" y="234.7" style="fill:#FFFFFF;" width="101.2" height="22.9"/>
	<rect x="124" y="195.5" style="fill:#FFFFFF;" width="22.9" height="101.2"/>
</g>
<rect id="SVGCleanerId_0" x="84.81" y="397.947" transform="matrix(-0.7071 -0.7071 0.7071 -0.7071 -58.3292 794.6329)" style="fill:#FFFFFF;" width="101.199" height="22.9"/>
<g transform="matrix(0 1 -1 0 548.89 273.97)">
	
		<rect id="SVGCleanerId_0_1_" x="84.894" y="397.929" transform="matrix(0.7071 -0.7071 0.7071 0.7071 -249.7898 215.7126)" style="fill:#FFFFFF;" width="101.199" height="22.9"/>
</g>
<g>
	<rect x="321.9" y="234.7" style="fill:#FFFFFF;" width="101.2" height="22.9"/>
	<rect x="321.9" y="423" style="fill:#FFFFFF;" width="101.2" height="22.9"/>
	<rect x="321.9" y="373" style="fill:#FFFFFF;" width="101.2" height="22.9"/>
</g>
<g>
</g>
<g>
</g>
<g>
</g>
<g>
</g>
<g>
</g>
<g>
</g>
<g>
</g>
<g>
</g>
<g>
</g>
<g>
</g>
<g>
</g>
<g>
</g>
<g>
</g>
<g>
</g>
<g>
</g>
</svg>
