<?xml version="1.0" encoding="iso-8859-1"?>
<!-- Generator: Adobe Illustrator 19.0.0, SVG Export Plug-In . SVG Version: 6.00 Build 0)  -->
<svg version="1.1" id="Capa_1" xmlns="http://www.w3.org/2000/svg" xmlns:xlink="http://www.w3.org/1999/xlink" x="0px" y="0px"
	 viewBox="0 0 508.036 508.036" style="enable-background:new 0 0 508.036 508.036;" xml:space="preserve">
<polygon style="fill:#65C5B8;" points="145.055,94.031 145.055,55.631 83.555,55.631 83.555,143.531 "/>
<g>
	<rect x="12.855" y="457.931" style="fill:#ABB2B9;" width="70.7" height="38.2"/>
	<rect x="424.555" y="457.931" style="fill:#ABB2B9;" width="70.7" height="38.2"/>
</g>
<rect x="83.555" y="255.431" style="fill:#F2F2F2;" width="341" height="240.7"/>
<rect x="83.555" y="55.631" style="fill:#4FBFA8;" width="61.5" height="15"/>
<path style="fill:#F2705B;" d="M500.555,204.631l-233.9-188.3c-7.4-5.9-17.9-5.9-25.2,0l-233.9,188.3c-14.8,11.9-6.4,35.7,12.6,35.7
	h467.7C506.855,240.431,515.255,216.531,500.555,204.631z"/>
<rect x="190.955" y="318.431" style="fill:#FFD05C;" width="126.2" height="177.7"/>
<circle style="fill:#F7B34C;" cx="301.555" cy="407.331" r="8.4"/>
<path style="fill:#FFFFFF;" d="M290.855,139.531c0,11.6-5.4,21.9-13.8,28.7c-6.3,5.1-14.3,8.1-22.9,8.1c-20.3,0-36.8-16.5-36.8-36.8
	c0-8.7,3-16.7,8.1-23c6.8-8.4,17.1-13.8,28.7-13.8C274.355,102.731,290.855,119.231,290.855,139.531z"/>
<rect x="72.455" y="28.031" style="fill:#65C5B8;" width="83.6" height="27.6"/>
<rect x="83.555" y="240.431" style="fill:#CDD5DF;" width="341" height="15.1"/>
<g>
</g>
<g>
</g>
<g>
</g>
<g>
</g>
<g>
</g>
<g>
</g>
<g>
</g>
<g>
</g>
<g>
</g>
<g>
</g>
<g>
</g>
<g>
</g>
<g>
</g>
<g>
</g>
<g>
</g>
</svg>
