<?xml version="1.0" encoding="iso-8859-1"?>
<!-- Generator: Adobe Illustrator 19.0.0, SVG Export Plug-In . SVG Version: 6.00 Build 0)  -->
<svg version="1.1" id="Capa_1" xmlns="http://www.w3.org/2000/svg" xmlns:xlink="http://www.w3.org/1999/xlink" x="0px" y="0px"
	 viewBox="0 0 508.1 508.1" style="enable-background:new 0 0 508.1 508.1;" xml:space="preserve">
<g>
	<rect x="241.1" y="348.05" style="fill:#41596B;" width="25.7" height="65"/>
	<rect x="301.5" y="447.65" style="fill:#41596B;" width="157.1" height="25.7"/>
</g>
<rect x="199.1" y="447.65" style="opacity:0.2;fill:#27489A;enable-background:new    ;" width="7.4" height="25.7"/>
<rect x="49.4" y="447.65" style="fill:#41596B;" width="157.1" height="25.7"/>
<rect x="206.5" y="413.05" style="fill:#F2705B;" width="95" height="95"/>
<path style="fill:#89D6F7;" d="M455.3,167.85c2.1-9.6,3.3-19.6,3.3-29.9c0-76.2-61.7-137.9-137.9-137.9
	c-49.3,0-92.5,25.9-116.9,64.7c-13.8-7.8-29.7-12.3-46.7-12.3c-52.7,0-95.3,42.7-95.3,95.3c0,5.3,0.5,10.4,1.4,15.5
	C26.4,176.45,0,211.55,0,252.95c0,52.5,42.6,95.1,95.2,95.1h317.7c52.6,0,95.2-42.6,95.2-95.2C508,215.65,486.5,183.45,455.3,167.85
	z"/>
<path style="fill:#55BFE9;" d="M17.6,270.55c0-41.3,26.4-76.4,63.2-89.6c-0.8-5.1-1.4-10.2-1.4-15.5c0-52.7,42.7-95.3,95.3-95.3
	c17,0,32.9,4.5,46.7,12.3c24.4-38.9,67.6-64.7,116.9-64.7c33.6,0,64.3,12,88.3,32c-25.3-30.4-63.3-49.7-105.9-49.7
	c-49.3,0-92.5,25.9-116.9,64.7c-13.8-7.8-29.7-12.3-46.7-12.3c-52.7,0-95.3,42.7-95.3,95.3c0,5.3,0.5,10.4,1.4,15.5
	C26.4,176.45,0,211.55,0,252.95c0,30.8,14.7,58.1,37.3,75.5C25,312.35,17.6,292.35,17.6,270.55z"/>
<rect x="227.2" y="433.75" style="fill:#FFD05C;" width="53.6" height="53.6"/>
<rect x="241.1" y="348.05" style="fill:#334A5E;" width="25.7" height="17.5"/>
<g>
</g>
<g>
</g>
<g>
</g>
<g>
</g>
<g>
</g>
<g>
</g>
<g>
</g>
<g>
</g>
<g>
</g>
<g>
</g>
<g>
</g>
<g>
</g>
<g>
</g>
<g>
</g>
<g>
</g>
</svg>
