<?xml version="1.0" encoding="iso-8859-1"?>
<!-- Generator: Adobe Illustrator 19.0.0, SVG Export Plug-In . SVG Version: 6.00 Build 0)  -->
<svg version="1.1" id="Capa_1" xmlns="http://www.w3.org/2000/svg" xmlns:xlink="http://www.w3.org/1999/xlink" x="0px" y="0px"
	 viewBox="0 0 508.035 508.035" style="enable-background:new 0 0 508.035 508.035;" xml:space="preserve">
<path style="fill:#89D6F7;" d="M421.617,134.435c-0.8-18.3-12.4-35.1-30.7-41.6c-16.2-5.8-33.5-1.9-45.7,8.6
	c-15.3-64.3-76.9-108.5-144.2-100.5c-68,8.2-117.8,66.6-116.5,133.7c-47.4,4.2-84.5,43.9-84.5,92.3c0,51.2,41.5,92.8,92.8,92.8h73.3
	h175.8h73.3c51.2,0,92.8-41.5,92.8-92.8C508.017,177.935,469.917,137.735,421.617,134.435z"/>
<path style="fill:#41596B;" d="M425.717,360.235v-47.9l-34.4-4.6c-3.6-17.6-10.6-33.9-20.1-48.4l21.1-27.5l-33.9-33.9l-27.5,21.1
	c-14.5-9.5-30.8-16.5-48.4-20.1l-4.6-34.4h-47.9l-4.6,34.4c-17.6,3.6-33.9,10.6-48.4,20.1l-27.5-21.1l-33.9,33.9l21.1,27.5
	c-9.5,14.5-16.5,30.9-20.1,48.4l-34.4,4.6v47.9l34.4,4.6c3.6,17.6,10.6,33.9,20.1,48.4l-21.1,27.6l33.9,33.9l27.5-21.1
	c14.5,9.5,30.9,16.4,48.4,20.1l4.6,34.3h48l4.6-34.4c17.6-3.7,33.9-10.6,48.4-20.1l27.6,21.1l33.9-33.9l-21.1-27.6
	c9.5-14.5,16.5-30.8,20.1-48.4L425.717,360.235z M254.917,425.835c-49.4,0-89.5-40.1-89.5-89.5s40.1-89.5,89.5-89.5
	s89.5,40.1,89.5,89.5C344.517,385.735,304.417,425.835,254.917,425.835z"/>
<g>
</g>
<g>
</g>
<g>
</g>
<g>
</g>
<g>
</g>
<g>
</g>
<g>
</g>
<g>
</g>
<g>
</g>
<g>
</g>
<g>
</g>
<g>
</g>
<g>
</g>
<g>
</g>
<g>
</g>
</svg>
