<?xml version="1.0" encoding="iso-8859-1"?>
<!-- Generator: Adobe Illustrator 19.0.0, SVG Export Plug-In . SVG Version: 6.00 Build 0)  -->
<svg version="1.1" id="Capa_1" xmlns="http://www.w3.org/2000/svg" xmlns:xlink="http://www.w3.org/1999/xlink" x="0px" y="0px"
	 viewBox="0 0 508 508" style="enable-background:new 0 0 508 508;" xml:space="preserve">
<path style="fill:#F2705B;" d="M505,214.9c-0.1-0.6-0.2-1.2-0.3-1.7c-10.8-67.3-48.1-125.8-100.9-164.3C361.8,18.2,310,0,254,0
	C113.7,0,0,113.7,0,254s113.7,254,254,254c70.2,0,133.6-28.4,179.6-74.4v-0.1c37.6-37.6,63.5-87,71.6-142.2c0.1-0.5,0.1-1,0.2-1.4
	c1.7-11.7,2.6-23.8,2.6-36C508,240.7,507,227.7,505,214.9z"/>
<circle style="fill:#FFFFFF;" cx="254" cy="254" r="185.6"/>
<circle style="fill:#F2705B;" cx="254" cy="254" r="117.1"/>
<circle style="fill:#FFFFFF;" cx="254" cy="254" r="48.7"/>
<path style="opacity:0.2;fill:#334A5E;enable-background:new    ;" d="M508,254c0,12.2-0.9,24.2-2.6,36l-28,0.1l-17.6-26.5
	l-20.5,0.1l-68.7,0.2l-69,0.2l-35.8,0.1c-6.5,0.1-11.8-5.2-11.8-11.7c-0.1-6.4,5.2-11.7,11.7-11.8l35.1-0.1l69.5-0.2l68.7-0.2
	l20.7-0.1l17.5-26.7l27.5-0.1c0.1,0.6,0.2,1.2,0.3,1.7C507,227.7,508,240.7,508,254z"/>
<polygon style="fill:#FFD05C;" points="446,11 380.7,76.7 390.1,121.6 435,130.6 500.2,64.9 455.3,55.8 "/>
<path style="fill:#41596B;" d="M251.2,261.4L251.2,261.4c-4.6-4.6-4.6-12-0.1-16.6L453.4,41.2c4.6-4.6,12-4.6,16.6-0.1l0,0
	c4.6,4.6,4.6,12,0.1,16.6L267.8,261.3C263.2,265.9,255.8,266,251.2,261.4z"/>
<g>
</g>
<g>
</g>
<g>
</g>
<g>
</g>
<g>
</g>
<g>
</g>
<g>
</g>
<g>
</g>
<g>
</g>
<g>
</g>
<g>
</g>
<g>
</g>
<g>
</g>
<g>
</g>
<g>
</g>
</svg>
