<?xml version="1.0" encoding="iso-8859-1"?>
<!-- Generator: Adobe Illustrator 19.0.0, SVG Export Plug-In . SVG Version: 6.00 Build 0)  -->
<svg version="1.1" id="Capa_1" xmlns="http://www.w3.org/2000/svg" xmlns:xlink="http://www.w3.org/1999/xlink" x="0px" y="0px"
	 viewBox="0 0 508 508" style="enable-background:new 0 0 508 508;" xml:space="preserve">
<path style="fill:#F2705B;" d="M508,185.788l-54.4,45.7l-162.9,136.9l-36.7,30.8l-36.7-30.9l-162.9-136.9L0,185.788l54.4-41.7
	l142.9-109.4l36.1-27.7c12.1-9.3,29.1-9.3,41.2,0l36.1,27.7l142.9,109.4L508,185.788z"/>
<g>
	<path style="fill:#FFD05C;" d="M0,185.788L0,185.788L0,185.788z"/>
	<path style="fill:#FFD05C;" d="M340.4,326.688l-86.4,72.6l-86.4-72.6L0,185.788v301c0,5.7,2.2,10.9,5.9,14.8
		c3.9,3.9,9.3,6.4,15.2,6.4h465.6c5.9,0,11.4-2.4,15.2-6.5c3.6-3.9,5.9-9,5.9-14.7v-301L340.4,326.688z"/>
</g>
<polygon style="fill:#F2F2F2;" points="54.4,34.688 54.4,231.387 217.2,368.387 290.7,368.387 453.6,231.387 453.6,112.588 
	375.7,34.688 "/>
<polygon style="fill:#CDD5DF;" points="453.6,112.588 375.7,34.688 375.7,112.588 "/>
<path style="fill:#F6B44B;" d="M502.1,501.487c-3.8,4-9.3,6.5-15.2,6.5H21.2c-5.9,0-11.3-2.4-15.2-6.3l161.7-174.9l11.4-12.4
	c6.5-7.4,15.8-11.6,25.5-11.6h98.7c9.7,0,19,4.2,25.5,11.6l11.5,12.4L502.1,501.487z"/>
<rect x="88.2" y="68.488" style="fill:#89D6F7;" width="122.3" height="131.1"/>
<g>
	<rect x="244.4" y="176.488" style="fill:#CDD5DF;" width="175.4" height="23.1"/>
	<rect x="88.2" y="225.688" style="fill:#CDD5DF;" width="330.6" height="23.1"/>
</g>
<g>
</g>
<g>
</g>
<g>
</g>
<g>
</g>
<g>
</g>
<g>
</g>
<g>
</g>
<g>
</g>
<g>
</g>
<g>
</g>
<g>
</g>
<g>
</g>
<g>
</g>
<g>
</g>
<g>
</g>
</svg>
