<?xml version="1.0" encoding="iso-8859-1"?>
<!-- Generator: Adobe Illustrator 19.0.0, SVG Export Plug-In . SVG Version: 6.00 Build 0)  -->
<svg version="1.1" id="Capa_1" xmlns="http://www.w3.org/2000/svg" xmlns:xlink="http://www.w3.org/1999/xlink" x="0px" y="0px"
	 viewBox="0 0 508 508" style="enable-background:new 0 0 508 508;" xml:space="preserve">
<path style="fill:#CDD5DF;" d="M336.55,462c-1.1-4.6-2.7-9.1-4.5-13.4c-0.6-1.3-1.1-2.5-1.7-3.8c-2.4-4.9-5.2-9.5-8.5-13.8
	c-11.1-14.7-26.8-25.6-45-30.6c-7.2-2-14.9-3.1-22.8-3.1c-8,0-15.6,1.1-22.8,3.1c-18.2,5.1-34,16-45.1,30.6
	c-3.3,4.3-6.1,8.9-8.5,13.8c-0.6,1.2-1.2,2.5-1.7,3.8c-1.9,4.3-3.4,8.8-4.6,13.4c-1.6,6.5-2.5,13.3-2.5,20.4h170.3
	C339.05,475.3,338.15,468.6,336.55,462z"/>
<path style="fill:#F0ECDF;" d="M0.55,368.9v40.4c0,11.7,9.5,21.2,21.2,21.2h464.4c11.7,0,21.2-9.5,21.2-21.2v-40.4H0.55z"/>
<path style="fill:#334A5E;" d="M486.25,0H21.85c-11.7,0-21.2,9.5-21.2,21.2l-0.1,347.7h506.7l0.2-347.7
	C507.35,9.5,497.85,0,486.25,0z"/>
<polygon style="fill:#FFFFFF;" points="465.85,44.2 465.65,327.4 42.05,327.4 42.25,44.2 "/>
<rect x="126.65" y="482.4" style="fill:#F2F2F2;" width="254.5" height="25.6"/>
<path style="fill:#CDD5DF;" d="M266.95,392.7h-26.2c-3.8,0-7,3.1-7,7l0,0c0,3.8,3.1,7,7,7h26.2c3.8,0,7-3.1,7-7l0,0
	C273.85,395.8,270.75,392.7,266.95,392.7z"/>
<path style="fill:#ABB2B9;" d="M332.05,448.6h-156.3c0.5-1.3,1.1-2.5,1.7-3.8c2.4-4.9,5.2-9.5,8.5-13.8h135.7
	c3.3,4.3,6.1,8.9,8.5,13.8C330.85,446,331.45,447.3,332.05,448.6z"/>
<g>
</g>
<g>
</g>
<g>
</g>
<g>
</g>
<g>
</g>
<g>
</g>
<g>
</g>
<g>
</g>
<g>
</g>
<g>
</g>
<g>
</g>
<g>
</g>
<g>
</g>
<g>
</g>
<g>
</g>
</svg>
