<?xml version="1.0" encoding="iso-8859-1"?>
<!-- Generator: Adobe Illustrator 19.0.0, SVG Export Plug-In . SVG Version: 6.00 Build 0)  -->
<svg version="1.1" id="Capa_1" xmlns="http://www.w3.org/2000/svg" xmlns:xlink="http://www.w3.org/1999/xlink" x="0px" y="0px"
	 viewBox="0 0 508.1 508.1" style="enable-background:new 0 0 508.1 508.1;" xml:space="preserve">
<path style="fill:#F2F2F2;" d="M364.3,0H61C49.3,0,39.8,9.5,39.8,21.2v152.3h428.3v-69.6L364.3,0z"/>
<g>
	<path style="fill:#CDD5DF;" d="M385.4,103.9h82.7L364.3,0v82.7C364.3,94.4,373.8,103.9,385.4,103.9z"/>
	<rect x="102.3" y="112.5" style="fill:#CDD5DF;" width="240.2" height="27"/>
</g>
<rect x="102.3" y="39.1" style="fill:#65C5B8;" width="240.2" height="27"/>
<path style="fill:#FFD05C;" d="M486.8,163.4H235.4c-9.5,0-18.3-4.7-23.5-12.6l-28.4-42.9c-5.2-7.9-14.1-12.6-23.5-12.6H21.2
	C9.5,95.3,0,104.8,0,116.5v370.4c0,11.7,9.5,21.2,21.2,21.2h465.7c11.7,0,21.2-9.5,21.2-21.2V184.6
	C508,172.9,498.5,163.4,486.8,163.4z"/>
<g>
</g>
<g>
</g>
<g>
</g>
<g>
</g>
<g>
</g>
<g>
</g>
<g>
</g>
<g>
</g>
<g>
</g>
<g>
</g>
<g>
</g>
<g>
</g>
<g>
</g>
<g>
</g>
<g>
</g>
</svg>
