<?xml version="1.0" encoding="iso-8859-1"?>
<!-- Generator: Adobe Illustrator 19.0.0, SVG Export Plug-In . SVG Version: 6.00 Build 0)  -->
<svg version="1.1" id="Capa_1" xmlns="http://www.w3.org/2000/svg" xmlns:xlink="http://www.w3.org/1999/xlink" x="0px" y="0px"
	 viewBox="0 0 508.1 508.1" style="enable-background:new 0 0 508.1 508.1;" xml:space="preserve">
<path style="fill:#89D6F7;" d="M492,184c-8.6-12.2-20.7-21.7-34.8-27c0.7-3.8,1.2-7.7,1.2-11.7c0-31.9-25.6-57.9-57.4-58.7
	c-0.2-0.8-0.4-1.7-0.7-2.5C385.3,35.3,339.9,0,286.3,0c-11.2,0-21.9,1.6-32.2,4.5c-39.9,11.1-71.3,42.3-82.8,82
	c-0.2,0.6-0.2,1.1-0.4,1.6c-6.8-1.7-13.8-2.7-21.2-2.7c-41.6,0-76.4,28.9-85.5,67.7c-35,6.3-61.6,36.9-61.6,73.7
	c0,20.7,8.4,39.5,22,53.1c13.6,13.5,32.3,22,53.1,22h352.8c41.4,0,75-33.6,75-75C505.5,210.9,500.5,196.1,492,184z"/>
<path style="fill:#F2705B;" d="M324.4,208.9c-7.7,0-13.9,6.2-13.9,13.9V265H197.8v-42.2c0-7.7-6.2-13.9-13.9-13.9
	s-13.9,6.2-13.9,13.9v271.4c0,7.7,6.2,13.9,13.9,13.9s13.9-6.2,13.9-13.9V452h112.7v42.2c0,7.7,6.2,13.9,13.9,13.9
	c7.7,0,13.9-6.2,13.9-13.9V222.8C338.2,215.1,332,208.9,324.4,208.9z M310.5,288.1v58.8H197.8v-58.8H310.5z M197.8,428.8V370h112.7
	v58.8H197.8z"/>
<g>
</g>
<g>
</g>
<g>
</g>
<g>
</g>
<g>
</g>
<g>
</g>
<g>
</g>
<g>
</g>
<g>
</g>
<g>
</g>
<g>
</g>
<g>
</g>
<g>
</g>
<g>
</g>
<g>
</g>
</svg>
