<?xml version="1.0" encoding="iso-8859-1"?>
<!-- Generator: Adobe Illustrator 19.0.0, SVG Export Plug-In . SVG Version: 6.00 Build 0)  -->
<svg version="1.1" id="Capa_1" xmlns="http://www.w3.org/2000/svg" xmlns:xlink="http://www.w3.org/1999/xlink" x="0px" y="0px"
	 viewBox="0 0 507.901 507.901" style="enable-background:new 0 0 507.901 507.901;" xml:space="preserve">
<path style="fill:#F2F2F2;" d="M486.8,0H21.2C9.5,0,0,9.5,0,21.2v465.5c0,11.7,9.5,21.2,21.2,21.2h465.5c11.7,0,21.2-9.5,21.2-21.2
	V21.2C508,9.5,498.5,0,486.8,0z"/>
<rect x="45.2" y="45.2" style="fill:#89D6F7;" width="417.7" height="417.7"/>
<path style="opacity:0.4;fill:#FFFFFF;enable-background:new    ;" d="M235.1,45.2h-190v181.5c23.9,24.8,57.4,40.2,94.6,40.2
	c72.6,0,131.4-58.8,131.4-131.4C271.1,100.5,257.4,68.7,235.1,45.2z"/>
<polygon style="fill:#334A5E;" points="266.7,462.9 45.2,462.9 45.2,303.7 97.3,232.9 150.3,304.8 254,445.6 "/>
<polygon style="fill:#41596B;" points="462.9,447.5 462.9,462.9 45.2,462.9 45.2,447.5 150.3,304.8 254,163.9 357.8,304.8 "/>
<polygon style="fill:#334A5E;" points="462.9,303.7 462.9,462.9 241.3,462.9 254,445.6 357.8,304.8 410.7,232.9 "/>
<g>
	<path style="fill:#FFFFFF;" d="M437.6,108.4c0-0.3,0-0.5,0-0.8c0-17.3-14-31.3-31.3-31.3c-10.1,0-19,4.8-24.7,12.1
		c-1.2-0.2-2.4-0.3-3.7-0.3c-12.1,0-22.2,8.5-24.8,19.8c-9.1,1.4-16,9.2-16,18.7h114C451.1,118,445.4,110.8,437.6,108.4z"/>
	<path style="fill:#FFFFFF;" d="M361.5,161.9c0-0.1,0-0.3,0-0.4c0-9.5-7.7-17.3-17.3-17.3c-5.5,0-10.5,2.6-13.6,6.7
		c-0.7-0.1-1.3-0.2-2-0.2c-6.7,0-12.2,4.7-13.7,10.9c-5,0.8-8.8,5.1-8.8,10.3h62.8C368.9,167.1,365.8,163.2,361.5,161.9z"/>
	<circle style="opacity:0.4;fill:#FFFFFF;enable-background:new    ;" cx="139.7" cy="135.5" r="69.3"/>
	<circle style="fill:#FFFFFF;" cx="139.7" cy="135.5" r="49"/>
</g>
<g>
</g>
<g>
</g>
<g>
</g>
<g>
</g>
<g>
</g>
<g>
</g>
<g>
</g>
<g>
</g>
<g>
</g>
<g>
</g>
<g>
</g>
<g>
</g>
<g>
</g>
<g>
</g>
<g>
</g>
</svg>
